<?xml version="1.0" encoding="UTF-8" standalone="no"?>
<svg
   xmlns:dc="http://purl.org/dc/elements/1.1/"
   xmlns:cc="http://creativecommons.org/ns#"
   xmlns:rdf="http://www.w3.org/1999/02/22-rdf-syntax-ns#"
   xmlns:svg="http://www.w3.org/2000/svg"
   xmlns="http://www.w3.org/2000/svg"
   xmlns:sodipodi="http://sodipodi.sourceforge.net/DTD/sodipodi-0.dtd"
   xmlns:inkscape="http://www.inkscape.org/namespaces/inkscape"
   width="128.71239mm"
   height="133.20897mm"
   viewBox="0 0 128.71239 133.20897"
   version="1.1"
   id="svg48"
   inkscape:version="1.0.1 (3bc2e813f5, 2020-09-07)"
   sodipodi:docname="single_server_with_disks.svg">
  <defs
     id="defs42" />
  <sodipodi:namedview
     id="base"
     pagecolor="#ffffff"
     bordercolor="#666666"
     borderopacity="1.0"
     inkscape:pageopacity="0.0"
     inkscape:pageshadow="2"
     inkscape:zoom="0.35"
     inkscape:cx="263.69509"
     inkscape:cy="254.59064"
     inkscape:document-units="mm"
     inkscape:current-layer="layer1"
     inkscape:document-rotation="0"
     showgrid="false"
     fit-margin-top="0"
     fit-margin-left="0"
     fit-margin-right="0"
     fit-margin-bottom="0"
     inkscape:window-width="1401"
     inkscape:window-height="749"
     inkscape:window-x="37"
     inkscape:window-y="88"
     inkscape:window-maximized="0" />
  <metadata
     id="metadata45">
    <rdf:RDF>
      <cc:Work
         rdf:about="">
        <dc:format>image/svg+xml</dc:format>
        <dc:type
           rdf:resource="http://purl.org/dc/dcmitype/StillImage" />
        <dc:title></dc:title>
      </cc:Work>
    </rdf:RDF>
  </metadata>
  <g
     inkscape:label="Layer 1"
     inkscape:groupmode="layer"
     id="layer1"
     transform="translate(-36.064008,-80.806227)">
    <g
       id="g156"
       transform="matrix(0.26458333,0,0,0.19839408,95.89503,129.57173)">
      <path
         style="fill:#0052b4"
         d="M 237.368,160.797 H 214.397 45.942 22.97 0 v 76.571 c 0,24.597 15.662,47.653 42.972,63.259 23.662,13.522 54.629,20.968 87.197,20.968 32.568,0 63.535,-7.447 87.197,-20.968 27.308,-15.605 42.972,-38.663 42.972,-63.259 v -76.571 z"
         id="path2" />
      <path
         style="fill:#000000;fill-opacity:0"
         d="m 237.368,160.797 h -22.971 -84.228 v 160.798 c 32.568,0 63.535,-7.447 87.197,-20.968 27.308,-15.605 42.972,-38.663 42.972,-63.259 v -76.571 z"
         id="path4-9" />
      <path
         style="fill:#006df0"
         d="M 237.368,84.227 H 214.397 45.942 22.97 0 v 76.571 c 0,24.597 15.662,47.653 42.972,63.26 23.662,13.52 54.629,20.968 87.197,20.968 32.568,0 63.535,-7.447 87.197,-20.968 27.308,-15.607 42.972,-38.663 42.972,-63.26 V 84.227 Z"
         id="path6-9" />
      <path
         style="fill:#006df0;fill-opacity:1"
         d="m 237.368,84.227 h -22.971 -84.228 v 160.798 c 32.568,0 63.535,-7.447 87.197,-20.968 27.308,-15.605 42.972,-38.662 42.972,-63.259 V 84.227 Z"
         id="path8" />
      <path
         style="fill:#93c7ef"
         d="M 217.367,20.968 C 193.705,7.446 162.738,0 130.17,0 97.602,0 66.635,7.447 42.973,20.968 15.663,36.573 0.001,59.631 0.001,84.227 c 0,24.596 15.662,47.653 42.972,63.259 23.662,13.522 54.629,20.968 87.197,20.968 32.568,0 63.535,-7.447 87.197,-20.968 27.308,-15.604 42.972,-38.662 42.972,-63.259 0,-24.597 -15.664,-47.654 -42.972,-63.259 z"
         id="path10-6" />
      <path
         style="fill:#93c7ef;fill-opacity:1"
         d="M 217.367,20.968 C 193.705,7.446 162.738,0 130.17,0 v 168.455 c 32.568,0 63.535,-7.447 87.197,-20.968 27.308,-15.605 42.972,-38.663 42.972,-63.26 0,-24.597 -15.664,-47.654 -42.972,-63.259 z"
         id="path12" />
    </g>
    <g
       id="g977"
       transform="matrix(0.26458333,0,0,0.26458333,4.4550314,80.806227)">
      <path
         style="display:inline;fill:#51565f"
         d="M 345.6,503.467 H 157.867 c -21.333,0 -38.4,-17.067 -38.4,-38.4 V 38.4 c 0,-21.333 17.067,-38.4 38.4,-38.4 H 345.6 C 366.933,0 384,17.067 384,38.4 v 426.667 c 0,21.333 -17.067,38.4 -38.4,38.4 z"
         id="path10" />
      <path
         style="display:none;fill:#51565f"
         d="M 157.867,8.533 C 141.653,8.533 128,22.187 128,38.4 v 426.667 c 0,16.213 13.653,29.867 29.867,29.867 H 345.6 c 16.213,0 29.867,-13.653 29.867,-29.867 V 38.4 C 375.467,22.187 361.814,8.533 345.6,8.533 Z"
         id="path920" />
      <g
         transform="translate(1,1)"
         id="g8"
         style="display:inline">
        <path
           style="display:inline;fill:#7ee1e6"
           d="m 378.733,37.4 v 426.667 c 0,18.773 -15.36,34.133 -34.133,34.133 H 156.867 c -18.773,0 -34.133,-15.36 -34.133,-34.133 V 37.4 c 0,-5.973 1.707,-11.093 4.267,-16.213 5.973,-11.093 17.067,-17.92 29.867,-17.92 H 344.6 c 12.8,0 23.893,7.68 29.867,17.92 2.56,5.12 4.266,10.24 4.266,16.213"
           id="path4" />
        <path
           style="display:inline;fill:#e4f2de"
           d="m 250.733,344.6 c 5.12,0 8.533,4.267 8.533,8.533 0,4.266 -3.413,8.533 -8.533,8.533 -5.12,0 -8.533,-4.267 -8.533,-8.533 0,-4.266 3.413,-8.533 8.533,-8.533"
           id="path6" />
      </g>
      <path
         style="display:inline;fill:#51565f"
         d="M 345.6,42.667 H 157.867 c -2.56,0 -4.267,-1.707 -4.267,-4.267 0,-2.56 1.707,-4.267 4.267,-4.267 H 345.6 c 2.56,0 4.267,1.707 4.267,4.267 0,2.56 -1.707,4.267 -4.267,4.267 z"
         id="path960" />
      <path
         style="display:inline;fill:#51565f"
         d="M 345.6,110.933 H 157.867 c -2.56,0 -4.267,-1.707 -4.267,-4.267 0,-2.56 1.707,-4.267 4.267,-4.267 H 345.6 c 2.56,0 4.267,1.707 4.267,4.267 0,2.56 -1.707,4.267 -4.267,4.267 z"
         id="path956" />
      <path
         style="display:inline;fill:#51565f"
         d="M 345.6,179.2 H 157.867 c -2.56,0 -4.267,-1.707 -4.267,-4.267 0,-2.56 1.707,-4.267 4.267,-4.267 H 345.6 c 2.56,0 4.267,1.707 4.267,4.267 0,2.56 -1.707,4.267 -4.267,4.267 z"
         id="path950" />
      <path
         style="display:inline;fill:#51565f"
         d="M 345.6,247.467 H 157.867 c -2.56,0 -4.267,-1.707 -4.267,-4.267 0,-2.56 1.707,-4.267 4.267,-4.267 H 345.6 c 2.56,0 4.267,1.707 4.267,4.267 0,2.56 -1.707,4.267 -4.267,4.267 z"
         id="path944" />
      <path
         style="display:inline;fill:#51565f"
         d="m 294.4,418.133 h -85.333 c -2.56,0 -4.267,-1.707 -4.267,-4.267 0,-2.56 1.707,-4.267 4.267,-4.267 H 294.4 c 2.56,0 4.267,1.707 4.267,4.267 0,2.561 -1.707,4.267 -4.267,4.267 z"
         id="path930" />
      <path
         style="display:inline;fill:#51565f"
         d="m 294.4,452.267 h -85.333 c -2.56,0 -4.267,-1.707 -4.267,-4.267 0,-2.56 1.707,-4.267 4.267,-4.267 H 294.4 c 2.56,0 4.267,1.707 4.267,4.267 0,2.56 -1.707,4.267 -4.267,4.267 z"
         id="path926" />
      <path
         style="display:inline;fill:#51565f"
         d="m 251.733,366.933 c -6.827,0 -12.8,-5.973 -12.8,-12.8 0,-6.827 5.973,-12.8 12.8,-12.8 6.827,0 12.8,5.973 12.8,12.8 0,6.827 -5.973,12.8 -12.8,12.8 z"
         id="path938" />
      <path
         style="display:inline;fill:#e4f2de;fill-opacity:1"
         d="m 251.733,349.867 c -2.56,0 -4.267,1.707 -4.267,4.267 0,2.56 1.707,4.267 4.267,4.267 2.56,0 4.267,-1.707 4.267,-4.267 0,-2.561 -1.707,-4.267 -4.267,-4.267 z"
         id="path940" />
    </g>
  </g>
</svg>
