<svg xmlns="http://www.w3.org/2000/svg" viewBox="0 0 435.79 243.81"><path fill="#fff" d="M25.25 155.65C11.33 155.65 0 166.98 0 180.9s11.33 25.25 25.25 25.25S50.5 194.82 50.5 180.9s-11.33-25.25-25.25-25.25m0 44c-10.34 0-18.75-8.41-18.75-18.75s8.41-18.75 18.75-18.75S44 170.56 44 180.9s-8.41 18.75-18.75 18.75m92.5-42.2h-1.25v31.32c0 6-4.88 10.87-10.88 10.87s-10.88-4.88-10.88-10.87v-31.32h-6.5v31.32c0 6-4.88 10.87-10.88 10.87s-10.87-4.88-10.87-10.87v-31.32h-6.5v31.32c0 9.58 7.79 17.37 17.37 17.37 5.82 0 10.97-2.89 14.12-7.29 3.15 4.41 8.3 7.29 14.12 7.29 9.58 0 17.38-7.79 17.38-17.37v-31.32h-5.25zm40.51-2c-13.92 0-25.25 11.33-25.25 25.25v23.45h6.5V180.7c0-10.34 8.41-18.75 18.75-18.75s18.75 8.41 18.75 18.75v23.45h6.5V180.7c0-13.92-11.33-25.25-25.25-25.25m134.51.2c-13.92 0-25.25 11.33-25.25 25.25s11.33 25.25 25.25 25.25 25.25-11.33 25.25-25.25-11.33-25.25-25.25-25.25m0 44c-10.34 0-18.75-8.41-18.75-18.75s8.41-18.75 18.75-18.75 18.75 8.41 18.75 18.75-8.41 18.75-18.75 18.75m78.49-42.2h-1.25v23.45c0 10.34-8.41 18.75-18.75 18.75s-18.75-8.41-18.75-18.75v-23.45h-6.5v23.45c0 13.92 11.33 25.25 25.25 25.25s25.25-11.33 25.25-25.25v-23.45zm64.53-38.76v-1.25h-6.5v38.18l-18.96.02c-13.92 0-25.25 11.33-25.25 25.25s11.33 25.25 25.25 25.25h7.85c7.83 0 17.43-7.73 17.61-17.32zm-6.5 70.01c-.1 5.63-6.34 10.94-11.11 10.94h-7.85c-10.34 0-18.75-8.41-18.75-18.75s8.41-18.75 18.75-18.75l18.97-.02c.03 6.05.09 20.78-.02 26.58zm-178.52.07v-49.74a54 54 0 0 1-6.5-3.88v53.62c0 9.58 7.79 17.37 17.37 17.37h1.25v-6.5h-1.25c-6 0-10.87-4.88-10.87-10.87m-51.6-21.04c0-9.69 4.35-18.39 11.19-24.24-2.15-.83-4.16-1.97-5.95-3.37-7.23 6.99-11.75 16.78-11.75 27.61 0 21.18 17.23 38.41 38.42 38.41h1.25v-6.5h-1.25c-17.6 0-31.92-14.32-31.92-31.91zm1.34-124.05a18.2 18.2 0 0 1-2.4-9.04c0-10.11 8.22-18.33 18.33-18.33 3.74 0 7.22 1.13 10.12 3.06a39.1 39.1 0 0 0-3.36 15.86c0 1.04.05 2.07.13 3.09-.72-.04-1.44-.05-2.16-.05-7.5 0-14.55 1.97-20.66 5.41m-4.04 71.11c-10.63-7.68-17.56-20.17-17.56-34.26 0-3.6.46-7.1 1.31-10.43-.35-.01-.7-.03-1.06-.03-19.43 0-35.24 15.81-35.24 35.24s15.81 35.24 35.24 35.24c7.41 0 14.28-2.3 19.96-6.22a23.16 23.16 0 0 1-3.71-12.59c0-2.42.37-4.76 1.06-6.96zm1.58-3.8c3.16-6.05 8.91-10.55 15.77-12.02.65-.14 1.31-.25 1.97-.33s1.32-.14 2-.17c.31-.01.61-.02.92-.02 1.08 0 2.14.08 3.19.22-.33-2.38-.51-4.8-.51-7.27 0-11.84 3.89-22.79 10.44-31.65a39 39 0 0 1-3.95-5.94c-.32-.59-.62-1.19-.91-1.8s-.56-1.22-.82-1.85a39.3 39.3 0 0 1-2.29-7.79c-.89-.06-1.78-.1-2.69-.1-6.62 0-12.86 1.69-18.29 4.66-.6.33-1.19.68-1.77 1.04-.57.36-1.13.73-1.69 1.11a38.47 38.47 0 0 0-15.15 21.36c-.88 3.22-1.36 6.6-1.36 10.09 0 12.42 5.95 23.47 15.14 30.46m123.48-45.13c5.1-2.68 10.8-4.34 16.85-4.73-1.56-18-16.7-32.17-35.1-32.17-.7 0-1.4.03-2.09.07.32 2.02.5 4.09.5 6.21 0 3.28-.41 6.46-1.17 9.5a53.77 53.77 0 0 1 21.02 21.12zm-93.89-25.07c.11.71.25 1.41.41 2.11.36 1.6.82 3.16 1.38 4.67.25.67.53 1.33.82 1.98.28.64.59 1.26.91 1.88.94 1.81 2.02 3.52 3.25 5.13 2.46-2.84 5.21-5.43 8.21-7.7.57-.43 1.14-.84 1.73-1.25q.87-.6 1.77-1.17a53.04 53.04 0 0 1 27.92-8.35c.23 0 .46-.02.69-.02.67 0 1.33.03 1.99.05.91.03 1.82.09 2.72.17 6.16.54 12.02 2.14 17.4 4.6.55-2.47.85-5.02.85-7.65 0-1.95-.17-3.87-.47-5.74-.11-.66-.24-1.32-.38-1.96-.15-.65-.31-1.3-.49-1.94C292.14 10.84 278.55 0 262.46 0c-13.27 0-24.85 7.38-30.86 18.25-.33.61-.65 1.22-.95 1.85-.31.65-.6 1.32-.87 1.99a35.1 35.1 0 0 0-2.56 13.16c0 1.18.06 2.34.17 3.49q.105 1.035.27 2.07zm158.73 59.6c-1.06 0-2.08.11-3.09.27.05.87.09 1.75.09 2.63 0 11.22-4.41 21.43-11.57 29.01 3.54 4.09 8.75 6.69 14.57 6.69 10.64 0 19.3-8.66 19.3-19.3s-8.66-19.3-19.3-19.3m-7.04 1.35c-.03-.7-.07-1.39-.14-2.08-.06-.69-.15-1.37-.25-2.05-2.69-17.96-17.91-31.87-36.44-32.54-.46-.02-.92-.04-1.39-.04-.2 0-.41.01-.61.02-.67 0-1.34.04-2 .08-5.45.37-10.6 1.88-15.19 4.31 2.77 6.1 4.42 12.8 4.7 19.85.03.7.05 1.4.05 2.11 0 .21-.01.41-.02.62-.01.9-.04 1.79-.1 2.68-.81 13.27-6.5 25.24-15.29 34.14 7.01 7.8 17.17 12.71 28.45 12.71 9.75 0 18.65-3.67 25.41-9.69a40 40 0 0 0 2.94-2.91c6.16-6.79 9.91-15.8 9.91-25.67 0-.52-.02-1.04-.04-1.56zm-149.67 18.14c-.38-.6-.75-1.2-1.1-1.82a53.2 53.2 0 0 1-5.93-15.22c-1.27-.26-2.58-.4-3.93-.4-.14 0-.28.02-.42.02-.67.01-1.34.06-1.99.15-.67.08-1.33.21-1.98.36-5.69 1.33-10.4 5.18-12.92 10.3-.3.61-.56 1.23-.8 1.87q-.345.945-.6 1.95c-.37 1.5-.59 3.05-.59 4.66 0 3.71 1.07 7.17 2.89 10.11.36.58.74 1.13 1.15 1.67.41.52.83 1.03 1.29 1.51 3.52 3.7 8.47 6.02 13.97 6.02 8.18 0 15.16-5.12 17.97-12.31-2.14-2.18-4.1-4.55-5.84-7.07-.4-.58-.79-1.18-1.17-1.78zm94.23-24.66c.06-.85.11-1.7.13-2.55.01-.42.03-.84.03-1.27 0-7.08-1.51-13.81-4.21-19.9-.28-.62-.56-1.24-.86-1.84-.29-.6-.59-1.19-.91-1.77a49.6 49.6 0 0 0-18.77-19.22 50 50 0 0 0-3.58-1.89 49 49 0 0 0-19.87-4.68c-.38 0-.76-.03-1.14-.03-.47 0-.94.02-1.41.04-.85.02-1.69.07-2.53.14-7.78.62-15.05 3.04-21.4 6.85-.59.36-1.17.73-1.75 1.11a49.6 49.6 0 0 0-10.6 9.41c-.44.52-.86 1.05-1.28 1.58-.41.53-.81 1.07-1.2 1.61-5.76 8.07-9.17 17.94-9.17 28.59 0 2.81.25 5.56.7 8.25.13.77.28 1.54.44 2.3.18.83.38 1.65.61 2.46 1.23 4.5 3.08 8.74 5.45 12.63.36.59.73 1.17 1.12 1.74s.79 1.14 1.2 1.7q1.38 1.89 2.94 3.63c.56.63 1.14 1.26 1.74 1.86.55.55 1.11 1.1 1.68 1.62 8.8 8.14 20.56 13.12 33.46 13.12s23.79-4.63 32.48-12.25q.75-.66 1.47-1.35c.49-.47.98-.95 1.45-1.44 7.22-7.45 12.11-17.16 13.51-27.96.11-.84.19-1.68.26-2.52zM203.93 235.79h-6.45l-1.27 3.56h-3.54l6.24-16.6h3.84l6.2 16.6h-3.77zm-5.46-2.8h4.49l-2.22-6.41zm17.34 6.36v-16.6h3.51v7.31l6.04-7.31h4.02l-6.59 7.96 6.78 8.65h-4.32l-5.92-7.59v7.59h-3.51zm16.93-13.32c-1.25 0-2.13-.81-2.13-1.9s.88-1.94 2.13-1.94 2.15.81 2.15 1.94-.88 1.9-2.15 1.9m-1.57 13.32V227h3.21v12.35zm13.63-.33c-.79.39-1.53.56-2.47.56-2.54 0-4.14-1.46-4.14-4.23v-5.6h-2.5V227h2.5v-3.66h3.19V227h3.54v2.75h-3.54v4.86c0 1.43.65 2.01 1.8 2.01.6 0 1.16-.14 1.62-.39v2.8zm1.18-5.89c0-3.68 2.57-6.36 6.13-6.36 3.91 0 6.5 3.17 5.92 7.19h-8.76c.21 2.01 1.18 3.12 2.82 3.12 1.41 0 2.36-.69 2.73-1.92h3.19c-.69 2.8-2.85 4.4-5.85 4.4-3.7 0-6.17-2.57-6.17-6.43zm3.33-1.2h5.32c-.09-1.71-1.06-2.8-2.59-2.8s-2.45.97-2.73 2.8m18.36-.61-2.31 8.03h-3.21L258.63 227h3.12l2.11 7.82 2.27-7.82h3.17l2.2 7.82 2.08-7.82h3.17l-3.54 12.35h-3.19l-2.34-8.03zm9.57 1.85c0-3.61 2.68-6.41 6.27-6.41s6.27 2.8 6.27 6.41-2.68 6.41-6.27 6.41-6.27-2.82-6.27-6.41m9.23 0c0-2.29-1.37-3.54-2.96-3.54s-2.96 1.25-2.96 3.54 1.36 3.56 2.96 3.56 2.96-1.27 2.96-3.56m8.54 6.18h-3.22V227h2.96v2.38c.9-1.57 2.82-2.52 4.81-2.52v3.33c-2.73-.21-4.56.44-4.56 3.17v5.99zm5.99 0v-16.6h3.22v9.48l4.51-5.23h3.7l-5.11 5.92 5.71 6.43h-4.09l-4.72-5.74v5.74zm17.74.23c-3.52 0-5.48-1.69-5.74-4.44h3.08c.02 1.27 1.11 2.08 2.71 2.08 1.25 0 2.2-.39 2.2-1.27 0-.79-.51-1.11-1.69-1.34l-2.22-.42c-2.22-.39-3.56-1.62-3.56-3.54 0-2.29 1.97-3.88 5.04-3.88s5.23 1.64 5.46 4.3h-3.08c-.11-1.2-1.02-1.94-2.38-1.94-1.18 0-1.97.44-1.97 1.23 0 .74.51 1.04 1.62 1.25l2.38.44c2.4.46 3.63 1.57 3.63 3.35 0 2.59-1.97 4.19-5.48 4.19zm11.82-8.56c0-4.86 3.65-8.63 8.33-8.63 4.37 0 7.79 2.91 8.37 7.17h-3.72c-.39-2.38-2.24-4.02-4.6-4.02-2.85 0-4.76 2.24-4.76 5.48s1.92 5.53 4.76 5.53c2.36 0 4.19-1.66 4.6-4.05h3.72c-.58 4.3-4 7.19-8.37 7.19-4.67 0-8.33-3.79-8.33-8.67m18.07 2.15c0-3.61 2.68-6.41 6.27-6.41s6.27 2.8 6.27 6.41-2.68 6.41-6.27 6.41-6.27-2.82-6.27-6.41m9.23 0c0-2.29-1.37-3.54-2.96-3.54s-2.96 1.25-2.96 3.54 1.36 3.56 2.96 3.56 2.96-1.27 2.96-3.56m5.32 6.18V227h2.96v1.76c.9-1.25 2.06-1.99 3.7-1.99s2.98.79 3.61 2.2c.97-1.37 2.22-2.2 4.07-2.2 2.5 0 4.19 1.64 4.19 4.6v7.98h-3.19v-6.96c0-1.73-.74-2.77-2.15-2.77-1.27 0-2.31.99-2.31 2.84v6.89h-3.19v-6.96c0-1.73-.74-2.77-2.15-2.77-1.3 0-2.31.99-2.31 2.84v6.89zm28.11.23c-1.46 0-2.71-.63-3.63-1.83v6.06h-3.22V227h2.96v1.8c.95-1.32 2.31-2.04 3.89-2.04 3.33 0 5.48 2.78 5.48 6.41s-2.15 6.41-5.48 6.41m-.72-9.97c-1.57 0-2.89 1.22-2.89 3.56s1.32 3.54 2.89 3.54 2.89-1.18 2.89-3.54-1.32-3.56-2.89-3.56m15.6 8.21c-.81 1.16-2.04 1.76-3.72 1.76-2.57 0-4.28-1.5-4.28-3.82s1.94-3.7 5.55-3.7c.69 0 1.3.05 2.06.14v-.74c0-1.39-.79-2.2-2.13-2.2s-2.22.81-2.34 2.2h-2.89c.18-2.84 2.24-4.69 5.23-4.69 3.24 0 5.14 1.78 5.14 4.81v7.77h-2.61v-1.53zm-3.03-.46c1.64 0 2.64-.9 2.64-2.34v-.88c-.76-.12-1.3-.16-1.85-.16-1.83 0-2.73.58-2.73 1.69 0 1.04.74 1.69 1.94 1.69m11.57 1.99h-3.22V227h2.96v1.76c.9-1.23 2.17-1.99 3.79-1.99 2.47 0 4.18 1.62 4.18 4.6v7.98h-3.19v-6.89c0-1.83-.72-2.84-2.17-2.84-1.27 0-2.36 1.02-2.36 3.01v6.73zm15.06 4.46h-3.49l1.76-4.6-4.86-12.21h3.47l3.1 8.46 2.82-8.46h3.21z"/></svg>