<svg xmlns="http://www.w3.org/2000/svg" viewBox="0 0 16 16"><title>Octicons (16px subset)</title><desc>Octicons v11.2.0 by GitHub - https://primer.style/octicons/ - License: MIT</desc><symbol id="a" viewBox="0 0 16 16"><path fill-rule="evenodd" d="M5.75 1a.75.75 0 0 0-.75.75v3c0 .414.336.75.75.75h4.5a.75.75 0 0 0 .75-.75v-3a.75.75 0 0 0-.75-.75zm.75 3V2.5h3V4zm-2.874-.467a.75.75 0 0 0-.752-1.298A1.75 1.75 0 0 0 2 3.75v9.5c0 .966.784 1.75 1.75 1.75h8.5A1.75 1.75 0 0 0 14 13.25v-9.5a1.75 1.75 0 0 0-.874-1.515.75.75 0 1 0-.752 1.298.25.25 0 0 1 .126.217v9.5a.25.25 0 0 1-.25.25h-8.5a.25.25 0 0 1-.25-.25v-9.5a.25.25 0 0 1 .126-.217"/></symbol><symbol id="b" viewBox="0 0 16 16"><path d="M10.896 2H8.75V.75a.75.75 0 0 0-1.5 0V2H5.104a.25.25 0 0 0-.177.427l2.896 2.896a.25.25 0 0 0 .354 0l2.896-2.896A.25.25 0 0 0 10.896 2M8.75 15.25a.75.75 0 0 1-1.5 0V14H5.104a.25.25 0 0 1-.177-.427l2.896-2.896a.25.25 0 0 1 .354 0l2.896 2.896a.25.25 0 0 1-.177.427H8.75zm-6.5-6.5a.75.75 0 0 0 0-1.5h-.5a.75.75 0 0 0 0 1.5zM6 8a.75.75 0 0 1-.75.75h-.5a.75.75 0 0 1 0-1.5h.5A.75.75 0 0 1 6 8m2.25.75a.75.75 0 0 0 0-1.5h-.5a.75.75 0 0 0 0 1.5zM12 8a.75.75 0 0 1-.75.75h-.5a.75.75 0 0 1 0-1.5h.5A.75.75 0 0 1 12 8m2.25.75a.75.75 0 0 0 0-1.5h-.5a.75.75 0 0 0 0 1.5z"/></symbol><symbol id="c" viewBox="0 0 16 16"><path d="m8.177.677 2.896 2.896a.25.25 0 0 1-.177.427H8.75v1.25a.75.75 0 0 1-1.5 0V4H5.104a.25.25 0 0 1-.177-.427L7.823.677a.25.25 0 0 1 .354 0M7.25 10.75a.75.75 0 0 1 1.5 0V12h2.146a.25.25 0 0 1 .177.427l-2.896 2.896a.25.25 0 0 1-.354 0l-2.896-2.896A.25.25 0 0 1 5.104 12H7.25zm-5-2a.75.75 0 0 0 0-1.5h-.5a.75.75 0 0 0 0 1.5zM6 8a.75.75 0 0 1-.75.75h-.5a.75.75 0 0 1 0-1.5h.5A.75.75 0 0 1 6 8m2.25.75a.75.75 0 0 0 0-1.5h-.5a.75.75 0 0 0 0 1.5zM12 8a.75.75 0 0 1-.75.75h-.5a.75.75 0 0 1 0-1.5h.5A.75.75 0 0 1 12 8m2.25.75a.75.75 0 0 0 0-1.5h-.5a.75.75 0 0 0 0 1.5z"/></symbol><use width="16" height="16" href="#a"/><view viewBox="0 0 16 16"/><use width="16" height="16" y="16" href="#b"/><view viewBox="0 16 16 16"/><use width="16" height="16" y="32" href="#c"/><view viewBox="0 32 16 16"/></svg>