<?xml version="1.0" encoding="UTF-8"?>
<!-- Creator: inkscape 1.1, Author: jw@owncloud.com -->
<svg width="512pt" height="512pt" clip-rule="evenodd" fill-rule="evenodd" shape-rendering="geometricPrecision" version="1.1" viewBox="0 0 16 16" xml:space="preserve" xmlns="http://www.w3.org/2000/svg">
 <defs>
  <style type="text/css">
   <![CDATA[
    .str1 {stroke:#000;stroke-width:16.9405}
    .fil0 {fill:#000}
    .fil2 {fill:white}
   ]]>
  </style>
 </defs>
 
 <path id="Background" class="fil0" transform="matrix(1.3552 0 0 1.3552 0 -.225)" d="m133.33 0.0039062c-73.864 0-133.33 59.464-133.33 133.33v416.01c0 73.864 59.466 133.33 133.33 133.33h416.01c73.864 0 133.33-59.466 133.33-133.33v-416.01c0-73.864-59.464-133.33-133.33-133.33zm191.91 194.78a68.828 69.049 0 0 1 67.156 54.312 68.828 69.049 0 0 1 8.4297-0.60742 68.828 69.049 0 0 1 68.758 67.062 74.318 74.299 0 0 1 0.91406-0.0312 74.318 74.299 0 0 1 73.799 66.295 39.27 39.572 0 0 1 9.8086-1.2832 39.27 39.572 0 0 1 39.271 39.572 39.27 39.572 0 0 1-39.271 39.572 39.27 39.572 0 0 1-31.863-16.529 74.318 74.299 0 0 1-51.744 20.971 74.318 74.299 0 0 1-57.053-26.791 95.431 95.296 0 0 1-65.402 25.984 95.431 95.296 0 0 1-66.186-26.791 39.27 39.572 0 0 1-37.268 27.193 39.27 39.572 0 0 1-31.158-15.533 68.828 69.049 0 0 1-41.893 14.322 68.828 69.049 0 0 1-68.83-69.049 68.828 69.049 0 0 1 68.83-69.051 68.828 69.049 0 0 1 7.0938 0.37891 74.318 74.299 0 0 1 31.217-39.92 37.581 37.553 0 0 1-7.0645-21.836 37.581 37.553 0 0 1 37.582-37.553 37.581 37.553 0 0 1 23.141 8.0176 68.828 69.049 0 0 1 61.732-38.707z"/>
 <g transform="matrix(.51084 0 0 .48851 -757.67 -435.3)" fill="none" fill-rule="evenodd" stroke="#000"><g transform="matrix(1.1202 0 0 1.1202 708.23 1214.6)" fill-rule="evenodd" stroke-width="15.374">
  <path transform="matrix(1.1342 0 0 1.1342 -632.22 -1170.5)" d="m1704.5 1375.1"/>
  <path transform="matrix(1.1342 0 0 1.1342 -632.22 -1170.5)" d="m1605.4 1398.9a155.18 162.23 0 0 1 82.37-24.741 155.18 162.23 0 0 1 16.705 0.9427"/>
  <path transform="matrix(1.1342 0 0 1.1342 -632.22 -1170.5)" d="m1601.8 1671.5a155.18 162.23 0 0 1-69.218-135.07 155.18 162.23 0 0 1 7.6688-50.37"/>
  <path transform="matrix(1.1342 0 0 1.1342 -632.22 -1170.5)" d="m1986.8 1320.6a143.72 150.77 0 0 1 3.3599 32.411 143.72 150.77 0 0 1-5.7544 42.237"/>
  <path transform="matrix(1.1342 0 0 1.1342 -632.22 -1170.5)" d="m1737.8 1451.7a143.72 150.77 0 0 1-35.058-98.679 143.72 150.77 0 0 1 14.703-66.433"/>
  <path transform="matrix(1.1342 0 0 1.1342 -632.22 -1170.5)" d="m2030.6 1731.9"/>
  <path transform="matrix(1.1342 0 0 1.1342 -632.22 -1170.5)" d="m2304.1 1610.5a155.18 162.23 0 0 1 0.9126 17.568 155.18 162.23 0 0 1-47.217 116.53"/>
  <path transform="matrix(1.1342 0 0 1.1342 -632.22 -1170.5)" d="m2072.3 1487.6a155.18 162.23 0 0 1 75.687-21.675"/>
  <path transform="matrix(1.1342 0 0 1.1342 -632.22 -1170.5)" d="m1613 1755.7a81.999 86.407 0 0 1-16.954-52.614 81.999 86.407 0 0 1 81.999-86.407 81.999 86.407 0 0 1 20.455 2.7316"/>
  <path transform="matrix(1.1342 0 0 1.1342 -632.22 -1170.5)" d="m1756 1730.1"/>
  <path transform="matrix(1.1342 0 0 1.1342 -632.22 -1170.5)" d="m1755.8 1730.3a199.27 208.08 0 0 1-60.983-149.82 199.27 208.08 0 0 1 199.27-208.08 199.27 208.08 0 0 1 199.27 208.08 199.27 208.08 0 0 1-62.718 151.55"/></g>
  <path d="m2346 1430.9a182.59 191.56 0 0 0-163.77 107.38 99.699 104.18 0 0 0-61.391-22.246 99.699 104.18 0 0 0-99.7 104.18 99.699 104.18 0 0 0 18.74 60.577 197.16 206.12 0 0 0-82.816 110.75 182.59 191.56 0 0 0-18.819-1.0497 182.59 191.56 0 0 0-182.6 191.56 182.59 191.56 0 0 0 182.6 191.56 182.59 191.56 0 0 0 111.14-39.731 104.18 109.78 0 0 0 82.66 43.091 104.18 109.78 0 0 0 98.869-75.439 253.17 264.37 0 0 0 175.58 74.32 253.17 264.37 0 0 0 173.51-72.084 197.16 206.12 0 0 0 151.36 74.325 197.16 206.12 0 0 0 137.27-58.175 104.18 109.78 0 0 0 84.534 45.852 104.18 109.78 0 0 0 104.18-109.78 104.18 109.78 0 0 0-104.18-109.78 104.18 109.78 0 0 0-26.026 3.5633 197.16 206.12 0 0 0-195.78-183.92 197.16 206.12 0 0 0-2.427 0.089 182.59 191.56 0 0 0-182.41-186.04 182.59 191.56 0 0 0-22.36 1.6825 182.59 191.56 0 0 0-178.16-150.67z" stroke-width="19.533"/>
 </g>
</svg>
