<?xml version="1.0" standalone="no"?>
<!DOCTYPE svg PUBLIC "-//W3C//DTD SVG 20010904//EN"
 "http://www.w3.org/TR/2001/REC-SVG-20010904/DTD/svg10.dtd">
<svg version="1.0" xmlns="http://www.w3.org/2000/svg"
 width="512.000000pt" height="512.000000pt" viewBox="0 0 512.000000 512.000000"
 preserveAspectRatio="xMidYMid meet">
<metadata>
Created by potrace 1.11, written by Peter Selinger 2001-2013
</metadata>
<g transform="translate(0.000000,512.000000) scale(0.100000,-0.100000)"
fill="#000000" stroke="none">
<path d="M2369 5116 c-2 -2 -33 -6 -69 -10 -58 -5 -191 -25 -274 -41 -16 -4
-64 -15 -105 -26 -262 -70 -416 -135 -696 -293 -11 -6 -54 -35 -97 -63 -437
-298 -781 -732 -963 -1219 -36 -95 -98 -303 -109 -361 -2 -15 -9 -53 -15 -83
-30 -161 -36 -242 -35 -470 0 -205 3 -255 28 -410 40 -250 132 -524 254 -760
263 -505 712 -930 1215 -1151 50 -22 101 -44 112 -49 55 -25 262 -90 348 -110
120 -27 111 -25 172 -34 28 -4 61 -10 75 -12 119 -20 466 -26 610 -11 478 49
929 231 1315 530 300 233 542 529 713 872 57 114 151 345 168 415 2 8 14 58
27 110 14 52 27 111 31 130 3 19 8 46 11 59 2 14 7 47 11 75 3 28 8 62 10 76
9 49 12 456 4 525 -16 133 -20 160 -36 240 -23 118 -58 247 -99 364 -70 202
-165 391 -287 573 -303 454 -759 809 -1273 991 -84 30 -149 50 -200 63 -78 19
-155 37 -175 40 -66 11 -88 14 -120 19 -19 3 -53 7 -75 11 -43 6 -470 15 -476
10z"/>
</g>
</svg>
