<?xml version="1.0" encoding="UTF-8" standalone="no"?>
<svg
   xmlns:dc="http://purl.org/dc/elements/1.1/"
   xmlns:cc="http://creativecommons.org/ns#"
   xmlns:rdf="http://www.w3.org/1999/02/22-rdf-syntax-ns#"
   xmlns:svg="http://www.w3.org/2000/svg"
   xmlns="http://www.w3.org/2000/svg"
   xmlns:sodipodi="http://sodipodi.sourceforge.net/DTD/sodipodi-0.dtd"
   xmlns:inkscape="http://www.inkscape.org/namespaces/inkscape"
   version="1.1"
   viewBox="0 0 477.16541 465.38849"
   fill="none"
   stroke="none"
   stroke-linecap="square"
   stroke-miterlimit="10"
   id="svg165"
   sodipodi:docname="containerized_applications.svg"
   width="477.16541"
   height="465.38849"
   inkscape:version="1.0.1 (3bc2e813f5, 2020-09-07)">
  <metadata
     id="metadata171">
    <rdf:RDF>
      <cc:Work
         rdf:about="">
        <dc:format>image/svg+xml</dc:format>
        <dc:type
           rdf:resource="http://purl.org/dc/dcmitype/StillImage" />
        <dc:title></dc:title>
      </cc:Work>
    </rdf:RDF>
  </metadata>
  <defs
     id="defs169" />
  <sodipodi:namedview
     pagecolor="#ffffff"
     bordercolor="#666666"
     borderopacity="1"
     objecttolerance="10"
     gridtolerance="10"
     guidetolerance="10"
     inkscape:pageopacity="0"
     inkscape:pageshadow="2"
     inkscape:window-width="1595"
     inkscape:window-height="925"
     id="namedview167"
     showgrid="false"
     fit-margin-top="0"
     fit-margin-left="0"
     fit-margin-right="0"
     fit-margin-bottom="0"
     inkscape:zoom="0.96841105"
     inkscape:cx="334.80019"
     inkscape:cy="203.62175"
     inkscape:window-x="175"
     inkscape:window-y="57"
     inkscape:window-maximized="0"
     inkscape:current-layer="svg165" />
  <clipPath
     id="p.0">
    <path
       d="M 0,0 H 1498.3307 V 551.9554 H 0 Z"
       clip-rule="nonzero"
       id="path2" />
  </clipPath>
  <path
     fill="#3d85c6"
     d="m 0,324.3727 h 473.514 v 62.55118 H 0 Z"
     fill-rule="evenodd"
     id="path31"
     style="display:inline;stroke-width:0.996167" />
  <path
     fill="#000000"
     d="m 202.696,363.76641 q 0,0.10938 -0.078,0.20313 -0.062,0.0937 -0.25,0.15625 -0.1719,0.0625 -0.4688,0.0937 -0.2812,0.0469 -0.7343,0.0469 -0.4532,0 -0.75,-0.0469 -0.2969,-0.0312 -0.4688,-0.0937 -0.1719,-0.0625 -0.25,-0.15625 -0.078,-0.0937 -0.078,-0.20313 v -6.125 h -5.6719 v 6.125 q 0,0.10938 -0.078,0.20313 -0.062,0.0937 -0.2344,0.15625 -0.1719,0.0625 -0.4687,0.0937 -0.2969,0.0469 -0.75,0.0469 -0.4532,0 -0.75,-0.0469 -0.2969,-0.0312 -0.4688,-0.0937 -0.1719,-0.0625 -0.25,-0.15625 -0.078,-0.0937 -0.078,-0.20313 v -14.32812 q 0,-0.10938 0.078,-0.20313 0.078,-0.0937 0.25,-0.15625 0.1719,-0.0625 0.4688,-0.0937 0.2968,-0.0312 0.75,-0.0312 0.4531,0 0.75,0.0312 0.2968,0.0312 0.4687,0.0937 0.1719,0.0625 0.2344,0.15625 0.078,0.0937 0.078,0.20313 v 5.57812 h 5.6719 v -5.57812 q 0,-0.10938 0.078,-0.20313 0.078,-0.0937 0.25,-0.15625 0.1719,-0.0625 0.4688,-0.0937 0.2968,-0.0312 0.75,-0.0312 0.4531,0 0.7343,0.0312 0.2969,0.0312 0.4688,0.0937 0.1875,0.0625 0.25,0.15625 0.078,0.0937 0.078,0.20313 z m 12.0469,0.0625 q 0,0.15625 -0.125,0.25 -0.1094,0.0937 -0.375,0.14063 -0.25,0.0469 -0.7344,0.0469 -0.5312,0 -0.7812,-0.0469 -0.2344,-0.0469 -0.3282,-0.14063 -0.094,-0.0937 -0.094,-0.25 v -0.84375 q -0.6563,0.70313 -1.4844,1.09375 -0.8125,0.375 -1.8281,0.375 -0.8281,0 -1.5313,-0.21875 -0.6875,-0.21875 -1.2031,-0.64062 -0.5156,-0.42188 -0.7969,-1.04688 -0.2812,-0.64062 -0.2812,-1.48437 0,-0.92188 0.3594,-1.59375 0.3593,-0.67188 1.0625,-1.10938 0.7187,-0.4375 1.7656,-0.64062 1.0625,-0.21875 2.4531,-0.21875 h 1.0156 v -0.64063 q 0,-0.48437 -0.094,-0.85937 -0.094,-0.375 -0.3281,-0.60938 -0.2344,-0.25 -0.6094,-0.35937 -0.375,-0.125 -0.9375,-0.125 -0.75,0 -1.3281,0.17187 -0.5782,0.15625 -1.0313,0.35938 -0.4375,0.1875 -0.7344,0.35937 -0.2968,0.15625 -0.4843,0.15625 -0.125,0 -0.2344,-0.0781 -0.094,-0.0781 -0.1563,-0.23438 -0.062,-0.15625 -0.1093,-0.375 -0.031,-0.21875 -0.031,-0.48437 0,-0.375 0.062,-0.57813 0.062,-0.21875 0.2188,-0.375 0.1718,-0.17187 0.5781,-0.375 0.4062,-0.21875 0.9531,-0.39062 0.5625,-0.17188 1.2031,-0.28125 0.6563,-0.10938 1.3438,-0.10938 1.2344,0 2.1094,0.23438 0.875,0.23437 1.4375,0.73437 0.5625,0.5 0.8125,1.29688 0.2656,0.78125 0.2656,1.85937 z m -2.9063,-4.48437 h -1.125 q -0.7031,0 -1.2187,0.10937 -0.5,0.10938 -0.8125,0.32813 -0.3125,0.20312 -0.4688,0.5 -0.1406,0.29687 -0.1406,0.6875 0,0.65625 0.4063,1.03125 0.4218,0.375 1.1562,0.375 0.625,0 1.1406,-0.3125 0.5313,-0.32813 1.0625,-0.9375 z m 12.5508,-5.03125 q 0,0.42187 -0.031,0.6875 -0.016,0.26562 -0.062,0.42187 -0.047,0.15625 -0.125,0.21875 -0.062,0.0469 -0.1875,0.0469 -0.094,0 -0.2188,-0.0312 -0.1094,-0.0469 -0.2656,-0.0937 -0.1406,-0.0469 -0.3125,-0.0781 -0.1719,-0.0469 -0.3906,-0.0469 -0.2344,0 -0.4844,0.0937 -0.25,0.0937 -0.5156,0.3125 -0.2657,0.20312 -0.5469,0.5625 -0.2813,0.34375 -0.6094,0.85937 v 6.51563 q 0,0.125 -0.078,0.21875 -0.062,0.0781 -0.2344,0.14062 -0.1719,0.0625 -0.4531,0.0937 -0.2813,0.0312 -0.7188,0.0312 -0.4375,0 -0.7187,-0.0312 -0.2813,-0.0312 -0.4531,-0.0937 -0.1563,-0.0625 -0.2344,-0.14062 -0.062,-0.0937 -0.062,-0.21875 v -10.45313 q 0,-0.10937 0.047,-0.1875 0.062,-0.0937 0.2187,-0.15625 0.1563,-0.0625 0.3906,-0.0937 0.2344,-0.0312 0.6094,-0.0312 0.375,0 0.6094,0.0312 0.25,0.0312 0.375,0.0937 0.1406,0.0625 0.2031,0.15625 0.062,0.0781 0.062,0.1875 v 1.3125 q 0.4063,-0.59375 0.7656,-0.96875 0.375,-0.39062 0.7032,-0.60937 0.3281,-0.21875 0.6562,-0.29688 0.3281,-0.0937 0.6563,-0.0937 0.1406,0 0.3125,0.0156 0.1875,0.0156 0.375,0.0625 0.1875,0.0312 0.3281,0.0937 0.1406,0.0469 0.2031,0.10937 0.062,0.0469 0.094,0.125 0.031,0.0625 0.047,0.1875 0.031,0.125 0.031,0.375 0.016,0.25 0.016,0.67188 z m 11.7344,9.46875 q 0,0.14062 -0.062,0.23437 -0.047,0.0781 -0.1875,0.14063 -0.1406,0.0625 -0.3906,0.0781 -0.2344,0.0312 -0.5938,0.0312 -0.375,0 -0.6094,-0.0312 -0.2343,-0.0156 -0.375,-0.0781 -0.1406,-0.0625 -0.2187,-0.14063 -0.062,-0.0937 -0.062,-0.23437 v -1.15625 q -0.7969,0.875 -1.6875,1.35937 -0.8906,0.46875 -1.9688,0.46875 -1.1875,0 -2.0156,-0.45312 -0.8281,-0.46875 -1.3594,-1.25 -0.5156,-0.79688 -0.75,-1.84375 -0.2343,-1.04688 -0.2343,-2.20313 0,-1.39062 0.2968,-2.5 0.3125,-1.125 0.875,-1.90625 0.5782,-0.78125 1.4375,-1.20312 0.8594,-0.42188 1.9688,-0.42188 0.875,0 1.5937,0.35938 0.7188,0.34375 1.4219,1.04687 v -5.67187 q 0,-0.10938 0.062,-0.20313 0.062,-0.0937 0.2344,-0.15625 0.1719,-0.0625 0.4531,-0.0937 0.2813,-0.0469 0.7031,-0.0469 0.4375,0 0.7188,0.0469 0.2812,0.0312 0.4375,0.0937 0.1719,0.0625 0.2344,0.15625 0.078,0.0937 0.078,0.20313 z m -2.9219,-6.98438 q -0.6406,-0.79687 -1.2187,-1.21875 -0.5782,-0.42187 -1.2188,-0.42187 -0.5625,0 -0.9844,0.29687 -0.4218,0.28125 -0.6718,0.76563 -0.25,0.48437 -0.375,1.07812 -0.125,0.57813 -0.125,1.20313 0,0.65625 0.1093,1.28125 0.1094,0.625 0.3438,1.10937 0.25,0.48438 0.6406,0.78125 0.4063,0.28125 1.0156,0.28125 0.2969,0 0.5782,-0.0781 0.2968,-0.0937 0.5937,-0.28125 0.2969,-0.20313 0.6094,-0.53125 0.3281,-0.32813 0.7031,-0.79688 z m 21.8789,-3.48437 q 0,0.125 -0.031,0.3125 -0.031,0.1875 -0.125,0.54687 l -2.7969,9.45313 q -0.047,0.20312 -0.1406,0.32812 -0.094,0.10938 -0.2969,0.1875 -0.1875,0.0781 -0.5469,0.0937 -0.3594,0.0312 -0.9375,0.0312 -0.5625,0 -0.9375,-0.0312 -0.3594,-0.0312 -0.5625,-0.0937 -0.2031,-0.0781 -0.2969,-0.20312 -0.094,-0.125 -0.1406,-0.3125 l -1.7656,-6.35938 -0.016,-0.0937 -0.031,0.0937 -1.6094,6.35938 q -0.047,0.20312 -0.1406,0.32812 -0.078,0.10938 -0.2969,0.1875 -0.2031,0.0781 -0.5781,0.0937 -0.3594,0.0312 -0.9375,0.0312 -0.5781,0 -0.9375,-0.0312 -0.3594,-0.0312 -0.5625,-0.0937 -0.2031,-0.0781 -0.2969,-0.20312 -0.094,-0.125 -0.1406,-0.3125 l -2.7656,-9.45313 q -0.1094,-0.34375 -0.1406,-0.53125 -0.031,-0.20312 -0.031,-0.32812 0,-0.125 0.062,-0.20313 0.078,-0.0937 0.2344,-0.14062 0.1719,-0.0625 0.4531,-0.0781 0.2969,-0.0312 0.7344,-0.0312 0.4687,0 0.75,0.0312 0.2969,0.0156 0.4531,0.0781 0.1719,0.0625 0.2344,0.17187 0.078,0.0937 0.1094,0.23438 l 2.0781,7.67187 0.016,0.14063 0.031,-0.14063 1.9375,-7.67187 q 0.031,-0.14063 0.1093,-0.23438 0.078,-0.10937 0.2344,-0.17187 0.1563,-0.0625 0.4219,-0.0781 0.2812,-0.0312 0.7187,-0.0312 0.4219,0 0.6875,0.0312 0.2813,0.0312 0.4375,0.0937 0.1563,0.0469 0.2188,0.14063 0.062,0.0781 0.1094,0.20312 l 2.0781,7.73438 0.031,0.125 0.031,-0.14063 1.9844,-7.67187 q 0.031,-0.14063 0.094,-0.23438 0.078,-0.10937 0.2344,-0.17187 0.1719,-0.0625 0.4531,-0.0781 0.2813,-0.0312 0.7188,-0.0312 0.4218,0 0.7031,0.0312 0.2812,0.0156 0.4375,0.0781 0.1562,0.0469 0.2031,0.14062 0.062,0.0781 0.062,0.20313 z m 10.8047,10.51562 q 0,0.15625 -0.125,0.25 -0.1094,0.0937 -0.375,0.14063 -0.25,0.0469 -0.7344,0.0469 -0.5312,0 -0.7812,-0.0469 -0.2344,-0.0469 -0.3282,-0.14063 -0.094,-0.0937 -0.094,-0.25 v -0.84375 q -0.6563,0.70313 -1.4844,1.09375 -0.8125,0.375 -1.8281,0.375 -0.8281,0 -1.5313,-0.21875 -0.6875,-0.21875 -1.2031,-0.64062 -0.5156,-0.42188 -0.7969,-1.04688 -0.2812,-0.64062 -0.2812,-1.48437 0,-0.92188 0.3594,-1.59375 0.3593,-0.67188 1.0625,-1.10938 0.7187,-0.4375 1.7656,-0.64062 1.0625,-0.21875 2.4531,-0.21875 h 1.0156 v -0.64063 q 0,-0.48437 -0.094,-0.85937 -0.094,-0.375 -0.3281,-0.60938 -0.2344,-0.25 -0.6094,-0.35937 -0.375,-0.125 -0.9375,-0.125 -0.75,0 -1.3281,0.17187 -0.5782,0.15625 -1.0313,0.35938 -0.4375,0.1875 -0.7344,0.35937 -0.2968,0.15625 -0.4843,0.15625 -0.125,0 -0.2344,-0.0781 -0.094,-0.0781 -0.1563,-0.23438 -0.062,-0.15625 -0.1093,-0.375 -0.031,-0.21875 -0.031,-0.48437 0,-0.375 0.062,-0.57813 0.062,-0.21875 0.2188,-0.375 0.1718,-0.17187 0.5781,-0.375 0.4062,-0.21875 0.9531,-0.39062 0.5625,-0.17188 1.2031,-0.28125 0.6563,-0.10938 1.3438,-0.10938 1.2344,0 2.1094,0.23438 0.875,0.23437 1.4375,0.73437 0.5625,0.5 0.8125,1.29688 0.2656,0.78125 0.2656,1.85937 z m -2.9063,-4.48437 h -1.125 q -0.7031,0 -1.2187,0.10937 -0.5,0.10938 -0.8125,0.32813 -0.3125,0.20312 -0.4688,0.5 -0.1406,0.29687 -0.1406,0.6875 0,0.65625 0.4063,1.03125 0.4218,0.375 1.1562,0.375 0.625,0 1.1406,-0.3125 0.5313,-0.32813 1.0625,-0.9375 z m 12.5508,-5.03125 q 0,0.42187 -0.031,0.6875 -0.016,0.26562 -0.062,0.42187 -0.047,0.15625 -0.125,0.21875 -0.062,0.0469 -0.1875,0.0469 -0.094,0 -0.2188,-0.0312 -0.1093,-0.0469 -0.2656,-0.0937 -0.1406,-0.0469 -0.3125,-0.0781 -0.1719,-0.0469 -0.3906,-0.0469 -0.2344,0 -0.4844,0.0937 -0.25,0.0937 -0.5156,0.3125 -0.2656,0.20312 -0.5469,0.5625 -0.2812,0.34375 -0.6094,0.85937 v 6.51563 q 0,0.125 -0.078,0.21875 -0.062,0.0781 -0.2344,0.14062 -0.1718,0.0625 -0.4531,0.0937 -0.2812,0.0312 -0.7187,0.0312 -0.4375,0 -0.7188,-0.0312 -0.2812,-0.0312 -0.4531,-0.0937 -0.1563,-0.0625 -0.2344,-0.14062 -0.062,-0.0937 -0.062,-0.21875 v -10.45313 q 0,-0.10937 0.047,-0.1875 0.062,-0.0937 0.2187,-0.15625 0.1563,-0.0625 0.3907,-0.0937 0.2343,-0.0312 0.6093,-0.0312 0.375,0 0.6094,0.0312 0.25,0.0312 0.375,0.0937 0.1406,0.0625 0.2031,0.15625 0.062,0.0781 0.062,0.1875 v 1.3125 q 0.4063,-0.59375 0.7657,-0.96875 0.375,-0.39062 0.7031,-0.60937 0.3281,-0.21875 0.6562,-0.29688 0.3282,-0.0937 0.6563,-0.0937 0.1406,0 0.3125,0.0156 0.1875,0.0156 0.375,0.0625 0.1875,0.0312 0.3281,0.0937 0.1406,0.0469 0.2031,0.10937 0.062,0.0469 0.094,0.125 0.031,0.0625 0.047,0.1875 0.031,0.125 0.031,0.375 0.016,0.25 0.016,0.67188 z m 11.4844,3.9375 q 0,0.54687 -0.25,0.8125 -0.2344,0.25 -0.6562,0.25 h -6.3594 q 0,0.67187 0.1562,1.21875 0.1563,0.53125 0.5,0.92187 0.3438,0.375 0.8907,0.57813 0.5468,0.20312 1.3125,0.20312 0.7656,0 1.3437,-0.10937 0.5938,-0.125 1.0156,-0.25 0.4375,-0.14063 0.7188,-0.25 0.2812,-0.10938 0.4531,-0.10938 0.1094,0 0.1719,0.0469 0.078,0.0312 0.125,0.14062 0.047,0.10938 0.062,0.29688 0.016,0.1875 0.016,0.48437 0,0.26563 -0.016,0.45313 0,0.17187 -0.031,0.29687 -0.016,0.125 -0.062,0.21875 -0.047,0.0937 -0.125,0.17188 -0.078,0.0781 -0.4218,0.21875 -0.3438,0.14062 -0.875,0.28125 -0.5157,0.14062 -1.2032,0.23437 -0.6718,0.0937 -1.4531,0.0937 -1.3906,0 -2.4375,-0.34375 -1.0469,-0.35937 -1.75,-1.0625 -0.7031,-0.71875 -1.0469,-1.8125 -0.3437,-1.09375 -0.3437,-2.5625 0,-1.39062 0.3594,-2.5 0.3593,-1.125 1.0468,-1.90625 0.7032,-0.78125 1.6875,-1.1875 0.9844,-0.40625 2.2344,-0.40625 1.3125,0 2.2344,0.39063 0.9375,0.375 1.5312,1.0625 0.6094,0.6875 0.8907,1.625 0.2812,0.9375 0.2812,2.03125 z m -2.8594,-0.84375 q 0.031,-1.23438 -0.5,-1.9375 -0.5312,-0.71875 -1.6562,-0.71875 -0.5625,0 -0.9844,0.21875 -0.4062,0.20312 -0.6875,0.5625 -0.2656,0.35937 -0.4219,0.84375 -0.1406,0.48437 -0.1562,1.03125 z"
     fill-rule="nonzero"
     id="path33"
     style="display:inline" />
  <path
     fill="#3d85c6"
     d="m 0,249.33857 h 473.51444 v 62.20471 H 0 Z"
     fill-rule="evenodd"
     id="path35"
     style="display:inline;stroke-width:0.996167" />
  <path
     fill="#000000"
     d="m 165.0397,281.21532 q 0,1.89062 -0.4688,3.39062 -0.4687,1.48438 -1.4062,2.51563 -0.9219,1.03125 -2.2813,1.57812 -1.3593,0.54688 -3.1562,0.54688 -1.7656,0 -3.0938,-0.45313 -1.3125,-0.46875 -2.2031,-1.42187 -0.875,-0.95313 -1.3125,-2.40625 -0.4375,-1.46875 -0.4375,-3.46875 0,-1.84375 0.4688,-3.3125 0.4687,-1.46875 1.3906,-2.5 0.9375,-1.03125 2.2969,-1.57813 1.3593,-0.5625 3.1718,-0.5625 1.7188,0 3.0313,0.46875 1.3281,0.45313 2.2031,1.40625 0.8906,0.9375 1.3438,2.39063 0.4531,1.4375 0.4531,3.40625 z m -3.2344,0.17187 q 0,-1.20312 -0.1875,-2.17187 -0.1875,-0.98438 -0.6406,-1.67188 -0.4531,-0.70312 -1.2031,-1.07812 -0.75,-0.39063 -1.875,-0.39063 -1.1407,0 -1.9063,0.4375 -0.75,0.42188 -1.2187,1.14063 -0.4688,0.70312 -0.6719,1.67187 -0.1875,0.95313 -0.1875,2.01563 0,1.23437 0.1875,2.23437 0.1875,0.98438 0.625,1.6875 0.4531,0.70313 1.2031,1.07813 0.75,0.35937 1.8906,0.35937 1.1407,0 1.8907,-0.42187 0.7656,-0.42188 1.2343,-1.14063 0.4688,-0.73437 0.6563,-1.6875 0.2031,-0.96875 0.2031,-2.0625 z m 16.168,1.8125 q 0,1.39063 -0.2969,2.51563 -0.2969,1.125 -0.875,1.90625 -0.5781,0.78125 -1.4375,1.20312 -0.8437,0.42188 -1.9531,0.42188 -0.4531,0 -0.8438,-0.0937 -0.375,-0.0781 -0.7343,-0.25 -0.3438,-0.1875 -0.7032,-0.45313 -0.3437,-0.28125 -0.7187,-0.64062 v 4.92187 q 0,0.125 -0.078,0.21875 -0.062,0.0937 -0.2344,0.15625 -0.1719,0.0625 -0.4531,0.0937 -0.2813,0.0312 -0.7188,0.0312 -0.4375,0 -0.7187,-0.0312 -0.2813,-0.0312 -0.4532,-0.0937 -0.1562,-0.0625 -0.2343,-0.15625 -0.062,-0.0937 -0.062,-0.21875 v -14.60942 q 0,-0.10938 0.047,-0.1875 0.062,-0.0937 0.2032,-0.15625 0.1562,-0.0625 0.3906,-0.0937 0.25,-0.0312 0.6094,-0.0312 0.3437,0 0.5781,0.0312 0.25,0.0312 0.3906,0.0937 0.1563,0.0625 0.2031,0.15625 0.062,0.0781 0.062,0.1875 v 1.23437 q 0.4688,-0.46875 0.9063,-0.82812 0.4375,-0.35938 0.8906,-0.59375 0.4531,-0.23438 0.9375,-0.34375 0.5,-0.125 1.0469,-0.125 1.1406,0 1.9531,0.45312 0.8125,0.4375 1.3125,1.23438 0.5156,0.78125 0.75,1.82812 0.2344,1.03125 0.2344,2.21875 z m -3.0625,0.21875 q 0,-0.67187 -0.1094,-1.28125 -0.094,-0.625 -0.3437,-1.09375 -0.2344,-0.48437 -0.625,-0.76562 -0.3907,-0.29688 -0.9844,-0.29688 -0.2813,0 -0.5781,0.0937 -0.2813,0.0781 -0.5782,0.28125 -0.2968,0.20313 -0.625,0.51563 -0.3125,0.3125 -0.6562,0.78125 v 3.45312 q 0.6094,0.78125 1.1719,1.21875 0.5625,0.42188 1.1718,0.42188 0.5782,0 0.9844,-0.29688 0.4063,-0.29687 0.6563,-0.76562 0.2656,-0.48438 0.3906,-1.07813 0.125,-0.59375 0.125,-1.1875 z m 15.082,-0.375 q 0,0.54688 -0.25,0.8125 -0.2344,0.25 -0.6562,0.25 h -6.3594 q 0,0.67188 0.1562,1.21875 0.1563,0.53125 0.5,0.92188 0.3438,0.375 0.8907,0.57812 0.5468,0.20313 1.3125,0.20313 0.7656,0 1.3437,-0.10938 0.5938,-0.125 1.0156,-0.25 0.4375,-0.14062 0.7188,-0.25 0.2812,-0.10937 0.4531,-0.10937 0.1094,0 0.1719,0.0469 0.078,0.0312 0.125,0.14063 0.047,0.10937 0.062,0.29687 0.016,0.1875 0.016,0.48438 0,0.26562 -0.016,0.45312 0,0.17188 -0.031,0.29688 -0.016,0.125 -0.062,0.21875 -0.047,0.0937 -0.125,0.17187 -0.078,0.0781 -0.4218,0.21875 -0.3438,0.14063 -0.875,0.28125 -0.5157,0.14063 -1.2032,0.23438 -0.6718,0.0937 -1.4531,0.0937 -1.3906,0 -2.4375,-0.34375 -1.0469,-0.35938 -1.75,-1.0625 -0.7031,-0.71875 -1.0469,-1.8125 -0.3437,-1.09375 -0.3437,-2.5625 0,-1.39063 0.3594,-2.5 0.3593,-1.125 1.0468,-1.90625 0.7032,-0.78125 1.6875,-1.1875 0.9844,-0.40625 2.2344,-0.40625 1.3125,0 2.2344,0.39062 0.9375,0.375 1.5312,1.0625 0.6094,0.6875 0.8907,1.625 0.2812,0.9375 0.2812,2.03125 z m -2.8594,-0.84375 q 0.031,-1.23437 -0.5,-1.9375 -0.5312,-0.71875 -1.6562,-0.71875 -0.5625,0 -0.9844,0.21875 -0.4062,0.20313 -0.6875,0.5625 -0.2656,0.35938 -0.4219,0.84375 -0.1406,0.48438 -0.1562,1.03125 z m 11.9883,-3.09375 q 0,0.42188 -0.031,0.6875 -0.016,0.26563 -0.062,0.42188 -0.047,0.15625 -0.125,0.21875 -0.062,0.0469 -0.1875,0.0469 -0.094,0 -0.2188,-0.0312 -0.1093,-0.0469 -0.2656,-0.0937 -0.1406,-0.0469 -0.3125,-0.0781 -0.1719,-0.0469 -0.3906,-0.0469 -0.2344,0 -0.4844,0.0937 -0.25,0.0937 -0.5156,0.3125 -0.2656,0.20313 -0.5469,0.5625 -0.2812,0.34375 -0.6094,0.85938 v 6.51562 q 0,0.125 -0.078,0.21875 -0.062,0.0781 -0.2344,0.14063 -0.1718,0.0625 -0.4531,0.0937 -0.2812,0.0312 -0.7187,0.0312 -0.4375,0 -0.7188,-0.0312 -0.2812,-0.0312 -0.4531,-0.0937 -0.1563,-0.0625 -0.2344,-0.14063 -0.062,-0.0937 -0.062,-0.21875 v -10.4532 q 0,-0.10938 0.047,-0.1875 0.062,-0.0937 0.2187,-0.15625 0.1563,-0.0625 0.3907,-0.0937 0.2343,-0.0312 0.6093,-0.0312 0.375,0 0.6094,0.0312 0.25,0.0312 0.375,0.0937 0.1406,0.0625 0.2031,0.15625 0.062,0.0781 0.062,0.1875 v 1.3125 q 0.4063,-0.59375 0.7657,-0.96875 0.375,-0.39063 0.7031,-0.60938 0.3281,-0.21875 0.6562,-0.29687 0.3282,-0.0937 0.6563,-0.0937 0.1406,0 0.3125,0.0156 0.1875,0.0156 0.375,0.0625 0.1875,0.0312 0.3281,0.0937 0.1406,0.0469 0.2031,0.10938 0.062,0.0469 0.094,0.125 0.031,0.0625 0.047,0.1875 0.031,0.125 0.031,0.375 0.016,0.25 0.016,0.67187 z m 10.7344,9.51563 q 0,0.15625 -0.125,0.25 -0.1094,0.0937 -0.375,0.14062 -0.25,0.0469 -0.7344,0.0469 -0.5312,0 -0.7812,-0.0469 -0.2344,-0.0469 -0.3281,-0.14062 -0.094,-0.0937 -0.094,-0.25 v -0.84375 q -0.6562,0.70312 -1.4844,1.09375 -0.8125,0.375 -1.8281,0.375 -0.8281,0 -1.5312,-0.21875 -0.6875,-0.21875 -1.2032,-0.64063 -0.5156,-0.42187 -0.7968,-1.04687 -0.2813,-0.64063 -0.2813,-1.48438 0,-0.92187 0.3594,-1.59375 0.3594,-0.67187 1.0625,-1.10937 0.7187,-0.4375 1.7656,-0.64063 1.0625,-0.21875 2.4531,-0.21875 h 1.0157 v -0.64062 q 0,-0.48438 -0.094,-0.85938 -0.094,-0.375 -0.3281,-0.60937 -0.2344,-0.25 -0.6094,-0.35938 -0.375,-0.125 -0.9375,-0.125 -0.75,0 -1.3281,0.17188 -0.5781,0.15625 -1.0313,0.35937 -0.4375,0.1875 -0.7343,0.35938 -0.2969,0.15625 -0.4844,0.15625 -0.125,0 -0.2344,-0.0781 -0.094,-0.0781 -0.1562,-0.23437 -0.062,-0.15625 -0.1094,-0.375 -0.031,-0.21875 -0.031,-0.48438 0,-0.375 0.062,-0.57812 0.062,-0.21875 0.2188,-0.375 0.1719,-0.17188 0.5781,-0.375 0.4063,-0.21875 0.9531,-0.39063 0.5625,-0.17187 1.2032,-0.28125 0.6562,-0.10937 1.3437,-0.10937 1.2344,0 2.1094,0.23437 0.875,0.23438 1.4375,0.73438 0.5625,0.5 0.8125,1.29687 0.2656,0.78125 0.2656,1.85938 z m -2.9062,-4.48438 h -1.125 q -0.7032,0 -1.2188,0.10938 -0.5,0.10937 -0.8125,0.32812 -0.3125,0.20313 -0.4687,0.5 -0.1407,0.29688 -0.1407,0.6875 0,0.65625 0.4063,1.03125 0.4219,0.375 1.1562,0.375 0.625,0 1.1407,-0.3125 0.5312,-0.32812 1.0625,-0.9375 z m 12.0351,3.40625 q 0,0.51563 -0.078,0.79688 -0.062,0.28125 -0.1719,0.39062 -0.094,0.10938 -0.2969,0.20313 -0.2031,0.0781 -0.4843,0.14062 -0.2813,0.0781 -0.6094,0.10938 -0.3125,0.0312 -0.6406,0.0312 -0.875,0 -1.5313,-0.23438 -0.6406,-0.21875 -1.0625,-0.67187 -0.4219,-0.46875 -0.625,-1.17188 -0.1875,-0.70312 -0.1875,-1.65625 v -5.35937 h -1.25 q -0.2344,0 -0.3594,-0.26563 -0.1093,-0.28125 -0.1093,-0.9375 0,-0.32812 0.031,-0.5625 0.031,-0.23437 0.094,-0.375 0.062,-0.14062 0.1406,-0.1875 0.094,-0.0625 0.2031,-0.0625 h 1.25 v -2.32812 q 0,-0.125 0.062,-0.21875 0.062,-0.0937 0.2344,-0.15625 0.1719,-0.0625 0.4531,-0.0937 0.2969,-0.0312 0.7188,-0.0312 0.4218,0 0.7031,0.0312 0.2969,0.0312 0.4531,0.0937 0.1719,0.0625 0.2344,0.15625 0.078,0.0937 0.078,0.21875 v 2.32812 h 2.2813 q 0.1093,0 0.1875,0.0625 0.094,0.0469 0.1562,0.1875 0.062,0.14063 0.094,0.375 0.031,0.23438 0.031,0.5625 0,0.65625 -0.125,0.9375 -0.1094,0.26563 -0.3437,0.26563 h -2.2813 v 4.90625 q 0,0.85937 0.2656,1.29687 0.2813,0.42188 0.9688,0.42188 0.2344,0 0.4219,-0.0469 0.1875,-0.0469 0.3281,-0.0937 0.1562,-0.0469 0.25,-0.0937 0.094,-0.0469 0.1875,-0.0469 0.062,0 0.125,0.0469 0.062,0.0469 0.094,0.17188 0.047,0.10937 0.078,0.32812 0.031,0.20313 0.031,0.53125 z m 5.0859,1.03125 q 0,0.125 -0.078,0.21875 -0.062,0.0781 -0.2344,0.14063 -0.1718,0.0625 -0.4531,0.0937 -0.2812,0.0312 -0.7187,0.0312 -0.4375,0 -0.7188,-0.0312 -0.2812,-0.0312 -0.4531,-0.0937 -0.1563,-0.0625 -0.2344,-0.14063 -0.062,-0.0937 -0.062,-0.21875 v -10.42187 q 0,-0.125 0.062,-0.20313 0.078,-0.0937 0.2344,-0.15625 0.1719,-0.0625 0.4531,-0.0937 0.2813,-0.0469 0.7188,-0.0469 0.4375,0 0.7187,0.0469 0.2813,0.0312 0.4531,0.0937 0.1719,0.0625 0.2344,0.15625 0.078,0.0781 0.078,0.20313 z m 0.2188,-13.98437 q 0,0.89062 -0.375,1.23437 -0.3594,0.32813 -1.3438,0.32813 -0.9843,0 -1.3437,-0.32813 -0.3438,-0.32812 -0.3438,-1.17187 0,-0.89063 0.3594,-1.23438 0.3594,-0.35937 1.3594,-0.35937 0.9844,0 1.3281,0.34375 0.3594,0.32812 0.3594,1.1875 z m 12.707,13.98437 q 0,0.125 -0.078,0.21875 -0.062,0.0781 -0.2344,0.14063 -0.1562,0.0625 -0.4531,0.0937 -0.2812,0.0312 -0.7031,0.0312 -0.4375,0 -0.7344,-0.0312 -0.2812,-0.0312 -0.4531,-0.0937 -0.1563,-0.0625 -0.2344,-0.14063 -0.062,-0.0937 -0.062,-0.21875 v -5.95312 q 0,-0.76563 -0.1094,-1.20313 -0.1093,-0.4375 -0.3281,-0.73437 -0.2031,-0.3125 -0.5469,-0.48438 -0.3281,-0.17187 -0.7656,-0.17187 -0.5625,0 -1.1406,0.40625 -0.5781,0.40625 -1.1875,1.20312 v 6.9375 q 0,0.125 -0.078,0.21875 -0.062,0.0781 -0.2344,0.14063 -0.1719,0.0625 -0.4531,0.0937 -0.2813,0.0312 -0.7188,0.0312 -0.4375,0 -0.7187,-0.0312 -0.2813,-0.0312 -0.4532,-0.0937 -0.1562,-0.0625 -0.2343,-0.14063 -0.062,-0.0937 -0.062,-0.21875 v -10.45312 q 0,-0.10938 0.047,-0.1875 0.062,-0.0937 0.2188,-0.15625 0.1562,-0.0625 0.3906,-0.0937 0.2344,-0.0312 0.6094,-0.0312 0.375,0 0.6094,0.0312 0.25,0.0312 0.375,0.0937 0.1406,0.0625 0.2031,0.15625 0.062,0.0781 0.062,0.1875 v 1.21875 q 0.8594,-0.9375 1.75,-1.40625 0.9062,-0.46875 1.875,-0.46875 1.0781,0 1.7969,0.35937 0.7343,0.34375 1.1875,0.95313 0.4531,0.59375 0.6562,1.40625 0.2031,0.79687 0.2031,1.9375 z m 12.3164,-9.71875 q 0,0.5625 -0.1406,0.82813 -0.125,0.26562 -0.3125,0.26562 h -1.2344 q 0.2657,0.28125 0.375,0.64063 0.1094,0.35937 0.1094,0.75 0,0.90625 -0.3125,1.625 -0.2969,0.70312 -0.875,1.1875 -0.5625,0.48437 -1.3594,0.75 -0.7968,0.25 -1.7812,0.25 -0.5156,0 -0.9688,-0.125 -0.4531,-0.125 -0.7031,-0.29688 -0.1406,0.15625 -0.25,0.375 -0.1094,0.20313 -0.1094,0.46875 0,0.32813 0.2969,0.54688 0.2969,0.21875 0.8438,0.25 l 2.5312,0.0937 q 0.8906,0.0312 1.5938,0.25 0.7031,0.21875 1.1718,0.60937 0.4688,0.39063 0.7188,0.9375 0.2656,0.54688 0.2656,1.26563 0,0.76562 -0.3437,1.45312 -0.3438,0.6875 -1.0313,1.1875 -0.6719,0.5 -1.7031,0.79688 -1.0156,0.29687 -2.3906,0.29687 -1.3282,0 -2.2813,-0.21875 -0.9375,-0.20312 -1.5469,-0.57812 -0.5937,-0.375 -0.875,-0.90625 -0.2812,-0.51563 -0.2812,-1.14063 0,-0.375 0.094,-0.73437 0.1094,-0.34375 0.2969,-0.67188 0.2031,-0.32812 0.4844,-0.60937 0.2812,-0.29688 0.6406,-0.57813 -0.5,-0.26562 -0.7812,-0.71875 -0.2657,-0.46875 -0.2657,-1.01562 0,-0.70313 0.3125,-1.26563 0.3125,-0.5625 0.8125,-1.03125 -0.4062,-0.40625 -0.6562,-0.96875 -0.2344,-0.57812 -0.2344,-1.4375 0,-0.92187 0.3125,-1.64062 0.3281,-0.71875 0.8906,-1.21875 0.5782,-0.5 1.375,-0.75 0.7969,-0.26563 1.7657,-0.26563 0.4843,0 0.9375,0.0625 0.4531,0.0469 0.8437,0.15625 h 3.3125 q 0.2031,0 0.3281,0.26563 0.125,0.25 0.125,0.85937 z m -3.7968,2.46875 q 0,-0.84375 -0.4688,-1.3125 -0.4687,-0.46875 -1.3125,-0.46875 -0.4375,0 -0.7656,0.15625 -0.3281,0.14063 -0.5469,0.39063 -0.2187,0.25 -0.3281,0.59375 -0.094,0.32812 -0.094,0.6875 0,0.79687 0.4688,1.26562 0.4687,0.45313 1.2969,0.45313 0.4375,0 0.7656,-0.14063 0.3281,-0.14062 0.5469,-0.375 0.2187,-0.25 0.3281,-0.5625 0.1094,-0.32812 0.1094,-0.6875 z m 0.7031,8.34375 q 0,-0.51562 -0.4219,-0.79687 -0.4219,-0.29688 -1.1719,-0.3125 l -2.0937,-0.0625 q -0.2969,0.21875 -0.4844,0.4375 -0.1875,0.20312 -0.2969,0.39062 -0.1093,0.1875 -0.1406,0.35938 -0.031,0.17187 -0.031,0.35937 0,0.59375 0.5781,0.89063 0.5937,0.3125 1.6719,0.3125 0.6718,0 1.125,-0.14063 0.4687,-0.125 0.75,-0.35937 0.2812,-0.21875 0.3906,-0.5 0.125,-0.26563 0.125,-0.57813 z m 19.6328,-5.23437 q 0,1.1875 -0.4531,2.09375 -0.4375,0.90625 -1.2032,1.51562 -0.75,0.59375 -1.7812,0.90625 -1.0156,0.29688 -2.1719,0.29688 -0.7812,0 -1.4687,-0.125 -0.6719,-0.125 -1.1875,-0.3125 -0.5157,-0.1875 -0.8594,-0.375 -0.3438,-0.20313 -0.5,-0.35938 -0.1406,-0.15625 -0.2188,-0.4375 -0.062,-0.28125 -0.062,-0.82812 0,-0.35938 0.016,-0.60938 0.031,-0.25 0.078,-0.39062 0.062,-0.15625 0.1406,-0.21875 0.094,-0.0625 0.2188,-0.0625 0.1562,0 0.4531,0.1875 0.3125,0.1875 0.7812,0.42187 0.4688,0.23438 1.1094,0.4375 0.6563,0.1875 1.5156,0.1875 0.5625,0 1,-0.125 0.4532,-0.14062 0.75,-0.39062 0.3125,-0.25 0.4688,-0.60938 0.1719,-0.35937 0.1719,-0.8125 0,-0.51562 -0.2813,-0.875 -0.2812,-0.375 -0.7344,-0.65625 -0.4375,-0.29687 -1.0156,-0.54687 -0.5781,-0.25 -1.1875,-0.53125 -0.6094,-0.28125 -1.1875,-0.64063 -0.5625,-0.35937 -1.0156,-0.84375 -0.4531,-0.5 -0.7344,-1.17187 -0.2812,-0.6875 -0.2812,-1.64063 0,-1.09375 0.4062,-1.92187 0.4063,-0.82813 1.0781,-1.35938 0.6875,-0.54687 1.625,-0.8125 0.9375,-0.28125 1.9688,-0.28125 0.5469,0 1.0781,0.0937 0.5469,0.0781 1.0156,0.21875 0.4688,0.14063 0.8282,0.3125 0.3593,0.17188 0.4687,0.29688 0.125,0.10937 0.1719,0.20312 0.047,0.0781 0.062,0.21875 0.031,0.125 0.047,0.32813 0.016,0.20312 0.016,0.51562 0,0.32813 -0.016,0.5625 -0.016,0.23438 -0.062,0.39063 -0.047,0.15625 -0.125,0.23437 -0.062,0.0625 -0.2032,0.0625 -0.125,0 -0.4062,-0.15625 -0.2813,-0.17187 -0.6875,-0.35937 -0.4063,-0.20313 -0.9531,-0.35938 -0.5313,-0.15625 -1.1875,-0.15625 -0.5,0 -0.875,0.125 -0.375,0.125 -0.625,0.34375 -0.25,0.20313 -0.375,0.51563 -0.125,0.29687 -0.125,0.64062 0,0.5 0.2656,0.875 0.2812,0.375 0.75,0.65625 0.4687,0.28125 1.0469,0.54688 0.5937,0.25 1.2031,0.53125 0.6094,0.28125 1.1875,0.64062 0.5937,0.34375 1.0469,0.84375 0.4531,0.5 0.7343,1.17188 0.2813,0.67187 0.2813,1.59375 z m 8.2344,4.54687 -1.2657,3.70313 q -0.094,0.29687 -0.5625,0.42187 -0.4687,0.125 -1.375,0.125 -0.4687,0 -0.75,-0.0469 -0.2812,-0.0312 -0.4218,-0.125 -0.1407,-0.0937 -0.1563,-0.23438 -0.016,-0.14062 0.078,-0.34375 l 1.3907,-3.5 q -0.1563,-0.0781 -0.2813,-0.21875 -0.125,-0.14062 -0.1719,-0.3125 l -3.6093,-9.60937 q -0.1407,-0.40625 -0.1407,-0.625 0,-0.21875 0.1407,-0.34375 0.1406,-0.125 0.4687,-0.17188 0.3281,-0.0469 0.8906,-0.0469 0.5,0 0.7813,0.0312 0.2969,0.0156 0.4531,0.0937 0.1719,0.0625 0.25,0.20312 0.094,0.14063 0.1719,0.42188 l 2.4687,6.98437 h 0.031 l 2.25,-7.125 q 0.062,-0.3125 0.1719,-0.40625 0.125,-0.10937 0.375,-0.15625 0.2656,-0.0469 0.9062,-0.0469 0.5,0 0.8281,0.0469 0.3438,0.0469 0.5,0.1875 0.1563,0.125 0.1563,0.34375 0,0.21875 -0.094,0.5 z m 12.6797,-3.35937 q 0,0.89062 -0.3438,1.57812 -0.3281,0.67188 -0.9375,1.14063 -0.6094,0.45312 -1.4531,0.67187 -0.8281,0.23438 -1.7969,0.23438 -0.5781,0 -1.125,-0.0937 -0.5312,-0.0781 -0.9531,-0.20313 -0.4219,-0.14062 -0.7031,-0.28125 -0.2813,-0.14062 -0.4063,-0.26562 -0.125,-0.125 -0.2031,-0.39063 -0.062,-0.26562 -0.062,-0.78125 0,-0.34375 0.016,-0.54687 0.031,-0.20313 0.078,-0.32813 0.047,-0.125 0.1094,-0.15625 0.078,-0.0469 0.1875,-0.0469 0.125,0 0.375,0.15625 0.25,0.14062 0.625,0.3125 0.375,0.17187 0.875,0.32812 0.5,0.15625 1.125,0.15625 0.4063,0 0.7188,-0.0781 0.3125,-0.0937 0.5312,-0.23438 0.2344,-0.15625 0.3438,-0.39062 0.125,-0.23438 0.125,-0.54688 0,-0.34375 -0.2188,-0.59375 -0.2187,-0.25 -0.5781,-0.4375 -0.3594,-0.1875 -0.8125,-0.34375 -0.4375,-0.17187 -0.9219,-0.375 -0.4687,-0.20312 -0.9219,-0.45312 -0.4531,-0.26563 -0.8125,-0.64063 -0.3593,-0.375 -0.5781,-0.89062 -0.2031,-0.53125 -0.2031,-1.28125 0,-0.75 0.2812,-1.375 0.2969,-0.625 0.8438,-1.0625 0.5625,-0.45313 1.3437,-0.6875 0.7969,-0.25 1.7813,-0.25 0.4844,0 0.9531,0.0781 0.4688,0.0625 0.8438,0.17188 0.375,0.0937 0.625,0.21875 0.2656,0.125 0.375,0.21875 0.1093,0.0781 0.1562,0.17187 0.047,0.0781 0.062,0.20313 0.031,0.125 0.047,0.3125 0.016,0.17187 0.016,0.45312 0,0.3125 -0.016,0.51563 -0.016,0.1875 -0.062,0.3125 -0.031,0.10937 -0.1094,0.15625 -0.062,0.0469 -0.1562,0.0469 -0.1094,0 -0.3438,-0.125 -0.2187,-0.125 -0.5469,-0.26562 -0.3281,-0.14063 -0.7812,-0.26563 -0.4375,-0.125 -1,-0.125 -0.3906,0 -0.6875,0.0937 -0.2969,0.0781 -0.4844,0.23438 -0.1875,0.14062 -0.2812,0.34375 -0.094,0.20312 -0.094,0.4375 0,0.375 0.2188,0.625 0.2343,0.23437 0.5937,0.42187 0.3594,0.1875 0.8281,0.35938 0.4688,0.15625 0.9375,0.35937 0.4688,0.1875 0.9375,0.45313 0.4688,0.25 0.8282,0.625 0.3593,0.375 0.5781,0.90625 0.2344,0.51562 0.2344,1.21875 z m 8.4023,1.92187 q 0,0.51563 -0.078,0.79688 -0.062,0.28125 -0.1719,0.39062 -0.094,0.10938 -0.2969,0.20313 -0.2031,0.0781 -0.4843,0.14062 -0.2813,0.0781 -0.6094,0.10938 -0.3125,0.0312 -0.6406,0.0312 -0.875,0 -1.5313,-0.23438 -0.6406,-0.21875 -1.0625,-0.67187 -0.4219,-0.46875 -0.625,-1.17188 -0.1875,-0.70312 -0.1875,-1.65625 v -5.35937 h -1.25 q -0.2344,0 -0.3594,-0.26563 -0.1093,-0.28125 -0.1093,-0.9375 0,-0.32812 0.031,-0.5625 0.031,-0.23437 0.094,-0.375 0.062,-0.14062 0.1406,-0.1875 0.094,-0.0625 0.2031,-0.0625 h 1.25 v -2.32812 q 0,-0.125 0.062,-0.21875 0.062,-0.0937 0.2344,-0.15625 0.1719,-0.0625 0.4531,-0.0937 0.2969,-0.0312 0.7188,-0.0312 0.4218,0 0.7031,0.0312 0.2969,0.0312 0.4531,0.0937 0.1719,0.0625 0.2344,0.15625 0.078,0.0937 0.078,0.21875 v 2.32812 h 2.2813 q 0.1093,0 0.1875,0.0625 0.094,0.0469 0.1562,0.1875 0.062,0.14063 0.094,0.375 0.031,0.23438 0.031,0.5625 0,0.65625 -0.125,0.9375 -0.1094,0.26563 -0.3437,0.26563 h -2.2813 v 4.90625 q 0,0.85937 0.2656,1.29687 0.2813,0.42188 0.9688,0.42188 0.2344,0 0.4219,-0.0469 0.1875,-0.0469 0.3281,-0.0937 0.1562,-0.0469 0.25,-0.0937 0.094,-0.0469 0.1875,-0.0469 0.062,0 0.125,0.0469 0.062,0.0469 0.094,0.17188 0.047,0.10937 0.078,0.32812 0.031,0.20313 0.031,0.53125 z m 11.7891,-4.5 q 0,0.54688 -0.25,0.8125 -0.2344,0.25 -0.6563,0.25 h -6.3594 q 0,0.67188 0.1563,1.21875 0.1562,0.53125 0.5,0.92188 0.3437,0.375 0.8906,0.57812 0.5469,0.20313 1.3125,0.20313 0.7656,0 1.3438,-0.10938 0.5937,-0.125 1.0156,-0.25 0.4375,-0.14062 0.7187,-0.25 0.2813,-0.10937 0.4532,-0.10937 0.1093,0 0.1718,0.0469 0.078,0.0312 0.125,0.14063 0.047,0.10937 0.062,0.29687 0.016,0.1875 0.016,0.48438 0,0.26562 -0.016,0.45312 0,0.17188 -0.031,0.29688 -0.016,0.125 -0.062,0.21875 -0.047,0.0937 -0.125,0.17187 -0.078,0.0781 -0.4219,0.21875 -0.3437,0.14063 -0.875,0.28125 -0.5156,0.14063 -1.2031,0.23438 -0.6719,0.0937 -1.4531,0.0937 -1.3907,0 -2.4375,-0.34375 -1.0469,-0.35938 -1.75,-1.0625 -0.7032,-0.71875 -1.0469,-1.8125 -0.3438,-1.09375 -0.3438,-2.5625 0,-1.39063 0.3594,-2.5 0.3594,-1.125 1.0469,-1.90625 0.7031,-0.78125 1.6875,-1.1875 0.9844,-0.40625 2.2344,-0.40625 1.3125,0 2.2343,0.39062 0.9375,0.375 1.5313,1.0625 0.6094,0.6875 0.8906,1.625 0.2813,0.9375 0.2813,2.03125 z m -2.8594,-0.84375 q 0.031,-1.23437 -0.5,-1.9375 -0.5313,-0.71875 -1.6563,-0.71875 -0.5625,0 -0.9843,0.21875 -0.4063,0.20313 -0.6875,0.5625 -0.2657,0.35938 -0.4219,0.84375 -0.1406,0.48438 -0.1563,1.03125 z m 21.9101,6.375 q 0,0.125 -0.078,0.21875 -0.062,0.0781 -0.2344,0.14063 -0.1562,0.0625 -0.4375,0.0937 -0.2812,0.0312 -0.7187,0.0312 -0.4375,0 -0.7188,-0.0312 -0.2812,-0.0312 -0.4531,-0.0937 -0.1719,-0.0625 -0.2344,-0.14063 -0.062,-0.0937 -0.062,-0.21875 v -6.1875 q 0,-0.53125 -0.1093,-0.96875 -0.094,-0.4375 -0.2969,-0.73437 -0.2031,-0.3125 -0.5156,-0.48438 -0.3125,-0.17187 -0.75,-0.17187 -0.5313,0 -1.0782,0.40625 -0.5312,0.40625 -1.1562,1.20312 v 6.9375 q 0,0.125 -0.078,0.21875 -0.062,0.0781 -0.2344,0.14063 -0.1719,0.0625 -0.4531,0.0937 -0.2813,0.0312 -0.7032,0.0312 -0.4375,0 -0.7187,-0.0312 -0.2813,-0.0312 -0.4531,-0.0937 -0.1563,-0.0625 -0.2344,-0.14063 -0.062,-0.0937 -0.062,-0.21875 v -6.1875 q 0,-0.53125 -0.1094,-0.96875 -0.094,-0.4375 -0.2969,-0.73437 -0.2031,-0.3125 -0.5156,-0.48438 -0.3125,-0.17187 -0.7344,-0.17187 -0.5468,0 -1.0937,0.40625 -0.5313,0.40625 -1.1406,1.20312 v 6.9375 q 0,0.125 -0.078,0.21875 -0.062,0.0781 -0.2343,0.14063 -0.1719,0.0625 -0.4532,0.0937 -0.2812,0.0312 -0.7187,0.0312 -0.4375,0 -0.7188,-0.0312 -0.2812,-0.0312 -0.4531,-0.0937 -0.1562,-0.0625 -0.2344,-0.14063 -0.062,-0.0937 -0.062,-0.21875 v -10.45312 q 0,-0.10938 0.047,-0.1875 0.062,-0.0937 0.2188,-0.15625 0.1562,-0.0625 0.3906,-0.0937 0.2344,-0.0312 0.6094,-0.0312 0.375,0 0.6093,0.0312 0.25,0.0312 0.375,0.0937 0.1407,0.0625 0.2032,0.15625 0.062,0.0781 0.062,0.1875 v 1.21875 q 0.8593,-0.9375 1.7187,-1.40625 0.875,-0.46875 1.8125,-0.46875 0.6406,0 1.1563,0.14062 0.5156,0.125 0.9218,0.375 0.4063,0.25 0.6875,0.60938 0.2969,0.34375 0.5,0.78125 0.4688,-0.5 0.9219,-0.85938 0.4531,-0.375 0.8906,-0.59375 0.4375,-0.23437 0.875,-0.34375 0.4375,-0.10937 0.8907,-0.10937 1.0468,0 1.7656,0.35937 0.7187,0.34375 1.1562,0.95313 0.4375,0.59375 0.625,1.40625 0.1875,0.79687 0.1875,1.70312 z"
     fill-rule="nonzero"
     id="path37"
     style="display:inline" />
  <path
     fill="#3c78d8"
     d="m 0,171.47243 h 473.51444 v 65.38583 H 0 Z"
     fill-rule="evenodd"
     id="path39"
     style="display:inline;stroke-width:0.996167" />
  <path
     fill="#000000"
     d="m 156.446,210.40847 q 0,0.29687 -0.016,0.5 -0.016,0.20312 -0.062,0.35937 -0.031,0.14063 -0.094,0.25 -0.047,0.0937 -0.1875,0.23438 -0.125,0.125 -0.5,0.34375 -0.3593,0.20312 -0.8906,0.40625 -0.5312,0.1875 -1.2187,0.3125 -0.6875,0.14062 -1.4844,0.14062 -1.5625,0 -2.8125,-0.48437 -1.25,-0.48438 -2.1406,-1.4375 -0.875,-0.95313 -1.3438,-2.375 -0.4687,-1.4375 -0.4687,-3.34375 0,-1.92188 0.5156,-3.42188 0.5156,-1.5 1.4375,-2.51562 0.9375,-1.03125 2.2344,-1.54688 1.2968,-0.53125 2.8437,-0.53125 0.6406,0 1.2188,0.10938 0.5937,0.0937 1.0937,0.26562 0.5,0.17188 0.8906,0.39063 0.4063,0.21875 0.5625,0.39062 0.1563,0.15625 0.2032,0.26563 0.062,0.0937 0.094,0.26562 0.047,0.15625 0.062,0.39063 0.016,0.21875 0.016,0.54687 0,0.34375 -0.031,0.59375 -0.016,0.25 -0.078,0.40625 -0.047,0.14063 -0.1407,0.21875 -0.078,0.0625 -0.1875,0.0625 -0.1718,0 -0.4375,-0.20312 -0.2656,-0.20313 -0.7031,-0.45313 -0.4219,-0.25 -1.0156,-0.45312 -0.5938,-0.21875 -1.4063,-0.21875 -0.9062,0 -1.625,0.375 -0.7031,0.375 -1.2031,1.0625 -0.5,0.67187 -0.7656,1.65625 -0.25,0.96875 -0.25,2.1875 0,1.32812 0.2812,2.3125 0.2813,0.98437 0.7813,1.625 0.5156,0.625 1.2344,0.9375 0.7187,0.29687 1.625,0.29687 0.8125,0 1.4062,-0.1875 0.6094,-0.1875 1.0313,-0.42187 0.4375,-0.23438 0.7031,-0.42188 0.2812,-0.1875 0.4375,-0.1875 0.1094,0 0.1719,0.0469 0.078,0.0469 0.125,0.1875 0.047,0.14062 0.062,0.39062 0.031,0.25 0.031,0.67188 z m 12.6094,-3.4375 q 0,1.34375 -0.3594,2.45312 -0.3437,1.09375 -1.0625,1.89063 -0.7031,0.79687 -1.7812,1.23437 -1.0782,0.42188 -2.5313,0.42188 -1.3906,0 -2.4219,-0.375 -1.0312,-0.39063 -1.7187,-1.125 -0.6719,-0.75 -1,-1.82813 -0.3281,-1.07812 -0.3281,-2.45312 0,-1.34375 0.3593,-2.45313 0.3594,-1.10937 1.0625,-1.89062 0.7188,-0.79688 1.7969,-1.21875 1.0781,-0.4375 2.5156,-0.4375 1.4063,0 2.4375,0.375 1.0313,0.375 1.7032,1.125 0.6718,0.73437 1,1.8125 0.3281,1.07812 0.3281,2.46875 z m -3.0313,0.125 q 0,-0.78125 -0.125,-1.42188 -0.125,-0.65625 -0.4218,-1.14062 -0.2813,-0.48438 -0.7813,-0.75 -0.4844,-0.26563 -1.2187,-0.26563 -0.6563,0 -1.1563,0.25 -0.4844,0.23438 -0.7969,0.70313 -0.3125,0.45312 -0.4843,1.10937 -0.1563,0.64063 -0.1563,1.46875 0,0.78125 0.125,1.4375 0.1406,0.64063 0.4219,1.125 0.2969,0.48438 0.7812,0.75 0.5,0.25 1.2188,0.25 0.6719,0 1.1562,-0.23437 0.5,-0.23438 0.8125,-0.6875 0.3125,-0.46875 0.4688,-1.10938 0.1562,-0.65625 0.1562,-1.48437 z m 15.3555,5.20312 q 0,0.125 -0.078,0.21875 -0.062,0.0781 -0.2344,0.14063 -0.1563,0.0625 -0.4531,0.0937 -0.2813,0.0312 -0.7032,0.0312 -0.4375,0 -0.7343,-0.0312 -0.2813,-0.0312 -0.4532,-0.0937 -0.1562,-0.0625 -0.2343,-0.14063 -0.062,-0.0937 -0.062,-0.21875 v -5.95312 q 0,-0.76563 -0.1094,-1.20313 -0.1094,-0.4375 -0.3281,-0.73437 -0.2032,-0.3125 -0.5469,-0.48438 -0.3281,-0.17187 -0.7656,-0.17187 -0.5625,0 -1.1407,0.40625 -0.5781,0.40625 -1.1875,1.20312 v 6.9375 q 0,0.125 -0.078,0.21875 -0.062,0.0781 -0.2344,0.14063 -0.1718,0.0625 -0.4531,0.0937 -0.2812,0.0312 -0.7187,0.0312 -0.4375,0 -0.7188,-0.0312 -0.2812,-0.0312 -0.4531,-0.0937 -0.1563,-0.0625 -0.2344,-0.14063 -0.062,-0.0937 -0.062,-0.21875 v -10.45312 q 0,-0.10938 0.047,-0.1875 0.062,-0.0937 0.2187,-0.15625 0.1563,-0.0625 0.3907,-0.0937 0.2343,-0.0312 0.6093,-0.0312 0.375,0 0.6094,0.0312 0.25,0.0312 0.375,0.0937 0.1406,0.0625 0.2031,0.15625 0.062,0.0781 0.062,0.1875 v 1.21875 q 0.8594,-0.9375 1.75,-1.40625 0.9063,-0.46875 1.875,-0.46875 1.0782,0 1.7969,0.35937 0.7344,0.34375 1.1875,0.95313 0.4531,0.59375 0.6563,1.40625 0.2031,0.79687 0.2031,1.9375 z m 9.082,-1.03125 q 0,0.51563 -0.078,0.79688 -0.062,0.28125 -0.1719,0.39062 -0.094,0.10938 -0.2968,0.20313 -0.2032,0.0781 -0.4844,0.14062 -0.2813,0.0781 -0.6094,0.10938 -0.3125,0.0312 -0.6406,0.0312 -0.875,0 -1.5313,-0.23438 -0.6406,-0.21875 -1.0625,-0.67187 -0.4218,-0.46875 -0.625,-1.17188 -0.1875,-0.70312 -0.1875,-1.65625 v -5.35937 h -1.25 q -0.2343,0 -0.3593,-0.26563 -0.1094,-0.28125 -0.1094,-0.9375 0,-0.32812 0.031,-0.5625 0.031,-0.23437 0.094,-0.375 0.062,-0.14062 0.1406,-0.1875 0.094,-0.0625 0.2031,-0.0625 h 1.25 v -2.32812 q 0,-0.125 0.062,-0.21875 0.062,-0.0937 0.2344,-0.15625 0.1719,-0.0625 0.4531,-0.0937 0.2969,-0.0312 0.7188,-0.0312 0.4219,0 0.7031,0.0312 0.2969,0.0312 0.4531,0.0937 0.1719,0.0625 0.2344,0.15625 0.078,0.0937 0.078,0.21875 v 2.32812 h 2.2813 q 0.1094,0 0.1875,0.0625 0.094,0.0469 0.1562,0.1875 0.062,0.14063 0.094,0.375 0.031,0.23438 0.031,0.5625 0,0.65625 -0.125,0.9375 -0.1093,0.26563 -0.3437,0.26563 h -2.2813 v 4.90625 q 0,0.85937 0.2657,1.29687 0.2812,0.42188 0.9687,0.42188 0.2344,0 0.4219,-0.0469 0.1875,-0.0469 0.3281,-0.0937 0.1563,-0.0469 0.25,-0.0937 0.094,-0.0469 0.1875,-0.0469 0.062,0 0.125,0.0469 0.062,0.0469 0.094,0.17188 0.047,0.10937 0.078,0.32812 0.031,0.20313 0.031,0.53125 z m 11.0391,1.07813 q 0,0.15625 -0.125,0.25 -0.1094,0.0937 -0.375,0.14062 -0.25,0.0469 -0.7344,0.0469 -0.5312,0 -0.7812,-0.0469 -0.2344,-0.0469 -0.3282,-0.14062 -0.094,-0.0937 -0.094,-0.25 v -0.84375 q -0.6563,0.70312 -1.4844,1.09375 -0.8125,0.375 -1.8281,0.375 -0.8281,0 -1.5313,-0.21875 -0.6875,-0.21875 -1.2031,-0.64063 -0.5156,-0.42187 -0.7969,-1.04687 -0.2812,-0.64063 -0.2812,-1.48438 0,-0.92187 0.3594,-1.59375 0.3593,-0.67187 1.0625,-1.10937 0.7187,-0.4375 1.7656,-0.64063 1.0625,-0.21875 2.4531,-0.21875 h 1.0156 v -0.64062 q 0,-0.48438 -0.094,-0.85938 -0.094,-0.375 -0.3281,-0.60937 -0.2344,-0.25 -0.6094,-0.35938 -0.375,-0.125 -0.9375,-0.125 -0.75,0 -1.3281,0.17188 -0.5782,0.15625 -1.0313,0.35937 -0.4375,0.1875 -0.7344,0.35938 -0.2968,0.15625 -0.4843,0.15625 -0.125,0 -0.2344,-0.0781 -0.094,-0.0781 -0.1563,-0.23437 -0.062,-0.15625 -0.1093,-0.375 -0.031,-0.21875 -0.031,-0.48438 0,-0.375 0.062,-0.57812 0.062,-0.21875 0.2188,-0.375 0.1718,-0.17188 0.5781,-0.375 0.4062,-0.21875 0.9531,-0.39063 0.5625,-0.17187 1.2031,-0.28125 0.6563,-0.10937 1.3438,-0.10937 1.2344,0 2.1094,0.23437 0.875,0.23438 1.4375,0.73438 0.5625,0.5 0.8125,1.29687 0.2656,0.78125 0.2656,1.85938 z m -2.9063,-4.48438 h -1.125 q -0.7031,0 -1.2187,0.10938 -0.5,0.10937 -0.8125,0.32812 -0.3125,0.20313 -0.4688,0.5 -0.1406,0.29688 -0.1406,0.6875 0,0.65625 0.4063,1.03125 0.4218,0.375 1.1562,0.375 0.625,0 1.1406,-0.3125 0.5313,-0.32812 1.0625,-0.9375 z m 8.8008,4.4375 q 0,0.125 -0.078,0.21875 -0.062,0.0781 -0.2344,0.14063 -0.1719,0.0625 -0.4531,0.0937 -0.2813,0.0312 -0.7188,0.0312 -0.4375,0 -0.7187,-0.0312 -0.2813,-0.0312 -0.4531,-0.0937 -0.1563,-0.0625 -0.2344,-0.14063 -0.062,-0.0937 -0.062,-0.21875 v -10.42187 q 0,-0.125 0.062,-0.20313 0.078,-0.0937 0.2344,-0.15625 0.1718,-0.0625 0.4531,-0.0937 0.2812,-0.0469 0.7187,-0.0469 0.4375,0 0.7188,0.0469 0.2812,0.0312 0.4531,0.0937 0.1719,0.0625 0.2344,0.15625 0.078,0.0781 0.078,0.20313 z m 0.2188,-13.98437 q 0,0.89062 -0.375,1.23437 -0.3594,0.32813 -1.3438,0.32813 -0.9844,0 -1.3437,-0.32813 -0.3438,-0.32812 -0.3438,-1.17187 0,-0.89063 0.3594,-1.23438 0.3594,-0.35937 1.3594,-0.35937 0.9843,0 1.3281,0.34375 0.3594,0.32812 0.3594,1.1875 z m 12.707,13.98437 q 0,0.125 -0.078,0.21875 -0.062,0.0781 -0.2344,0.14063 -0.1563,0.0625 -0.4531,0.0937 -0.2813,0.0312 -0.7032,0.0312 -0.4375,0 -0.7343,-0.0312 -0.2813,-0.0312 -0.4532,-0.0937 -0.1562,-0.0625 -0.2343,-0.14063 -0.062,-0.0937 -0.062,-0.21875 v -5.95312 q 0,-0.76563 -0.1094,-1.20313 -0.1094,-0.4375 -0.3281,-0.73437 -0.2032,-0.3125 -0.5469,-0.48438 -0.3281,-0.17187 -0.7656,-0.17187 -0.5625,0 -1.1407,0.40625 -0.5781,0.40625 -1.1875,1.20312 v 6.9375 q 0,0.125 -0.078,0.21875 -0.062,0.0781 -0.2344,0.14063 -0.1718,0.0625 -0.4531,0.0937 -0.2812,0.0312 -0.7187,0.0312 -0.4375,0 -0.7188,-0.0312 -0.2812,-0.0312 -0.4531,-0.0937 -0.1563,-0.0625 -0.2344,-0.14063 -0.062,-0.0937 -0.062,-0.21875 v -10.45312 q 0,-0.10938 0.047,-0.1875 0.062,-0.0937 0.2187,-0.15625 0.1563,-0.0625 0.3907,-0.0937 0.2343,-0.0312 0.6093,-0.0312 0.375,0 0.6094,0.0312 0.25,0.0312 0.375,0.0937 0.1406,0.0625 0.2031,0.15625 0.062,0.0781 0.062,0.1875 v 1.21875 q 0.8594,-0.9375 1.75,-1.40625 0.9063,-0.46875 1.875,-0.46875 1.0782,0 1.7969,0.35937 0.7344,0.34375 1.1875,0.95313 0.4531,0.59375 0.6563,1.40625 0.2031,0.79687 0.2031,1.9375 z m 12.5508,-5.53125 q 0,0.54688 -0.25,0.8125 -0.2344,0.25 -0.6563,0.25 h -6.3593 q 0,0.67188 0.1562,1.21875 0.1563,0.53125 0.5,0.92188 0.3438,0.375 0.8906,0.57812 0.5469,0.20313 1.3125,0.20313 0.7657,0 1.3438,-0.10938 0.5937,-0.125 1.0156,-0.25 0.4375,-0.14062 0.7188,-0.25 0.2812,-0.10937 0.4531,-0.10937 0.1094,0 0.1719,0.0469 0.078,0.0312 0.125,0.14063 0.047,0.10937 0.062,0.29687 0.016,0.1875 0.016,0.48438 0,0.26562 -0.016,0.45312 0,0.17188 -0.031,0.29688 -0.016,0.125 -0.062,0.21875 -0.047,0.0937 -0.125,0.17187 -0.078,0.0781 -0.4219,0.21875 -0.3437,0.14063 -0.875,0.28125 -0.5156,0.14063 -1.2031,0.23438 -0.6719,0.0937 -1.4531,0.0937 -1.3906,0 -2.4375,-0.34375 -1.0469,-0.35938 -1.75,-1.0625 -0.7031,-0.71875 -1.0469,-1.8125 -0.3437,-1.09375 -0.3437,-2.5625 0,-1.39063 0.3593,-2.5 0.3594,-1.125 1.0469,-1.90625 0.7031,-0.78125 1.6875,-1.1875 0.9844,-0.40625 2.2344,-0.40625 1.3125,0 2.2344,0.39062 0.9375,0.375 1.5312,1.0625 0.6094,0.6875 0.8906,1.625 0.2813,0.9375 0.2813,2.03125 z m -2.8594,-0.84375 q 0.031,-1.23437 -0.5,-1.9375 -0.5312,-0.71875 -1.6562,-0.71875 -0.5625,0 -0.9844,0.21875 -0.4063,0.20313 -0.6875,0.5625 -0.2656,0.35938 -0.4219,0.84375 -0.1406,0.48438 -0.1562,1.03125 z m 11.9883,-3.09375 q 0,0.42188 -0.031,0.6875 -0.016,0.26563 -0.062,0.42188 -0.047,0.15625 -0.125,0.21875 -0.062,0.0469 -0.1875,0.0469 -0.094,0 -0.2187,-0.0312 -0.1094,-0.0469 -0.2656,-0.0937 -0.1407,-0.0469 -0.3125,-0.0781 -0.1719,-0.0469 -0.3907,-0.0469 -0.2343,0 -0.4843,0.0937 -0.25,0.0937 -0.5157,0.3125 -0.2656,0.20313 -0.5468,0.5625 -0.2813,0.34375 -0.6094,0.85938 v 6.51562 q 0,0.125 -0.078,0.21875 -0.062,0.0781 -0.2344,0.14063 -0.1719,0.0625 -0.4531,0.0937 -0.2813,0.0312 -0.7188,0.0312 -0.4375,0 -0.7187,-0.0312 -0.2813,-0.0312 -0.4532,-0.0937 -0.1562,-0.0625 -0.2343,-0.14063 -0.062,-0.0937 -0.062,-0.21875 v -10.4532 q 0,-0.10938 0.047,-0.1875 0.062,-0.0937 0.2188,-0.15625 0.1562,-0.0625 0.3906,-0.0937 0.2344,-0.0312 0.6094,-0.0312 0.375,0 0.6094,0.0312 0.25,0.0312 0.375,0.0937 0.1406,0.0625 0.2031,0.15625 0.062,0.0781 0.062,0.1875 v 1.3125 q 0.4062,-0.59375 0.7656,-0.96875 0.375,-0.39063 0.7031,-0.60938 0.3282,-0.21875 0.6563,-0.29687 0.3281,-0.0937 0.6562,-0.0937 0.1407,0 0.3125,0.0156 0.1875,0.0156 0.375,0.0625 0.1875,0.0312 0.3282,0.0937 0.1406,0.0469 0.2031,0.10938 0.062,0.0469 0.094,0.125 0.031,0.0625 0.047,0.1875 0.031,0.125 0.031,0.375 0.016,0.25 0.016,0.67187 z m 18.6758,9.46875 q 0,0.14063 -0.047,0.23438 -0.047,0.0781 -0.2344,0.14062 -0.1719,0.0625 -0.5156,0.0781 -0.3281,0.0312 -0.9219,0.0312 -0.4844,0 -0.7812,-0.0312 -0.2969,-0.0156 -0.4688,-0.0781 -0.1562,-0.0781 -0.2344,-0.17187 -0.062,-0.10938 -0.1093,-0.25 l -1.3594,-3.375 q -0.25,-0.57813 -0.4844,-1.01563 -0.2344,-0.45312 -0.5312,-0.75 -0.2813,-0.29687 -0.6563,-0.45312 -0.375,-0.15625 -0.8594,-0.15625 h -0.9687 v 5.78125 q 0,0.10937 -0.078,0.20312 -0.078,0.0937 -0.25,0.15625 -0.1719,0.0625 -0.4688,0.0937 -0.2969,0.0469 -0.75,0.0469 -0.4375,0 -0.75,-0.0469 -0.2969,-0.0312 -0.4687,-0.0937 -0.1719,-0.0625 -0.25,-0.15625 -0.062,-0.0937 -0.062,-0.20312 v -13.76563 q 0,-0.51562 0.2656,-0.75 0.2656,-0.23437 0.6406,-0.23437 h 3.9375 q 0.5938,0 0.9688,0.0312 0.3906,0.0156 0.7187,0.0625 0.9063,0.125 1.6406,0.4375 0.7344,0.3125 1.2344,0.82812 0.5156,0.51563 0.7813,1.21875 0.2812,0.6875 0.2812,1.59375 0,0.75 -0.2031,1.39063 -0.1875,0.625 -0.5625,1.125 -0.375,0.48437 -0.9375,0.84375 -0.5469,0.35937 -1.25,0.57812 0.3437,0.17188 0.6406,0.40625 0.2969,0.23438 0.5625,0.57813 0.2656,0.32812 0.5,0.75 0.2344,0.42187 0.4531,0.96875 l 1.2813,2.98437 q 0.1719,0.45313 0.2344,0.65625 0.062,0.20313 0.062,0.3125 z m -3.9688,-10.28125 q 0,-0.75 -0.3437,-1.26562 -0.3438,-0.51563 -1.1094,-0.73438 -0.2344,-0.0469 -0.5469,-0.0781 -0.2969,-0.0469 -0.8125,-0.0469 h -1.3906 v 4.29688 h 1.5781 q 0.6563,0 1.1406,-0.15625 0.5,-0.15625 0.8282,-0.4375 0.3281,-0.29688 0.4843,-0.6875 0.1719,-0.40625 0.1719,-0.89063 z m 15.9649,10.28125 q 0,0.125 -0.062,0.21875 -0.047,0.0781 -0.2032,0.14063 -0.1406,0.0625 -0.3906,0.0937 -0.2344,0.0312 -0.5937,0.0312 -0.3907,0 -0.6407,-0.0312 -0.2343,-0.0312 -0.375,-0.0937 -0.1406,-0.0625 -0.2031,-0.14063 -0.047,-0.0937 -0.047,-0.21875 v -1.20312 q -0.875,0.9375 -1.7656,1.40625 -0.8906,0.46875 -1.8594,0.46875 -1.0781,0 -1.8125,-0.34375 -0.7343,-0.35938 -1.1875,-0.96875 -0.4375,-0.60938 -0.6406,-1.40625 -0.1875,-0.8125 -0.1875,-2 v -6.40625 q 0,-0.10938 0.062,-0.1875 0.062,-0.0937 0.2344,-0.15625 0.1719,-0.0625 0.4531,-0.0937 0.2969,-0.0312 0.7188,-0.0312 0.4218,0 0.7031,0.0312 0.2812,0.0312 0.4531,0.0937 0.1719,0.0625 0.2344,0.15625 0.078,0.0781 0.078,0.1875 v 5.90625 q 0,0.82812 0.1094,1.26562 0.1094,0.42188 0.3125,0.73438 0.2187,0.3125 0.5469,0.48437 0.3437,0.17188 0.7968,0.17188 0.5625,0 1.125,-0.40625 0.5625,-0.42188 1.2188,-1.20313 v -6.95312 q 0,-0.10938 0.062,-0.1875 0.062,-0.0937 0.2344,-0.15625 0.1718,-0.0625 0.4531,-0.0937 0.2812,-0.0312 0.7031,-0.0312 0.4375,0 0.7188,0.0312 0.2812,0.0312 0.4375,0.0937 0.1718,0.0625 0.2343,0.15625 0.078,0.0781 0.078,0.1875 z m 12.957,0 q 0,0.125 -0.078,0.21875 -0.062,0.0781 -0.2344,0.14063 -0.1563,0.0625 -0.4531,0.0937 -0.2813,0.0312 -0.7032,0.0312 -0.4375,0 -0.7343,-0.0312 -0.2813,-0.0312 -0.4532,-0.0937 -0.1562,-0.0625 -0.2343,-0.14063 -0.062,-0.0937 -0.062,-0.21875 v -5.95312 q 0,-0.76563 -0.1094,-1.20313 -0.1094,-0.4375 -0.3281,-0.73437 -0.2032,-0.3125 -0.5469,-0.48438 -0.3281,-0.17187 -0.7656,-0.17187 -0.5625,0 -1.1407,0.40625 -0.5781,0.40625 -1.1875,1.20312 v 6.9375 q 0,0.125 -0.078,0.21875 -0.062,0.0781 -0.2344,0.14063 -0.1718,0.0625 -0.4531,0.0937 -0.2812,0.0312 -0.7187,0.0312 -0.4375,0 -0.7188,-0.0312 -0.2812,-0.0312 -0.4531,-0.0937 -0.1563,-0.0625 -0.2344,-0.14063 -0.062,-0.0937 -0.062,-0.21875 v -10.45312 q 0,-0.10938 0.047,-0.1875 0.062,-0.0937 0.2187,-0.15625 0.1563,-0.0625 0.3907,-0.0937 0.2343,-0.0312 0.6093,-0.0312 0.375,0 0.6094,0.0312 0.25,0.0312 0.375,0.0937 0.1406,0.0625 0.2031,0.15625 0.062,0.0781 0.062,0.1875 v 1.21875 q 0.8594,-0.9375 1.75,-1.40625 0.9063,-0.46875 1.875,-0.46875 1.0782,0 1.7969,0.35937 0.7344,0.34375 1.1875,0.95313 0.4531,0.59375 0.6563,1.40625 0.2031,0.79687 0.2031,1.9375 z m 9.082,-1.03125 q 0,0.51563 -0.078,0.79688 -0.062,0.28125 -0.1719,0.39062 -0.094,0.10938 -0.2969,0.20313 -0.2031,0.0781 -0.4843,0.14062 -0.2813,0.0781 -0.6094,0.10938 -0.3125,0.0312 -0.6406,0.0312 -0.875,0 -1.5313,-0.23438 -0.6406,-0.21875 -1.0625,-0.67187 -0.4219,-0.46875 -0.625,-1.17188 -0.1875,-0.70312 -0.1875,-1.65625 v -5.35937 h -1.25 q -0.2344,0 -0.3594,-0.26563 -0.1093,-0.28125 -0.1093,-0.9375 0,-0.32812 0.031,-0.5625 0.031,-0.23437 0.094,-0.375 0.062,-0.14062 0.1406,-0.1875 0.094,-0.0625 0.2031,-0.0625 h 1.25 v -2.32812 q 0,-0.125 0.062,-0.21875 0.062,-0.0937 0.2344,-0.15625 0.1719,-0.0625 0.4531,-0.0937 0.2969,-0.0312 0.7188,-0.0312 0.4218,0 0.7031,0.0312 0.2969,0.0312 0.4531,0.0937 0.1719,0.0625 0.2344,0.15625 0.078,0.0937 0.078,0.21875 v 2.32812 h 2.2813 q 0.1093,0 0.1875,0.0625 0.094,0.0469 0.1562,0.1875 0.062,0.14063 0.094,0.375 0.031,0.23438 0.031,0.5625 0,0.65625 -0.125,0.9375 -0.1094,0.26563 -0.3437,0.26563 h -2.2813 v 4.90625 q 0,0.85937 0.2656,1.29687 0.2813,0.42188 0.9688,0.42188 0.2344,0 0.4219,-0.0469 0.1875,-0.0469 0.3281,-0.0937 0.1562,-0.0469 0.25,-0.0937 0.094,-0.0469 0.1875,-0.0469 0.062,0 0.125,0.0469 0.062,0.0469 0.094,0.17188 0.047,0.10937 0.078,0.32812 0.031,0.20313 0.031,0.53125 z m 5.086,1.03125 q 0,0.125 -0.078,0.21875 -0.062,0.0781 -0.2343,0.14063 -0.1719,0.0625 -0.4532,0.0937 -0.2812,0.0312 -0.7187,0.0312 -0.4375,0 -0.7188,-0.0312 -0.2812,-0.0312 -0.4531,-0.0937 -0.1562,-0.0625 -0.2344,-0.14063 -0.062,-0.0937 -0.062,-0.21875 v -10.42187 q 0,-0.125 0.062,-0.20313 0.078,-0.0937 0.2344,-0.15625 0.1719,-0.0625 0.4531,-0.0937 0.2813,-0.0469 0.7188,-0.0469 0.4375,0 0.7187,0.0469 0.2813,0.0312 0.4532,0.0937 0.1718,0.0625 0.2343,0.15625 0.078,0.0781 0.078,0.20313 z m 0.2187,-13.98437 q 0,0.89062 -0.375,1.23437 -0.3594,0.32813 -1.3437,0.32813 -0.9844,0 -1.3438,-0.32813 -0.3437,-0.32812 -0.3437,-1.17187 0,-0.89063 0.3593,-1.23438 0.3594,-0.35937 1.3594,-0.35937 0.9844,0 1.3281,0.34375 0.3594,0.32812 0.3594,1.1875 z m 19.3477,13.98437 q 0,0.125 -0.078,0.21875 -0.062,0.0781 -0.2343,0.14063 -0.1563,0.0625 -0.4375,0.0937 -0.2813,0.0312 -0.7188,0.0312 -0.4375,0 -0.7187,-0.0312 -0.2813,-0.0312 -0.4532,-0.0937 -0.1718,-0.0625 -0.2343,-0.14063 -0.062,-0.0937 -0.062,-0.21875 v -6.1875 q 0,-0.53125 -0.1094,-0.96875 -0.094,-0.4375 -0.2969,-0.73437 -0.2031,-0.3125 -0.5156,-0.48438 -0.3125,-0.17187 -0.75,-0.17187 -0.5313,0 -1.0781,0.40625 -0.5313,0.40625 -1.1563,1.20312 v 6.9375 q 0,0.125 -0.078,0.21875 -0.062,0.0781 -0.2344,0.14063 -0.1719,0.0625 -0.4531,0.0937 -0.2813,0.0312 -0.7031,0.0312 -0.4375,0 -0.7188,-0.0312 -0.2812,-0.0312 -0.4531,-0.0937 -0.1563,-0.0625 -0.2344,-0.14063 -0.062,-0.0937 -0.062,-0.21875 v -6.1875 q 0,-0.53125 -0.1094,-0.96875 -0.094,-0.4375 -0.2968,-0.73437 -0.2032,-0.3125 -0.5157,-0.48438 -0.3125,-0.17187 -0.7343,-0.17187 -0.5469,0 -1.0938,0.40625 -0.5312,0.40625 -1.1406,1.20312 v 6.9375 q 0,0.125 -0.078,0.21875 -0.062,0.0781 -0.2344,0.14063 -0.1719,0.0625 -0.4531,0.0937 -0.2813,0.0312 -0.7188,0.0312 -0.4375,0 -0.7187,-0.0312 -0.2813,-0.0312 -0.4532,-0.0937 -0.1562,-0.0625 -0.2343,-0.14063 -0.062,-0.0937 -0.062,-0.21875 v -10.45312 q 0,-0.10938 0.047,-0.1875 0.062,-0.0937 0.2188,-0.15625 0.1562,-0.0625 0.3906,-0.0937 0.2344,-0.0312 0.6094,-0.0312 0.375,0 0.6094,0.0312 0.25,0.0312 0.375,0.0937 0.1406,0.0625 0.2031,0.15625 0.062,0.0781 0.062,0.1875 v 1.21875 q 0.8594,-0.9375 1.7187,-1.40625 0.875,-0.46875 1.8125,-0.46875 0.6407,0 1.1563,0.14062 0.5156,0.125 0.9219,0.375 0.4062,0.25 0.6875,0.60938 0.2968,0.34375 0.5,0.78125 0.4687,-0.5 0.9218,-0.85938 0.4532,-0.375 0.8907,-0.59375 0.4375,-0.23437 0.875,-0.34375 0.4375,-0.10937 0.8906,-0.10937 1.0469,0 1.7656,0.35937 0.7188,0.34375 1.1563,0.95313 0.4375,0.59375 0.625,1.40625 0.1875,0.79687 0.1875,1.70312 z m 12.5547,-5.53125 q 0,0.54688 -0.25,0.8125 -0.2344,0.25 -0.6563,0.25 h -6.3594 q 0,0.67188 0.1563,1.21875 0.1562,0.53125 0.5,0.92188 0.3437,0.375 0.8906,0.57812 0.5469,0.20313 1.3125,0.20313 0.7656,0 1.3438,-0.10938 0.5937,-0.125 1.0156,-0.25 0.4375,-0.14062 0.7187,-0.25 0.2813,-0.10937 0.4532,-0.10937 0.1093,0 0.1718,0.0469 0.078,0.0312 0.125,0.14063 0.047,0.10937 0.062,0.29687 0.016,0.1875 0.016,0.48438 0,0.26562 -0.016,0.45312 0,0.17188 -0.031,0.29688 -0.016,0.125 -0.062,0.21875 -0.047,0.0937 -0.125,0.17187 -0.078,0.0781 -0.4219,0.21875 -0.3437,0.14063 -0.875,0.28125 -0.5156,0.14063 -1.2031,0.23438 -0.6719,0.0937 -1.4531,0.0937 -1.3907,0 -2.4375,-0.34375 -1.0469,-0.35938 -1.75,-1.0625 -0.7032,-0.71875 -1.0469,-1.8125 -0.3438,-1.09375 -0.3438,-2.5625 0,-1.39063 0.3594,-2.5 0.3594,-1.125 1.0469,-1.90625 0.7031,-0.78125 1.6875,-1.1875 0.9844,-0.40625 2.2344,-0.40625 1.3125,0 2.2343,0.39062 0.9375,0.375 1.5313,1.0625 0.6094,0.6875 0.8906,1.625 0.2813,0.9375 0.2813,2.03125 z m -2.8594,-0.84375 q 0.031,-1.23437 -0.5,-1.9375 -0.5313,-0.71875 -1.6563,-0.71875 -0.5625,0 -0.9843,0.21875 -0.4063,0.20313 -0.6875,0.5625 -0.2657,0.35938 -0.4219,0.84375 -0.1406,0.48438 -0.1563,1.03125 z"
     fill-rule="nonzero"
     id="path41"
     style="display:inline" />
  <path
     fill="#b7b7b7"
     d="M 0,0 H 473.02912 V 158.64566 H 0 Z"
     fill-rule="evenodd"
     id="path43"
     style="display:inline;stroke-width:1.72452" />
  <path
     fill="#000000"
     fill-opacity="0"
     d="m 5e-5,411.18374 h 473.514 v 54.20474 H 5e-5 Z"
     fill-rule="evenodd"
     id="path91"
     style="display:inline;stroke-width:0.996167" />
  <path
     fill="#000000"
     d="m 103.7546,447.84124 q 0,0.39062 -0.031,0.67187 -0.016,0.26563 -0.062,0.46875 -0.047,0.1875 -0.125,0.32813 -0.078,0.14062 -0.25,0.32812 -0.1719,0.17188 -0.6719,0.45313 -0.4844,0.28125 -1.2031,0.54687 -0.7032,0.25 -1.625,0.42188 -0.9063,0.17187 -1.9688,0.17187 -2.0781,0 -3.75,-0.64062 -1.6719,-0.64063 -2.8437,-1.90625 -1.1719,-1.28125 -1.7969,-3.1875 -0.625,-1.90625 -0.625,-4.4375 0,-2.57813 0.6875,-4.57813 0.6875,-2 1.9219,-3.35937 1.2343,-1.35938 2.9531,-2.0625 1.7344,-0.70313 3.8125,-0.70313 0.8437,0 1.625,0.14063 0.7812,0.14062 1.4375,0.375 0.6719,0.21875 1.2031,0.51562 0.5313,0.29688 0.7344,0.51563 0.2187,0.20312 0.2969,0.34375 0.078,0.14062 0.125,0.35937 0.047,0.21875 0.062,0.51563 0.031,0.29687 0.031,0.73437 0,0.46875 -0.031,0.79688 -0.031,0.32812 -0.1094,0.53125 -0.078,0.20312 -0.1875,0.29687 -0.1094,0.0937 -0.25,0.0937 -0.2344,0 -0.5938,-0.26562 -0.3593,-0.28125 -0.9375,-0.60938 -0.5625,-0.34375 -1.3593,-0.60937 -0.7813,-0.28125 -1.875,-0.28125 -1.2032,0 -2.1563,0.5 -0.9375,0.48437 -1.6094,1.40625 -0.6562,0.90625 -1,2.20312 -0.3437,1.29688 -0.3437,2.92188 0,1.78125 0.3594,3.09375 0.375,1.29687 1.0468,2.14062 0.6875,0.84375 1.6407,1.26563 0.9687,0.40625 2.1718,0.40625 1.0938,0 1.8907,-0.25 0.7968,-0.26563 1.3593,-0.57813 0.5782,-0.3125 0.9375,-0.5625 0.375,-0.25 0.5782,-0.25 0.1562,0 0.25,0.0625 0.094,0.0625 0.1562,0.25 0.062,0.1875 0.094,0.53125 0.031,0.32813 0.031,0.89063 z m 16.8125,-4.57813 q 0,1.78125 -0.4687,3.25 -0.4688,1.46875 -1.4219,2.53125 -0.9531,1.0625 -2.3906,1.64063 -1.4375,0.57812 -3.3594,0.57812 -1.8594,0 -3.2344,-0.51562 -1.375,-0.51563 -2.2812,-1.5 -0.9063,-0.98438 -1.3438,-2.42188 -0.4375,-1.4375 -0.4375,-3.28125 0,-1.78125 0.4688,-3.25 0.4843,-1.48437 1.4375,-2.53125 0.9531,-1.0625 2.375,-1.64062 1.4375,-0.57813 3.3593,-0.57813 1.875,0 3.25,0.51563 1.375,0.5 2.2657,1.48437 0.9062,0.98438 1.3437,2.42188 0.4375,1.4375 0.4375,3.29687 z m -4.0469,0.15625 q 0,-1.03125 -0.1718,-1.89062 -0.1563,-0.875 -0.5469,-1.51563 -0.3906,-0.64062 -1.0469,-1 -0.6406,-0.35937 -1.625,-0.35937 -0.875,0 -1.5312,0.32812 -0.6563,0.3125 -1.0782,0.9375 -0.4218,0.60938 -0.6406,1.48438 -0.2031,0.85937 -0.2031,1.96875 0,1.03125 0.1719,1.90625 0.1718,0.85937 0.5468,1.5 0.3907,0.64062 1.0469,1 0.6563,0.34375 1.625,0.34375 0.8906,0 1.5469,-0.3125 0.6562,-0.32813 1.0781,-0.9375 0.4219,-0.60938 0.625,-1.46875 0.2031,-0.875 0.2031,-1.98438 z m 20.4688,6.95313 q 0,0.15625 -0.094,0.28125 -0.094,0.10937 -0.3125,0.1875 -0.2187,0.0781 -0.6093,0.10937 -0.375,0.0469 -0.9375,0.0469 -0.5782,0 -0.9688,-0.0469 -0.375,-0.0312 -0.5937,-0.10937 -0.2188,-0.0781 -0.3125,-0.1875 -0.094,-0.125 -0.094,-0.28125 v -7.95313 q 0,-1.01562 -0.1562,-1.59375 -0.1407,-0.57812 -0.4219,-0.98437 -0.2813,-0.42188 -0.7344,-0.64063 -0.4375,-0.23437 -1.0312,-0.23437 -0.75,0 -1.5157,0.54687 -0.7656,0.54688 -1.5937,1.59375 v 9.26563 q 0,0.15625 -0.094,0.28125 -0.094,0.10937 -0.3281,0.1875 -0.2187,0.0781 -0.5937,0.10937 -0.375,0.0469 -0.9532,0.0469 -0.5781,0 -0.9531,-0.0469 -0.375,-0.0312 -0.6094,-0.10937 -0.2187,-0.0781 -0.3125,-0.1875 -0.094,-0.125 -0.094,-0.28125 v -13.9375 q 0,-0.15625 0.078,-0.26563 0.078,-0.125 0.2813,-0.20312 0.2031,-0.0781 0.5156,-0.10938 0.3281,-0.0469 0.8125,-0.0469 0.5,0 0.8281,0.0469 0.3281,0.0312 0.5,0.10938 0.1875,0.0781 0.2656,0.20312 0.078,0.10938 0.078,0.26563 v 1.60937 q 1.1562,-1.25 2.3437,-1.875 1.2031,-0.625 2.5,-0.625 1.4219,0 2.3906,0.46875 0.9844,0.46875 1.5782,1.28125 0.6093,0.79688 0.875,1.875 0.2656,1.07813 0.2656,2.59375 z m 12.1094,-1.375 q 0,0.6875 -0.094,1.0625 -0.078,0.35937 -0.2187,0.51562 -0.1407,0.14063 -0.4219,0.26563 -0.2656,0.10937 -0.6406,0.1875 -0.3594,0.0937 -0.7969,0.14062 -0.4219,0.0469 -0.8594,0.0469 -1.1719,0 -2.0312,-0.29688 -0.8594,-0.29687 -1.4219,-0.90625 -0.5625,-0.625 -0.8281,-1.5625 -0.2657,-0.9375 -0.2657,-2.21875 v -7.14062 h -1.6718 q -0.2969,0 -0.4532,-0.35938 -0.1562,-0.375 -0.1562,-1.23437 0,-0.45313 0.031,-0.76563 0.047,-0.3125 0.125,-0.48437 0.078,-0.1875 0.1875,-0.26563 0.125,-0.0781 0.2813,-0.0781 h 1.6562 v -3.10938 q 0,-0.15625 0.078,-0.28125 0.094,-0.125 0.3125,-0.20312 0.2343,-0.0937 0.6093,-0.125 0.3907,-0.0469 0.9532,-0.0469 0.5781,0 0.9531,0.0469 0.3906,0.0312 0.6094,0.125 0.2187,0.0781 0.3125,0.20312 0.094,0.125 0.094,0.28125 v 3.10938 h 3.0313 q 0.1562,0 0.2656,0.0781 0.125,0.0781 0.2031,0.26563 0.078,0.17187 0.1094,0.48437 0.047,0.3125 0.047,0.76563 0,0.85937 -0.1563,1.23437 -0.1562,0.35938 -0.4531,0.35938 h -3.0469 v 6.54687 q 0,1.14063 0.3594,1.71875 0.3594,0.5625 1.2812,0.5625 0.3125,0 0.5625,-0.0469 0.25,-0.0625 0.4375,-0.125 0.2032,-0.0781 0.3282,-0.125 0.1406,-0.0625 0.25,-0.0625 0.094,0 0.1718,0.0625 0.094,0.0469 0.1407,0.21875 0.047,0.15625 0.078,0.4375 0.047,0.28125 0.047,0.71875 z m 14.7187,1.42187 q 0,0.21875 -0.1562,0.34375 -0.1563,0.125 -0.5,0.17188 -0.3282,0.0625 -0.9844,0.0625 -0.7031,0 -1.0313,-0.0625 -0.3125,-0.0469 -0.4531,-0.17188 -0.125,-0.125 -0.125,-0.34375 v -1.10937 q -0.8594,0.92187 -1.9687,1.4375 -1.0938,0.51562 -2.4375,0.51562 -1.1094,0 -2.0469,-0.29687 -0.9219,-0.28125 -1.6094,-0.84375 -0.6719,-0.57813 -1.0469,-1.42188 -0.375,-0.84375 -0.375,-1.96875 0,-1.21875 0.4688,-2.10937 0.4844,-0.90625 1.4219,-1.48438 0.9531,-0.59375 2.3593,-0.875 1.4063,-0.28125 3.2657,-0.28125 h 1.3593 v -0.84375 q 0,-0.65625 -0.1406,-1.14062 -0.125,-0.5 -0.4375,-0.82813 -0.2969,-0.32812 -0.8125,-0.48437 -0.5,-0.15625 -1.25,-0.15625 -0.9844,0 -1.7656,0.21875 -0.7656,0.21875 -1.3594,0.48437 -0.5937,0.26563 -1,0.48438 -0.3906,0.21875 -0.6406,0.21875 -0.1719,0 -0.3125,-0.10938 -0.125,-0.10937 -0.2188,-0.3125 -0.078,-0.20312 -0.125,-0.5 -0.047,-0.29687 -0.047,-0.65625 0,-0.48437 0.078,-0.76562 0.078,-0.28125 0.2969,-0.5 0.2187,-0.23438 0.7656,-0.5 0.5469,-0.28125 1.2812,-0.51563 0.7344,-0.23437 1.5938,-0.375 0.875,-0.15625 1.7969,-0.15625 1.6406,0 2.7968,0.32813 1.1719,0.3125 1.9219,0.98437 0.75,0.65625 1.0938,1.70313 0.3437,1.04687 0.3437,2.48437 z m -3.8594,-5.96875 h -1.5 q -0.9531,0 -1.625,0.14063 -0.6718,0.14062 -1.0937,0.42187 -0.4219,0.28125 -0.625,0.6875 -0.1875,0.39063 -0.1875,0.90625 0,0.875 0.5469,1.375 0.5625,0.5 1.5468,0.5 0.8282,0 1.5157,-0.42187 0.7031,-0.42188 1.4218,-1.23438 z m 11.7188,5.92188 q 0,0.15625 -0.094,0.28125 -0.094,0.10937 -0.3281,0.1875 -0.2187,0.0781 -0.5937,0.10937 -0.375,0.0469 -0.9532,0.0469 -0.5781,0 -0.9531,-0.0469 -0.375,-0.0312 -0.6094,-0.10937 -0.2187,-0.0781 -0.3125,-0.1875 -0.094,-0.125 -0.094,-0.28125 v -13.90625 q 0,-0.15625 0.094,-0.26563 0.094,-0.125 0.3125,-0.20312 0.2344,-0.0937 0.6094,-0.14063 0.375,-0.0469 0.9531,-0.0469 0.5782,0 0.9532,0.0469 0.375,0.0469 0.5937,0.14063 0.2344,0.0781 0.3281,0.20312 0.094,0.10938 0.094,0.26563 z m 0.2969,-18.65625 q 0,1.1875 -0.4844,1.64062 -0.4844,0.45313 -1.7969,0.45313 -1.3281,0 -1.7969,-0.4375 -0.4531,-0.4375 -0.4531,-1.57813 0,-1.1875 0.4688,-1.64062 0.4843,-0.46875 1.8125,-0.46875 1.3125,0 1.7812,0.45312 0.4688,0.4375 0.4688,1.57813 z m 16.9375,18.65625 q 0,0.15625 -0.094,0.28125 -0.094,0.10937 -0.3125,0.1875 -0.2187,0.0781 -0.6094,0.10937 -0.375,0.0469 -0.9375,0.0469 -0.5781,0 -0.9687,-0.0469 -0.375,-0.0312 -0.5938,-0.10937 -0.2187,-0.0781 -0.3125,-0.1875 -0.094,-0.125 -0.094,-0.28125 v -7.95313 q 0,-1.01562 -0.1563,-1.59375 -0.1406,-0.57812 -0.4218,-0.98437 -0.2813,-0.42188 -0.7344,-0.64063 -0.4375,-0.23437 -1.0313,-0.23437 -0.75,0 -1.5156,0.54687 -0.7656,0.54688 -1.5937,1.59375 v 9.26563 q 0,0.15625 -0.094,0.28125 -0.094,0.10937 -0.3281,0.1875 -0.2188,0.0781 -0.5938,0.10937 -0.375,0.0469 -0.9531,0.0469 -0.5781,0 -0.9531,-0.0469 -0.375,-0.0312 -0.6094,-0.10937 -0.2187,-0.0781 -0.3125,-0.1875 -0.094,-0.125 -0.094,-0.28125 v -13.9375 q 0,-0.15625 0.078,-0.26563 0.078,-0.125 0.2812,-0.20312 0.2032,-0.0781 0.5157,-0.10938 0.3281,-0.0469 0.8125,-0.0469 0.5,0 0.8281,0.0469 0.3281,0.0312 0.5,0.10938 0.1875,0.0781 0.2656,0.20312 0.078,0.10938 0.078,0.26563 v 1.60937 q 1.1563,-1.25 2.3438,-1.875 1.2031,-0.625 2.5,-0.625 1.4219,0 2.3906,0.46875 0.9844,0.46875 1.5781,1.28125 0.6094,0.79688 0.875,1.875 0.2657,1.07813 0.2657,2.59375 z m 16.7343,-7.375 q 0,0.71875 -0.3281,1.0625 -0.3125,0.34375 -0.875,0.34375 h -8.4844 q 0,0.89062 0.2032,1.625 0.2187,0.71875 0.6718,1.23437 0.4688,0.5 1.1875,0.76563 0.7344,0.26562 1.75,0.26562 1.0313,0 1.8125,-0.14062 0.7813,-0.15625 1.3438,-0.32813 0.5781,-0.1875 0.9531,-0.32812 0.375,-0.15625 0.6094,-0.15625 0.1406,0 0.2344,0.0625 0.094,0.0469 0.1562,0.1875 0.062,0.14062 0.078,0.40625 0.031,0.25 0.031,0.64062 0,0.34375 -0.016,0.59375 -0.016,0.23438 -0.047,0.40625 -0.031,0.17188 -0.094,0.29688 -0.062,0.10937 -0.1718,0.21875 -0.094,0.10937 -0.5469,0.29687 -0.4531,0.1875 -1.1563,0.375 -0.7031,0.17188 -1.6093,0.29688 -0.9063,0.14062 -1.9375,0.14062 -1.8594,0 -3.2657,-0.46875 -1.3906,-0.46875 -2.3281,-1.42187 -0.9375,-0.95313 -1.4062,-2.40625 -0.4532,-1.45313 -0.4532,-3.40625 0,-1.85938 0.4844,-3.34375 0.4844,-1.5 1.4063,-2.53125 0.9218,-1.04688 2.2343,-1.59375 1.3282,-0.54688 2.9844,-0.54688 1.75,0 2.9844,0.51563 1.25,0.51562 2.0469,1.4375 0.7968,0.90625 1.1718,2.15625 0.375,1.25 0.375,2.71875 z m -3.8125,-1.125 q 0.047,-1.65625 -0.6718,-2.59375 -0.7032,-0.95313 -2.1875,-0.95313 -0.75,0 -1.3125,0.28125 -0.5469,0.28125 -0.9219,0.76563 -0.3594,0.46875 -0.5625,1.125 -0.1875,0.64062 -0.2188,1.375 z m 16,-4.14063 q 0,0.5625 -0.031,0.92188 -0.031,0.35937 -0.094,0.5625 -0.062,0.20312 -0.1718,0.28125 -0.094,0.0781 -0.25,0.0781 -0.125,0 -0.2813,-0.0469 -0.1562,-0.0625 -0.3594,-0.125 -0.1875,-0.0625 -0.4218,-0.10938 -0.2344,-0.0625 -0.5157,-0.0625 -0.3281,0 -0.6562,0.14063 -0.3281,0.125 -0.6875,0.40625 -0.3438,0.28125 -0.7344,0.75 -0.375,0.46875 -0.8125,1.15625 v 8.6875 q 0,0.15625 -0.094,0.28125 -0.094,0.10937 -0.3282,0.1875 -0.2187,0.0781 -0.5937,0.10937 -0.375,0.0469 -0.9531,0.0469 -0.5782,0 -0.9532,-0.0469 -0.375,-0.0312 -0.6093,-0.10937 -0.2188,-0.0781 -0.3125,-0.1875 -0.094,-0.125 -0.094,-0.28125 v -13.9375 q 0,-0.15625 0.078,-0.26563 0.078,-0.125 0.2813,-0.20312 0.2031,-0.0781 0.5156,-0.10938 0.3281,-0.0469 0.8125,-0.0469 0.5,0 0.8281,0.0469 0.3282,0.0312 0.5,0.10938 0.1875,0.0781 0.2657,0.20312 0.078,0.10938 0.078,0.26563 v 1.73437 q 0.5469,-0.78125 1.0312,-1.28125 0.4844,-0.51562 0.9219,-0.8125 0.4375,-0.29687 0.875,-0.40625 0.4375,-0.125 0.875,-0.125 0.2031,0 0.4375,0.0312 0.2344,0.0156 0.4844,0.0781 0.25,0.0469 0.4375,0.125 0.1875,0.0625 0.2656,0.14062 0.094,0.0781 0.125,0.17188 0.047,0.0937 0.078,0.26562 0.031,0.15625 0.047,0.48438 0.016,0.32812 0.016,0.89062 z m 26.6875,2.76563 q 0,2.78125 -0.7343,4.76562 -0.7188,1.96875 -2.0782,3.21875 -1.3593,1.25 -3.3125,1.84375 -1.9375,0.57813 -4.625,0.57813 h -4.8281 q -0.5156,0 -0.875,-0.29688 -0.3437,-0.3125 -0.3437,-1 v -17.625 q 0,-0.6875 0.3437,-0.98437 0.3594,-0.3125 0.875,-0.3125 h 5.1875 q 2.7031,0 4.5781,0.64062 1.8907,0.625 3.1719,1.875 1.2969,1.23438 1.9688,3.0625 0.6718,1.82813 0.6718,4.23438 z m -4.25,0.14062 q 0,-1.4375 -0.3437,-2.67187 -0.3281,-1.23438 -1.0781,-2.14063 -0.7344,-0.90625 -1.9063,-1.40625 -1.1562,-0.51562 -3.0469,-0.51562 h -2.0781 v 13.75 h 2.1406 q 1.6875,0 2.8438,-0.4375 1.1562,-0.4375 1.9219,-1.3125 0.7812,-0.89063 1.1562,-2.20313 0.3906,-1.3125 0.3906,-3.0625 z m 20.2657,2.35938 q 0,0.71875 -0.3282,1.0625 -0.3125,0.34375 -0.875,0.34375 h -8.4843 q 0,0.89062 0.2031,1.625 0.2187,0.71875 0.6719,1.23437 0.4687,0.5 1.1875,0.76563 0.7343,0.26562 1.75,0.26562 1.0312,0 1.8125,-0.14062 0.7812,-0.15625 1.3437,-0.32813 0.5781,-0.1875 0.9531,-0.32812 0.375,-0.15625 0.6094,-0.15625 0.1406,0 0.2344,0.0625 0.094,0.0469 0.1562,0.1875 0.062,0.14062 0.078,0.40625 0.031,0.25 0.031,0.64062 0,0.34375 -0.016,0.59375 -0.016,0.23438 -0.047,0.40625 -0.031,0.17188 -0.094,0.29688 -0.062,0.10937 -0.1719,0.21875 -0.094,0.10937 -0.5469,0.29687 -0.4531,0.1875 -1.1562,0.375 -0.7032,0.17188 -1.6094,0.29688 -0.9063,0.14062 -1.9375,0.14062 -1.8594,0 -3.2656,-0.46875 -1.3907,-0.46875 -2.3282,-1.42187 -0.9375,-0.95313 -1.4062,-2.40625 -0.4531,-1.45313 -0.4531,-3.40625 0,-1.85938 0.4843,-3.34375 0.4844,-1.5 1.4063,-2.53125 0.9219,-1.04688 2.2344,-1.59375 1.3281,-0.54688 2.9843,-0.54688 1.75,0 2.9844,0.51563 1.25,0.51562 2.0469,1.4375 0.7969,0.90625 1.1719,2.15625 0.375,1.25 0.375,2.71875 z m -3.8125,-1.125 q 0.047,-1.65625 -0.6719,-2.59375 -0.7031,-0.95313 -2.1875,-0.95313 -0.75,0 -1.3125,0.28125 -0.5469,0.28125 -0.9219,0.76563 -0.3594,0.46875 -0.5625,1.125 -0.1875,0.64062 -0.2187,1.375 z m 21.0781,1.32812 q 0,1.85938 -0.4063,3.35938 -0.3906,1.48437 -1.1562,2.53125 -0.7656,1.04687 -1.9063,1.60937 -1.1406,0.5625 -2.6093,0.5625 -0.6094,0 -1.125,-0.125 -0.5,-0.10937 -0.9844,-0.34375 -0.4688,-0.25 -0.9375,-0.60937 -0.4688,-0.35938 -0.9688,-0.84375 v 6.5625 q 0,0.15625 -0.094,0.28125 -0.094,0.125 -0.3281,0.20312 -0.2188,0.0937 -0.5938,0.14063 -0.375,0.0469 -0.9531,0.0469 -0.5781,0 -0.9531,-0.0469 -0.375,-0.0469 -0.6094,-0.14063 -0.2188,-0.0781 -0.3125,-0.20312 -0.094,-0.125 -0.094,-0.28125 v -19.46875 q 0,-0.15625 0.078,-0.26563 0.078,-0.125 0.2656,-0.20312 0.2031,-0.0781 0.5156,-0.10938 0.3281,-0.0469 0.8125,-0.0469 0.4688,0 0.7813,0.0469 0.3281,0.0312 0.5156,0.10938 0.2031,0.0781 0.2812,0.20312 0.078,0.10938 0.078,0.26563 v 1.64062 q 0.6093,-0.625 1.1875,-1.09375 0.5937,-0.48437 1.2031,-0.79687 0.6094,-0.32813 1.25,-0.48438 0.6562,-0.15625 1.3906,-0.15625 1.5313,0 2.6094,0.60938 1.0781,0.59375 1.75,1.64062 0.6875,1.04688 1,2.4375 0.3125,1.39063 0.3125,2.96875 z m -4.0938,0.28125 q 0,-0.89062 -0.1406,-1.70312 -0.125,-0.82813 -0.4531,-1.46875 -0.3125,-0.64063 -0.8438,-1.01563 -0.5156,-0.39062 -1.2968,-0.39062 -0.3907,0 -0.7813,0.125 -0.375,0.10937 -0.7812,0.375 -0.3907,0.26562 -0.8125,0.6875 -0.4219,0.42187 -0.8907,1.04687 v 4.59375 q 0.8282,1.04688 1.5782,1.625 0.75,0.5625 1.5625,0.5625 0.7656,0 1.2968,-0.39062 0.5469,-0.39063 0.8907,-1.01563 0.3437,-0.64062 0.5,-1.4375 0.1718,-0.79687 0.1718,-1.59375 z m 11.1719,6.89063 q 0,0.15625 -0.094,0.28125 -0.094,0.10937 -0.3282,0.1875 -0.2187,0.0781 -0.5937,0.10937 -0.375,0.0469 -0.9531,0.0469 -0.5782,0 -0.9532,-0.0469 -0.375,-0.0312 -0.6093,-0.10937 -0.2188,-0.0781 -0.3125,-0.1875 -0.094,-0.125 -0.094,-0.28125 v -20.54688 q 0,-0.15625 0.094,-0.28125 0.094,-0.125 0.3125,-0.20312 0.2343,-0.0937 0.6093,-0.14063 0.375,-0.0469 0.9532,-0.0469 0.5781,0 0.9531,0.0469 0.375,0.0469 0.5937,0.14063 0.2344,0.0781 0.3282,0.20312 0.094,0.125 0.094,0.28125 z m 18.0156,-7.10938 q 0,1.78125 -0.4687,3.25 -0.4688,1.46875 -1.4219,2.53125 -0.9531,1.0625 -2.3906,1.64063 -1.4375,0.57812 -3.3594,0.57812 -1.8594,0 -3.2344,-0.51562 -1.375,-0.51563 -2.2812,-1.5 -0.9063,-0.98438 -1.3438,-2.42188 -0.4375,-1.4375 -0.4375,-3.28125 0,-1.78125 0.4688,-3.25 0.4844,-1.48437 1.4375,-2.53125 0.9531,-1.0625 2.375,-1.64062 1.4375,-0.57813 3.3594,-0.57813 1.875,0 3.25,0.51563 1.375,0.5 2.2656,1.48437 0.9062,0.98438 1.3437,2.42188 0.4375,1.4375 0.4375,3.29687 z m -4.0468,0.15625 q 0,-1.03125 -0.1719,-1.89062 -0.1563,-0.875 -0.5469,-1.51563 -0.3906,-0.64062 -1.0469,-1 -0.6406,-0.35937 -1.625,-0.35937 -0.875,0 -1.5312,0.32812 -0.6563,0.3125 -1.0781,0.9375 -0.4219,0.60938 -0.6407,1.48438 -0.2031,0.85937 -0.2031,1.96875 0,1.03125 0.1719,1.90625 0.1719,0.85937 0.5469,1.5 0.3906,0.64062 1.0468,1 0.6563,0.34375 1.625,0.34375 0.8907,0 1.5469,-0.3125 0.6563,-0.32813 1.0781,-0.9375 0.4219,-0.60938 0.625,-1.46875 0.2032,-0.875 0.2032,-1.98438 z m 15.2343,7.48438 -1.6875,4.9375 q -0.1406,0.39062 -0.7656,0.5625 -0.625,0.17187 -1.8281,0.17187 -0.625,0 -1,-0.0625 -0.375,-0.0469 -0.5625,-0.17187 -0.1875,-0.125 -0.2031,-0.3125 -0.016,-0.1875 0.094,-0.45313 l 1.8594,-4.67187 q -0.2031,-0.0937 -0.375,-0.28125 -0.1563,-0.20313 -0.2344,-0.42188 l -4.7969,-12.8125 q -0.2031,-0.54687 -0.2031,-0.82812 0,-0.29688 0.1875,-0.45313 0.1875,-0.17187 0.625,-0.23437 0.4531,-0.0625 1.1875,-0.0625 0.6719,0 1.0625,0.0312 0.3906,0.0156 0.6094,0.10937 0.2187,0.0937 0.3281,0.29688 0.1094,0.1875 0.2188,0.54687 l 3.2812,9.32813 h 0.047 l 3,-9.51563 q 0.094,-0.40625 0.2344,-0.53125 0.1562,-0.14062 0.5,-0.20312 0.3437,-0.0625 1.2031,-0.0625 0.6719,0 1.1094,0.0625 0.4531,0.0625 0.6562,0.23437 0.2188,0.17188 0.2188,0.46875 0,0.28125 -0.125,0.67188 z m 29.25,-0.53125 q 0,0.15625 -0.094,0.28125 -0.094,0.10937 -0.3125,0.1875 -0.2188,0.0781 -0.5938,0.10937 -0.375,0.0469 -0.9531,0.0469 -0.5937,0 -0.9687,-0.0469 -0.375,-0.0312 -0.6094,-0.10937 -0.2188,-0.0781 -0.3125,-0.1875 -0.078,-0.125 -0.078,-0.28125 v -8.26563 q 0,-0.70312 -0.1407,-1.28125 -0.125,-0.57812 -0.4062,-0.98437 -0.2656,-0.42188 -0.6875,-0.64063 -0.4063,-0.23437 -0.9844,-0.23437 -0.7031,0 -1.4219,0.54687 -0.7187,0.54688 -1.5625,1.59375 v 9.26563 q 0,0.15625 -0.094,0.28125 -0.094,0.10937 -0.3281,0.1875 -0.2188,0.0781 -0.5938,0.10937 -0.375,0.0469 -0.9375,0.0469 -0.5781,0 -0.9531,-0.0469 -0.375,-0.0312 -0.6094,-0.10937 -0.2187,-0.0781 -0.3125,-0.1875 -0.094,-0.125 -0.094,-0.28125 v -8.26563 q 0,-0.70312 -0.1407,-1.28125 -0.125,-0.57812 -0.3906,-0.98437 -0.2656,-0.42188 -0.6875,-0.64063 -0.4219,-0.23437 -0.9844,-0.23437 -0.7187,0 -1.4375,0.54687 -0.7187,0.54688 -1.5468,1.59375 v 9.26563 q 0,0.15625 -0.094,0.28125 -0.094,0.10937 -0.3281,0.1875 -0.2188,0.0781 -0.5938,0.10937 -0.375,0.0469 -0.9531,0.0469 -0.5781,0 -0.9531,-0.0469 -0.375,-0.0312 -0.6094,-0.10937 -0.2187,-0.0781 -0.3125,-0.1875 -0.094,-0.125 -0.094,-0.28125 v -13.9375 q 0,-0.15625 0.078,-0.26563 0.078,-0.125 0.2812,-0.20312 0.2032,-0.0781 0.5157,-0.10938 0.3281,-0.0469 0.8125,-0.0469 0.5,0 0.8281,0.0469 0.3281,0.0312 0.5,0.10938 0.1875,0.0781 0.2656,0.20312 0.078,0.10938 0.078,0.26563 v 1.60937 q 1.1563,-1.25 2.2969,-1.875 1.1563,-0.625 2.4063,-0.625 0.8593,0 1.5468,0.1875 0.6875,0.17188 1.2188,0.51563 0.5469,0.32812 0.9375,0.79687 0.3906,0.46875 0.6562,1.04688 0.625,-0.67188 1.2188,-1.15625 0.6094,-0.48438 1.1875,-0.78125 0.5937,-0.3125 1.1719,-0.45313 0.5937,-0.15625 1.2031,-0.15625 1.3906,0 2.3437,0.46875 0.9532,0.46875 1.5313,1.28125 0.5937,0.79688 0.8437,1.875 0.25,1.07813 0.25,2.28125 z m 16.7344,-7.375 q 0,0.71875 -0.3281,1.0625 -0.3125,0.34375 -0.875,0.34375 h -8.4844 q 0,0.89062 0.2031,1.625 0.2188,0.71875 0.6719,1.23437 0.4688,0.5 1.1875,0.76563 0.7344,0.26562 1.75,0.26562 1.0313,0 1.8125,-0.14062 0.7813,-0.15625 1.3438,-0.32813 0.5781,-0.1875 0.9531,-0.32812 0.375,-0.15625 0.6094,-0.15625 0.1406,0 0.2343,0.0625 0.094,0.0469 0.1563,0.1875 0.062,0.14062 0.078,0.40625 0.031,0.25 0.031,0.64062 0,0.34375 -0.016,0.59375 -0.016,0.23438 -0.047,0.40625 -0.031,0.17188 -0.094,0.29688 -0.062,0.10937 -0.1719,0.21875 -0.094,0.10937 -0.5468,0.29687 -0.4532,0.1875 -1.1563,0.375 -0.7031,0.17188 -1.6094,0.29688 -0.9062,0.14062 -1.9375,0.14062 -1.8593,0 -3.2656,-0.46875 -1.3906,-0.46875 -2.3281,-1.42187 -0.9375,-0.95313 -1.4063,-2.40625 -0.4531,-1.45313 -0.4531,-3.40625 0,-1.85938 0.4844,-3.34375 0.4844,-1.5 1.4062,-2.53125 0.9219,-1.04688 2.2344,-1.59375 1.3281,-0.54688 2.9844,-0.54688 1.75,0 2.9844,0.51563 1.25,0.51562 2.0468,1.4375 0.7969,0.90625 1.1719,2.15625 0.375,1.25 0.375,2.71875 z m -3.8125,-1.125 q 0.047,-1.65625 -0.6719,-2.59375 -0.7031,-0.95313 -2.1875,-0.95313 -0.75,0 -1.3125,0.28125 -0.5468,0.28125 -0.9218,0.76563 -0.3594,0.46875 -0.5625,1.125 -0.1875,0.64062 -0.2188,1.375 z m 20.3594,8.5 q 0,0.15625 -0.094,0.28125 -0.094,0.10937 -0.3125,0.1875 -0.2187,0.0781 -0.6093,0.10937 -0.375,0.0469 -0.9375,0.0469 -0.5782,0 -0.9688,-0.0469 -0.375,-0.0312 -0.5937,-0.10937 -0.2188,-0.0781 -0.3125,-0.1875 -0.094,-0.125 -0.094,-0.28125 v -7.95313 q 0,-1.01562 -0.1562,-1.59375 -0.1407,-0.57812 -0.4219,-0.98437 -0.2813,-0.42188 -0.7344,-0.64063 -0.4375,-0.23437 -1.0312,-0.23437 -0.75,0 -1.5157,0.54687 -0.7656,0.54688 -1.5937,1.59375 v 9.26563 q 0,0.15625 -0.094,0.28125 -0.094,0.10937 -0.3281,0.1875 -0.2187,0.0781 -0.5937,0.10937 -0.375,0.0469 -0.9532,0.0469 -0.5781,0 -0.9531,-0.0469 -0.375,-0.0312 -0.6094,-0.10937 -0.2187,-0.0781 -0.3125,-0.1875 -0.094,-0.125 -0.094,-0.28125 v -13.9375 q 0,-0.15625 0.078,-0.26563 0.078,-0.125 0.2813,-0.20312 0.2031,-0.0781 0.5156,-0.10938 0.3281,-0.0469 0.8125,-0.0469 0.5,0 0.8281,0.0469 0.3281,0.0312 0.5,0.10938 0.1875,0.0781 0.2656,0.20312 0.078,0.10938 0.078,0.26563 v 1.60937 q 1.1562,-1.25 2.3437,-1.875 1.2031,-0.625 2.5,-0.625 1.4219,0 2.3906,0.46875 0.9844,0.46875 1.5782,1.28125 0.6093,0.79688 0.875,1.875 0.2656,1.07813 0.2656,2.59375 z m 12.1094,-1.375 q 0,0.6875 -0.094,1.0625 -0.078,0.35937 -0.2187,0.51562 -0.1407,0.14063 -0.4219,0.26563 -0.2656,0.10937 -0.6406,0.1875 -0.3594,0.0937 -0.7969,0.14062 -0.4219,0.0469 -0.8594,0.0469 -1.1719,0 -2.0312,-0.29688 -0.8594,-0.29687 -1.4219,-0.90625 -0.5625,-0.625 -0.8281,-1.5625 -0.2657,-0.9375 -0.2657,-2.21875 v -7.14062 h -1.6718 q -0.2969,0 -0.4532,-0.35938 -0.1562,-0.375 -0.1562,-1.23437 0,-0.45313 0.031,-0.76563 0.047,-0.3125 0.125,-0.48437 0.078,-0.1875 0.1875,-0.26563 0.125,-0.0781 0.2813,-0.0781 h 1.6562 v -3.10938 q 0,-0.15625 0.078,-0.28125 0.094,-0.125 0.3125,-0.20312 0.2343,-0.0937 0.6093,-0.125 0.3907,-0.0469 0.9532,-0.0469 0.5781,0 0.9531,0.0469 0.3906,0.0312 0.6094,0.125 0.2187,0.0781 0.3125,0.20312 0.094,0.125 0.094,0.28125 v 3.10938 h 3.0313 q 0.1562,0 0.2656,0.0781 0.125,0.0781 0.2031,0.26563 0.078,0.17187 0.1094,0.48437 0.047,0.3125 0.047,0.76563 0,0.85937 -0.1563,1.23437 -0.1562,0.35938 -0.4531,0.35938 h -3.0469 v 6.54687 q 0,1.14063 0.3594,1.71875 0.3594,0.5625 1.2812,0.5625 0.3125,0 0.5625,-0.0469 0.25,-0.0625 0.4375,-0.125 0.2032,-0.0781 0.3282,-0.125 0.1406,-0.0625 0.25,-0.0625 0.094,0 0.1718,0.0625 0.094,0.0469 0.1407,0.21875 0.047,0.15625 0.078,0.4375 0.047,0.28125 0.047,0.71875 z"
     fill-rule="nonzero"
     id="path93"
     style="display:inline" />
  <g
     id="g497"
     transform="translate(-0.5,-0.5)"
     style="display:inline">
    <path
       fill="#cfe2f3"
       d="M 9.063992,150.82331 V 9.311452 H 76.672616 V 150.82331 Z"
       fill-rule="evenodd"
       id="path47"
       style="stroke-width:1.17041" />
    <text
       xml:space="preserve"
       style="font-style:normal;font-variant:normal;font-weight:bold;font-stretch:normal;font-size:24px;line-height:0;font-family:Arial;-inkscape-font-specification:'Arial, Bold';font-variant-ligatures:normal;font-variant-caps:normal;font-variant-numeric:normal;font-variant-east-asian:normal;text-align:start;letter-spacing:0px;word-spacing:0px;writing-mode:lr-tb;text-anchor:start;fill:#000000;fill-opacity:1;stroke:none"
       x="-112.74566"
       y="50.053562"
       id="text345"
       transform="rotate(-90)"><tspan
         sodipodi:role="line"
         id="tspan343"
         x="-112.74566"
         y="50.053562"
         style="font-style:normal;font-variant:normal;font-weight:bold;font-stretch:normal;font-size:24px;line-height:1.55;font-family:Arial;-inkscape-font-specification:'Arial, Bold';font-variant-ligatures:normal;font-variant-caps:normal;font-variant-numeric:normal;font-variant-east-asian:normal">App 1</tspan></text>
  </g>
  <g
     id="g502"
     transform="translate(-0.5,-0.5)"
     style="display:inline">
    <path
       fill="#cfe2f3"
       d="M 86.672616,150.8233 V 9.311452 H 154.28124 V 150.8233 Z"
       fill-rule="evenodd"
       id="path47-5"
       style="stroke-width:1.17041" />
    <text
       xml:space="preserve"
       style="font-style:normal;font-variant:normal;font-weight:bold;font-stretch:normal;font-size:24px;line-height:0;font-family:Arial;-inkscape-font-specification:'Arial, Bold';font-variant-ligatures:normal;font-variant-caps:normal;font-variant-numeric:normal;font-variant-east-asian:normal;text-align:start;letter-spacing:0px;word-spacing:0px;writing-mode:lr-tb;text-anchor:start;fill:#000000;fill-opacity:1;stroke:none"
       x="-112.80754"
       y="128.13869"
       id="text345-8"
       transform="rotate(-90)"><tspan
         sodipodi:role="line"
         id="tspan343-8"
         x="-112.80754"
         y="128.13869"
         style="font-style:normal;font-variant:normal;font-weight:bold;font-stretch:normal;font-size:24px;line-height:1.55;font-family:Arial;-inkscape-font-specification:'Arial, Bold';font-variant-ligatures:normal;font-variant-caps:normal;font-variant-numeric:normal;font-variant-east-asian:normal">App 2</tspan></text>
  </g>
  <g
     id="g507"
     transform="translate(-0.5,-0.5)"
     style="display:inline">
    <path
       fill="#cfe2f3"
       d="M 164.28124,150.82331 V 9.311452 h 67.60863 V 150.82331 Z"
       fill-rule="evenodd"
       id="path47-5-3"
       style="stroke-width:1.17041" />
    <text
       xml:space="preserve"
       style="font-style:normal;font-variant:normal;font-weight:bold;font-stretch:normal;font-size:24px;line-height:0;font-family:Arial;-inkscape-font-specification:'Arial, Bold';font-variant-ligatures:normal;font-variant-caps:normal;font-variant-numeric:normal;font-variant-east-asian:normal;text-align:start;letter-spacing:0px;word-spacing:0px;writing-mode:lr-tb;text-anchor:start;fill:#000000;fill-opacity:1;stroke:none"
       x="-112.74566"
       y="205.27081"
       id="text345-8-1"
       transform="rotate(-90)"><tspan
         sodipodi:role="line"
         id="tspan343-8-1"
         x="-112.74566"
         y="205.27081"
         style="font-style:normal;font-variant:normal;font-weight:bold;font-stretch:normal;font-size:24px;line-height:1.55;font-family:Arial;-inkscape-font-specification:'Arial, Bold';font-variant-ligatures:normal;font-variant-caps:normal;font-variant-numeric:normal;font-variant-east-asian:normal">App 3</tspan></text>
  </g>
  <g
     id="g512"
     transform="translate(-0.5,-0.5)"
     style="display:inline">
    <path
       fill="#cfe2f3"
       d="M 241.88986,150.82331 V 9.311452 h 67.60863 V 150.82331 Z"
       fill-rule="evenodd"
       id="path47-5-3-8"
       style="stroke-width:1.17041" />
    <text
       xml:space="preserve"
       style="font-style:normal;font-variant:normal;font-weight:bold;font-stretch:normal;font-size:24px;line-height:0;font-family:Arial;-inkscape-font-specification:'Arial, Bold';font-variant-ligatures:normal;font-variant-caps:normal;font-variant-numeric:normal;font-variant-east-asian:normal;text-align:start;letter-spacing:0px;word-spacing:0px;writing-mode:lr-tb;text-anchor:start;fill:#000000;fill-opacity:1;stroke:none"
       x="-112.74566"
       y="282.87946"
       id="text345-8-1-2"
       transform="rotate(-90)"><tspan
         sodipodi:role="line"
         id="tspan343-8-1-8"
         x="-112.74566"
         y="282.87946"
         style="font-style:normal;font-variant:normal;font-weight:bold;font-stretch:normal;font-size:24px;line-height:1.55;font-family:Arial;-inkscape-font-specification:'Arial, Bold';font-variant-ligatures:normal;font-variant-caps:normal;font-variant-numeric:normal;font-variant-east-asian:normal">App 4</tspan></text>
  </g>
  <g
     id="g517"
     transform="translate(-0.5,-0.5)"
     style="display:inline">
    <path
       fill="#cfe2f3"
       d="M 319.49848,150.82331 V 9.311452 h 67.60863 V 150.82331 Z"
       fill-rule="evenodd"
       id="path47-5-3-8-4"
       style="stroke-width:1.17041" />
    <text
       xml:space="preserve"
       style="font-style:normal;font-variant:normal;font-weight:bold;font-stretch:normal;font-size:24px;line-height:0;font-family:Arial;-inkscape-font-specification:'Arial, Bold';font-variant-ligatures:normal;font-variant-caps:normal;font-variant-numeric:normal;font-variant-east-asian:normal;text-align:start;letter-spacing:0px;word-spacing:0px;writing-mode:lr-tb;text-anchor:start;fill:#000000;fill-opacity:1;stroke:none"
       x="-112.74566"
       y="360.48804"
       id="text345-8-1-2-0"
       transform="rotate(-90)"><tspan
         sodipodi:role="line"
         id="tspan343-8-1-8-6"
         x="-112.74566"
         y="360.48804"
         style="font-style:normal;font-variant:normal;font-weight:bold;font-stretch:normal;font-size:24px;line-height:1.55;font-family:Arial;-inkscape-font-specification:'Arial, Bold';font-variant-ligatures:normal;font-variant-caps:normal;font-variant-numeric:normal;font-variant-east-asian:normal">App 5</tspan></text>
  </g>
  <g
     id="g522"
     transform="translate(-0.5,-0.5)"
     style="display:inline">
    <path
       fill="#cfe2f3"
       d="M 397.1071,150.82331 V 9.311452 h 67.60863 V 150.82331 Z"
       fill-rule="evenodd"
       id="path47-5-3-8-4-1"
       style="stroke-width:1.17041" />
    <text
       xml:space="preserve"
       style="font-style:normal;font-variant:normal;font-weight:bold;font-stretch:normal;font-size:24px;line-height:0;font-family:Arial;-inkscape-font-specification:'Arial, Bold';font-variant-ligatures:normal;font-variant-caps:normal;font-variant-numeric:normal;font-variant-east-asian:normal;text-align:start;letter-spacing:0px;word-spacing:0px;writing-mode:lr-tb;text-anchor:start;fill:#000000;fill-opacity:1;stroke:none"
       x="-112.74566"
       y="438.09665"
       id="text345-8-1-2-0-1"
       transform="rotate(-90)"><tspan
         sodipodi:role="line"
         id="tspan343-8-1-8-6-0"
         x="-112.74566"
         y="438.09665"
         style="font-style:normal;font-variant:normal;font-weight:bold;font-stretch:normal;font-size:24px;line-height:1.55;font-family:Arial;-inkscape-font-specification:'Arial, Bold';font-variant-ligatures:normal;font-variant-caps:normal;font-variant-numeric:normal;font-variant-east-asian:normal">App 6</tspan></text>
  </g>
</svg>
