<?xml version="1.0" encoding="UTF-8"?><svg xmlns="http://www.w3.org/2000/svg" width="730" height="602" version="1.0" shape-rendering="geometricPrecision"><defs><filter id="shadowBlur" x="0" y="0" width="200%" height="200%"><feOffset in="SourceGraphic" dx="3.0003002" dy="3.0003002" result="offOut"></feOffset><feGaussianBlur in="offOut" stdDeviation="3"></feGaussianBlur></filter></defs><g stroke-width="1" stroke-linecap="square" stroke-linejoin="round"><rect x="0" y="0" width="730" height="602" style="fill: #ffffff"></rect><path stroke="#969696" fill="#969696" filter="url(#shadowBlur)" d="M485.0 189.0 L705.0 189.0 L705.0 287.0 L485.0 287.0 z"></path><path stroke="#969696" fill="#969696" filter="url(#shadowBlur)" d="M35.0 189.0 L225.0 189.0 L225.0 287.0 L35.0 287.0 z"></path><path stroke="#969696" fill="#969696" filter="url(#shadowBlur)" d="M265.0 483.0 L435.0 483.0 L435.0 567.0 L265.0 567.0 z"></path><path stroke="#969696" fill="#969696" filter="url(#shadowBlur)" d="M485.0 35.0 L675.0 35.0 L675.0 105.0 L485.0 105.0 z"></path><path stroke="#969696" fill="#969696" filter="url(#shadowBlur)" d="M485.0 343.0 L705.0 343.0 L705.0 399.0 L485.0 399.0 z"></path><path stroke="#969696" fill="#969696" filter="url(#shadowBlur)" d="M55.0 343.0 L225.0 343.0 L225.0 399.0 L55.0 399.0 z"></path><path stroke="#969696" fill="#969696" filter="url(#shadowBlur)" d="M55.0 35.0 L215.0 35.0 L215.0 77.0 L55.0 77.0 z"></path><path stroke="#000000" stroke-width="1.0" stroke-linecap="round" stroke-linejoin="round" fill="white" d="M485.0 189.0 L705.0 189.0 L705.0 287.0 L485.0 287.0 z"></path><path stroke="#000000" stroke-width="1.0" stroke-linecap="round" stroke-linejoin="round" fill="white" d="M35.0 189.0 L225.0 189.0 L225.0 287.0 L35.0 287.0 z"></path><path stroke="#000000" stroke-width="1.0" stroke-linecap="round" stroke-linejoin="round" fill="white" d="M265.0 483.0 L435.0 483.0 L435.0 567.0 L265.0 567.0 z"></path><path stroke="#000000" stroke-width="1.0" stroke-linecap="round" stroke-linejoin="round" fill="white" d="M485.0 35.0 L675.0 35.0 L675.0 105.0 L485.0 105.0 z"></path><path stroke="#000000" stroke-width="1.0" stroke-linecap="round" stroke-linejoin="round" fill="white" d="M485.0 343.0 L705.0 343.0 L705.0 399.0 L485.0 399.0 z"></path><path stroke="#000000" stroke-width="1.0" stroke-linecap="round" stroke-linejoin="round" fill="white" d="M55.0 343.0 L225.0 343.0 L225.0 399.0 L55.0 399.0 z"></path><path stroke="#000000" stroke-width="1.0" stroke-linecap="round" stroke-linejoin="round" fill="none" d="M475.0 91.0 L285.0 91.0 L285.0 203.0 L235.0 203.0 "></path><path stroke="#000000" stroke-width="1.0" stroke-linecap="round" stroke-linejoin="round" fill="white" d="M55.0 35.0 L215.0 35.0 L215.0 77.0 L55.0 77.0 z"></path><path stroke="none" stroke-width="1.0" stroke-linecap="round" stroke-linejoin="round" fill="#000000" d="M230.0 42.0 L220.0 49.0 L230.0 56.0 z"></path><path stroke="none" stroke-width="1.0" stroke-linecap="round" stroke-linejoin="round" fill="#000000" d="M135.0 84.0 L130.0 98.0 L140.0 98.0 z"></path><path stroke="none" stroke-width="1.0" stroke-linecap="round" stroke-linejoin="round" fill="#000000" d="M470.0 84.0 L480.0 91.0 L470.0 98.0 z"></path><path stroke="none" stroke-width="1.0" stroke-linecap="round" stroke-linejoin="round" fill="#000000" d="M585.0 112.0 L580.0 126.0 L590.0 126.0 z"></path><path stroke="none" stroke-width="1.0" stroke-linecap="round" stroke-linejoin="round" fill="#000000" d="M130.0 168.0 L135.0 182.0 L140.0 168.0 z"></path><path stroke="none" stroke-width="1.0" stroke-linecap="round" stroke-linejoin="round" fill="#000000" d="M580.0 168.0 L585.0 182.0 L590.0 168.0 z"></path><path stroke="none" stroke-width="1.0" stroke-linecap="round" stroke-linejoin="round" fill="#000000" d="M240.0 196.0 L230.0 203.0 L240.0 210.0 z"></path><path stroke="none" stroke-width="1.0" stroke-linecap="round" stroke-linejoin="round" fill="#000000" d="M470.0 238.0 L480.0 245.0 L470.0 252.0 z"></path><path stroke="none" stroke-width="1.0" stroke-linecap="round" stroke-linejoin="round" fill="#000000" d="M135.0 294.0 L130.0 308.0 L140.0 308.0 z"></path><path stroke="none" stroke-width="1.0" stroke-linecap="round" stroke-linejoin="round" fill="#000000" d="M585.0 294.0 L580.0 308.0 L590.0 308.0 z"></path><path stroke="none" stroke-width="1.0" stroke-linecap="round" stroke-linejoin="round" fill="#000000" d="M130.0 322.0 L135.0 336.0 L140.0 322.0 z"></path><path stroke="none" stroke-width="1.0" stroke-linecap="round" stroke-linejoin="round" fill="#000000" d="M580.0 322.0 L585.0 336.0 L590.0 322.0 z"></path><path stroke="none" stroke-width="1.0" stroke-linecap="round" stroke-linejoin="round" fill="#000000" d="M240.0 378.0 L230.0 385.0 L240.0 392.0 z"></path><path stroke="none" stroke-width="1.0" stroke-linecap="round" stroke-linejoin="round" fill="#000000" d="M470.0 378.0 L480.0 385.0 L470.0 392.0 z"></path><path stroke="none" stroke-width="1.0" stroke-linecap="round" stroke-linejoin="round" fill="#000000" d="M585.0 406.0 L580.0 420.0 L590.0 420.0 z"></path><path stroke="none" stroke-width="1.0" stroke-linecap="round" stroke-linejoin="round" fill="#000000" d="M340.0 462.0 L345.0 476.0 L350.0 462.0 z"></path><path stroke="#000000" stroke-width="1.0" stroke-linecap="round" stroke-linejoin="round" fill="none" d="M135.0 301.0 L135.0 329.0 "></path><path stroke="#000000" stroke-width="1.0" stroke-linecap="round" stroke-linejoin="round" fill="none" d="M585.0 301.0 L585.0 329.0 "></path><path stroke="#000000" stroke-width="1.0" stroke-linecap="round" stroke-linejoin="round" fill="none" d="M225.0 49.0 L255.0 49.0 "></path><path stroke="#000000" stroke-width="1.0" stroke-linecap="round" stroke-linejoin="round" fill="none" d="M445.0 49.0 L475.0 49.0 "></path><path stroke="#000000" stroke-width="1.0" stroke-linecap="round" stroke-linejoin="round" fill="none" d="M135.0 91.0 L135.0 175.0 "></path><path stroke="#000000" stroke-width="1.0" stroke-linecap="round" stroke-linejoin="round" fill="none" d="M585.0 119.0 L585.0 175.0 "></path><path stroke="#000000" stroke-width="1.0" stroke-linecap="round" stroke-linejoin="round" fill="none" d="M235.0 245.0 L305.0 245.0 "></path><path stroke="#000000" stroke-width="1.0" stroke-linecap="round" stroke-linejoin="round" fill="none" d="M425.0 245.0 L475.0 245.0 "></path><path stroke="#000000" stroke-width="1.0" stroke-linecap="round" stroke-linejoin="round" fill="none" d="M235.0 385.0 L475.0 385.0 "></path><path stroke="#000000" stroke-width="1.0" stroke-linecap="round" stroke-linejoin="round" fill="none" d="M585.0 413.0 L585.0 441.0 L345.0 441.0 L345.0 469.0 "></path><text x="72" y="54" font-family="sans-serif" font-size="15" stroke="none" fill="#000000"><![CDATA[Windows Share]]></text><text x="110" y="67" font-family="sans-serif" font-size="12" stroke="none" fill="#000000"><![CDATA[Home]]></text><text x="279" y="54" font-family="sans-serif" font-size="15" stroke="none" fill="#000000"><![CDATA[(local cifs mount)]]></text><text x="570" y="54" font-family="sans-serif" font-size="13" stroke="none" fill="#000000"><![CDATA[OS]]></text><text x="511" y="68" font-family="sans-serif" font-size="15" stroke="none" fill="#000000"><![CDATA[/mnt/share/users]]></text><text x="327" y="124" font-family="sans-serif" font-size="15" stroke="none" fill="#000000"><![CDATA[(same value)]]></text><text x="72" y="208" font-family="sans-serif" font-size="15" stroke="none" fill="#000000"><![CDATA[User Profile]]></text><text x="502" y="208" font-family="sans-serif" font-size="15" stroke="none" fill="#000000"><![CDATA[LDAP Home Connector]]></text><text x="101" y="236" font-family="sans-serif" font-size="13" stroke="none" fill="#000000"><![CDATA[LDAP]]></text><text x="89" y="250" font-family="sans-serif" font-size="15" stroke="none" fill="#000000"><![CDATA[Attribute]]></text><text x="571" y="236" font-family="sans-serif" font-size="13" stroke="none" fill="#000000"><![CDATA[LDAP]]></text><text x="559" y="250" font-family="sans-serif" font-size="15" stroke="none" fill="#000000"><![CDATA[Attribute]]></text><text x="322" y="250" font-family="sans-serif" font-size="15" stroke="none" fill="#000000"><![CDATA[(Attribute)]]></text><text x="61" y="278" font-family="sans-serif" font-size="15" stroke="none" fill="#000000"><![CDATA[/mnt/share/users]]></text><text x="521" y="278" font-family="sans-serif" font-size="15" stroke="none" fill="#000000"><![CDATA[/mnt/share/users]]></text><text x="131" y="361" font-family="sans-serif" font-size="12" stroke="none" fill="#000000"><![CDATA[AD]]></text><text x="530" y="362" font-family="sans-serif" font-size="15" stroke="none" fill="#000000"><![CDATA[LDAP Integration]]></text><text x="121" y="390" font-family="sans-serif" font-size="13" stroke="none" fill="#000000"><![CDATA[LDAP]]></text><text x="571" y="390" font-family="sans-serif" font-size="13" stroke="none" fill="#000000"><![CDATA[LDAP]]></text><text x="311" y="502" font-family="sans-serif" font-size="15" stroke="none" fill="#000000"><![CDATA[ownCloud]]></text><text x="309" y="530" font-family="sans-serif" font-size="15" stroke="none" fill="#000000"><![CDATA[Files View]]></text><text x="312" y="558" font-family="sans-serif" font-size="15" stroke="none" fill="#000000"><![CDATA[user home]]></text></g></svg>