<?xml version="1.0" encoding="UTF-8"?><svg xmlns="http://www.w3.org/2000/svg" width="710" height="434" version="1.0" shape-rendering="geometricPrecision"><defs><filter id="shadowBlur" x="0" y="0" width="200%" height="200%"><feOffset in="SourceGraphic" dx="3.0003002" dy="3.0003002" result="offOut"></feOffset><feGaussianBlur in="offOut" stdDeviation="3"></feGaussianBlur></filter></defs><g stroke-width="1" stroke-linecap="square" stroke-linejoin="round"><rect x="0" y="0" width="710" height="434" style="fill: #ffffff"></rect><path stroke="#969696" fill="#969696" filter="url(#shadowBlur)" d="M525.0 161.0 L685.0 161.0 L685.0 245.0 L525.0 245.0 z"></path><path stroke="#969696" fill="#969696" filter="url(#shadowBlur)" d="M75.0 329.0 L175.0 329.0 L175.0 399.0 L75.0 399.0 z"></path><path stroke="#969696" fill="#969696" filter="url(#shadowBlur)" d="M75.0 35.0 L185.0 35.0 L185.0 91.0 L75.0 91.0 z"></path><path stroke="#000000" stroke-width="1.0" stroke-linecap="round" stroke-linejoin="round" fill="white" d="M525.0 161.0 L685.0 161.0 L685.0 245.0 L525.0 245.0 z"></path><path stroke="#000000" stroke-width="1.0" stroke-linecap="round" stroke-linejoin="round" fill="none" d="M635.0 259.0 L635.0 385.0 L445.0 385.0 "></path><path stroke="#000000" stroke-width="1.0" stroke-linecap="round" stroke-linejoin="round" fill="none" d="M115.0 161.0 L75.0 161.0 L75.0 245.0 L185.0 245.0 L185.0 161.0 L135.0 161.0 "></path><path stroke="#000000" stroke-width="1.0" stroke-linecap="round" stroke-linejoin="round" fill="white" d="M75.0 329.0 L175.0 329.0 L175.0 399.0 L75.0 399.0 z"></path><path stroke="#000000" stroke-width="1.0" stroke-linecap="round" stroke-linejoin="round" fill="white" d="M75.0 35.0 L185.0 35.0 L185.0 91.0 L75.0 91.0 z"></path><path stroke="#000000" stroke-width="1.0" stroke-linecap="round" stroke-linejoin="round" fill="none" d="M565.0 259.0 L565.0 343.0 L475.0 343.0 "></path><path stroke="none" stroke-width="1.0" stroke-linecap="round" stroke-linejoin="round" fill="#000000" d="M125.0 98.0 L120.0 112.0 L130.0 112.0 z"></path><path stroke="none" stroke-width="1.0" stroke-linecap="round" stroke-linejoin="round" fill="#000000" d="M510.0 168.0 L520.0 175.0 L510.0 182.0 z"></path><path stroke="none" stroke-width="1.0" stroke-linecap="round" stroke-linejoin="round" fill="#000000" d="M510.0 196.0 L520.0 203.0 L510.0 210.0 z"></path><path stroke="none" stroke-width="1.0" stroke-linecap="round" stroke-linejoin="round" fill="#000000" d="M200.0 224.0 L190.0 231.0 L200.0 238.0 z"></path><path stroke="none" stroke-width="1.0" stroke-linecap="round" stroke-linejoin="round" fill="#000000" d="M95.0 252.0 L90.0 266.0 L100.0 266.0 z"></path><path stroke="none" stroke-width="1.0" stroke-linecap="round" stroke-linejoin="round" fill="#000000" d="M565.0 252.0 L560.0 266.0 L570.0 266.0 z"></path><path stroke="none" stroke-width="1.0" stroke-linecap="round" stroke-linejoin="round" fill="#000000" d="M140.0 308.0 L145.0 322.0 L150.0 308.0 z"></path><path stroke="none" stroke-width="1.0" stroke-linecap="round" stroke-linejoin="round" fill="#000000" d="M190.0 378.0 L180.0 385.0 L190.0 392.0 z"></path><path stroke="#000000" stroke-width="1.0" stroke-linecap="round" stroke-linejoin="round" fill="none" d="M140.0 189.0 L149.0 189.0 "></path><path stroke="#000000" stroke-width="1.0" stroke-linecap="round" stroke-linejoin="round" fill="none" d="M125.0 105.0 L125.0 161.0 "></path><path stroke="#000000" stroke-width="1.0" stroke-linecap="round" stroke-linejoin="round" fill="none" d="M195.0 175.0 L225.0 175.0 "></path><path stroke="#000000" stroke-width="1.0" stroke-linecap="round" stroke-linejoin="round" fill="none" d="M265.0 175.0 L275.0 175.0 "></path><path stroke="#000000" stroke-width="1.0" stroke-linecap="round" stroke-linejoin="round" fill="none" d="M475.0 175.0 L515.0 175.0 "></path><path stroke="#000000" stroke-width="1.0" stroke-linecap="round" stroke-linejoin="round" fill="none" d="M195.0 203.0 L225.0 203.0 "></path><path stroke="#000000" stroke-width="1.0" stroke-linecap="round" stroke-linejoin="round" fill="none" d="M265.0 203.0 L275.0 203.0 "></path><path stroke="#000000" stroke-width="1.0" stroke-linecap="round" stroke-linejoin="round" fill="none" d="M485.0 203.0 L515.0 203.0 "></path><path stroke="#000000" stroke-width="1.0" stroke-linecap="round" stroke-linejoin="round" fill="none" d="M195.0 231.0 L225.0 231.0 "></path><path stroke="#000000" stroke-width="1.0" stroke-linecap="round" stroke-linejoin="round" fill="none" d="M265.0 231.0 L275.0 231.0 "></path><path stroke="#000000" stroke-width="1.0" stroke-linecap="round" stroke-linejoin="round" fill="none" d="M485.0 231.0 L515.0 231.0 "></path><path stroke="#000000" stroke-width="1.0" stroke-linecap="round" stroke-linejoin="round" fill="none" d="M145.0 259.0 L145.0 315.0 "></path><path stroke="#000000" stroke-width="1.0" stroke-linecap="round" stroke-linejoin="round" fill="none" d="M95.0 259.0 L95.0 315.0 "></path><path stroke="#000000" stroke-width="1.0" stroke-linecap="round" stroke-linejoin="round" fill="none" d="M185.0 343.0 L215.0 343.0 "></path><path stroke="#000000" stroke-width="1.0" stroke-linecap="round" stroke-linejoin="round" fill="none" d="M255.0 343.0 L265.0 343.0 "></path><path stroke="#000000" stroke-width="1.0" stroke-linecap="round" stroke-linejoin="round" fill="none" d="M185.0 385.0 L215.0 385.0 "></path><path stroke="#000000" stroke-width="1.0" stroke-linecap="round" stroke-linejoin="round" fill="none" d="M255.0 385.0 L295.0 385.0 "></path><text x="92" y="54" font-family="sans-serif" font-size="15" stroke="none" fill="#000000"><![CDATA[Resource]]></text><text x="112" y="68" font-family="sans-serif" font-size="13" stroke="none" fill="#000000"><![CDATA[Owner]]></text><text x="113" y="138" font-family="sans-serif" font-size="15" stroke="none" fill="#000000"><![CDATA[(B)]]></text><text x="312" y="166" font-family="sans-serif" font-size="15" stroke="none" fill="#000000"><![CDATA[Client Identifier]]></text><text x="303" y="180" font-family="sans-serif" font-size="15" stroke="none" fill="#000000"><![CDATA[& Redirection URI]]></text><text x="233" y="180" font-family="sans-serif" font-size="15" stroke="none" fill="#000000"><![CDATA[(A)]]></text><text x="100" y="194" font-family="sans-serif" font-size="15" stroke="none" fill="#000000"><![CDATA[User]]></text><text x="100" y="208" font-family="sans-serif" font-size="15" stroke="none" fill="#000000"><![CDATA[Agent]]></text><text x="551" y="194" font-family="sans-serif" font-size="15" stroke="none" fill="#000000"><![CDATA[Authorization]]></text><text x="583" y="208" font-family="sans-serif" font-size="15" stroke="none" fill="#000000"><![CDATA[Server]]></text><text x="233" y="208" font-family="sans-serif" font-size="15" stroke="none" fill="#000000"><![CDATA[(B)]]></text><text x="302" y="208" font-family="sans-serif" font-size="15" stroke="none" fill="#000000"><![CDATA[User authenticates]]></text><text x="233" y="236" font-family="sans-serif" font-size="15" stroke="none" fill="#000000"><![CDATA[(C)]]></text><text x="303" y="236" font-family="sans-serif" font-size="15" stroke="none" fill="#000000"><![CDATA[Authorization Code]]></text><text x="83" y="292" font-family="sans-serif" font-size="15" stroke="none" fill="#000000"><![CDATA[(A)]]></text><text x="133" y="292" font-family="sans-serif" font-size="15" stroke="none" fill="#000000"><![CDATA[(C)]]></text><text x="222" y="348" font-family="sans-serif" font-size="15" stroke="none" fill="#000000"><![CDATA[(D)]]></text><text x="280" y="348" font-family="sans-serif" font-size="15" stroke="none" fill="#000000"><![CDATA[Authorization Code]]></text><text x="280" y="362" font-family="sans-serif" font-size="15" stroke="none" fill="#000000"><![CDATA[& Redirection URI]]></text><text x="107" y="362" font-family="sans-serif" font-size="15" stroke="none" fill="#000000"><![CDATA[Client]]></text><text x="223" y="390" font-family="sans-serif" font-size="15" stroke="none" fill="#000000"><![CDATA[(E)]]></text><text x="314" y="390" font-family="sans-serif" font-size="15" stroke="none" fill="#000000"><![CDATA[Access Token]]></text><text x="270" y="404" font-family="sans-serif" font-size="15" stroke="none" fill="#000000"><![CDATA[(w/ Optional Refresh Token)]]></text></g></svg>