<?xml version="1.0" encoding="UTF-8"?><svg xmlns="http://www.w3.org/2000/svg" width="620" height="182" version="1.0" shape-rendering="geometricPrecision"><defs><filter id="shadowBlur" x="0" y="0" width="200%" height="200%"><feOffset in="SourceGraphic" dx="3.0003002" dy="3.0003002" result="offOut"></feOffset><feGaussianBlur in="offOut" stdDeviation="3"></feGaussianBlur></filter></defs><g stroke-width="1" stroke-linecap="square" stroke-linejoin="round"><rect x="0" y="0" width="620" height="182" style="fill: #ffffff"></rect><path stroke="#969696" fill="#969696" filter="url(#shadowBlur)" d="M235.0 35.0 L365.0 35.0 L365.0 91.0 L235.0 91.0 z"></path><path stroke="#969696" fill="#969696" filter="url(#shadowBlur)" d="M475.0 35.0 L595.0 35.0 L595.0 91.0 L475.0 91.0 z"></path><path stroke="#969696" fill="#969696" filter="url(#shadowBlur)" d="M25.0 35.0 L135.0 35.0 L135.0 91.0 L25.0 91.0 z"></path><path stroke="#000000" stroke-width="1.0" stroke-linecap="round" stroke-linejoin="round" fill="white" d="M235.0 35.0 L365.0 35.0 L365.0 91.0 L235.0 91.0 z"></path><path stroke="#000000" stroke-width="1.0" stroke-linecap="round" stroke-linejoin="round" fill="white" d="M475.0 35.0 L595.0 35.0 L595.0 91.0 L475.0 91.0 z"></path><path stroke="#000000" stroke-width="1.0" stroke-linecap="round" stroke-linejoin="round" fill="white" d="M25.0 35.0 L135.0 35.0 L135.0 91.0 L25.0 91.0 z"></path><path stroke="none" stroke-width="1.0" stroke-linecap="round" stroke-linejoin="round" fill="#000000" d="M160.0 56.0 L150.0 63.0 L160.0 70.0 z"></path><path stroke="none" stroke-width="1.0" stroke-linecap="round" stroke-linejoin="round" fill="#000000" d="M210.0 56.0 L220.0 63.0 L210.0 70.0 z"></path><path stroke="none" stroke-width="1.0" stroke-linecap="round" stroke-linejoin="round" fill="#000000" d="M400.0 56.0 L390.0 63.0 L400.0 70.0 z"></path><path stroke="none" stroke-width="1.0" stroke-linecap="round" stroke-linejoin="round" fill="#000000" d="M450.0 56.0 L460.0 63.0 L450.0 70.0 z"></path><path stroke="none" stroke-width="1.0" stroke-linecap="round" stroke-linejoin="round" fill="#000000" d="M235.0 98.0 L230.0 112.0 L240.0 112.0 z"></path><path stroke="none" stroke-width="1.0" stroke-linecap="round" stroke-linejoin="round" fill="#000000" d="M475.0 98.0 L470.0 112.0 L480.0 112.0 z"></path><path stroke="#000000" stroke-width="1.0" stroke-linecap="round" stroke-linejoin="round" fill="none" d="M155.0 63.0 L215.0 63.0 "></path><path stroke="#000000" stroke-width="1.0" stroke-linecap="round" stroke-linejoin="round" fill="none" d="M395.0 63.0 L455.0 63.0 "></path><path stroke="#000000" stroke-width="1.0" stroke-linecap="round" stroke-linejoin="round" fill="none" d="M235.0 105.0 L235.0 133.0 "></path><path stroke="#000000" stroke-width="1.0" stroke-linecap="round" stroke-linejoin="round" fill="none" d="M475.0 105.0 L475.0 133.0 "></path><text x="164" y="54" font-family="sans-serif" font-size="15" stroke="none" fill="#000000"><![CDATA[https]]></text><text x="404" y="54" font-family="sans-serif" font-size="15" stroke="none" fill="#000000"><![CDATA[https]]></text><text x="510" y="54" font-family="sans-serif" font-size="15" stroke="none" fill="#000000"><![CDATA[ocis]]></text><text x="510" y="68" font-family="sans-serif" font-size="15" stroke="none" fill="#000000"><![CDATA[proxy]]></text><text x="506" y="82" font-family="sans-serif" font-size="15" stroke="none" fill="#000000"><![CDATA[service]]></text><text x="57" y="68" font-family="sans-serif" font-size="15" stroke="none" fill="#000000"><![CDATA[Client]]></text><text x="261" y="68" font-family="sans-serif" font-size="15" stroke="none" fill="#000000"><![CDATA[Webserver]]></text><text x="196" y="152" font-family="sans-serif" font-size="15" stroke="none" fill="#000000"><![CDATA[Termination]]></text><text x="452" y="152" font-family="sans-serif" font-size="15" stroke="none" fill="#000000"><![CDATA[Secured]]></text></g></svg>