<?xml version="1.0" encoding="UTF-8"?><svg xmlns="http://www.w3.org/2000/svg" width="880" height="182" version="1.0" shape-rendering="geometricPrecision"><defs><filter id="shadowBlur" x="0" y="0" width="200%" height="200%"><feOffset in="SourceGraphic" dx="3.0003002" dy="3.0003002" result="offOut"></feOffset><feGaussianBlur in="offOut" stdDeviation="3"></feGaussianBlur></filter></defs><g stroke-width="1" stroke-linecap="square" stroke-linejoin="round"><rect x="0" y="0" width="880" height="182" style="fill: #ffffff"></rect><path stroke="#969696" fill="#969696" filter="url(#shadowBlur)" d="M495.0 35.0 L625.0 35.0 L625.0 91.0 L495.0 91.0 z"></path><path stroke="#969696" fill="#969696" filter="url(#shadowBlur)" d="M735.0 35.0 L855.0 35.0 L855.0 91.0 L735.0 91.0 z"></path><path stroke="#969696" fill="#969696" filter="url(#shadowBlur)" d="M25.0 35.0 L135.0 35.0 L135.0 91.0 L25.0 91.0 z"></path><path stroke="#969696" fill="#969696" filter="url(#shadowBlur)" d="M235.0 35.0 L385.0 35.0 L385.0 61.0 L235.0 61.0 z"></path><path stroke="#969696" fill="#969696" filter="url(#shadowBlur)" d="M235.0 65.0 L385.0 65.0 L385.0 91.0 L235.0 91.0 z"></path><path stroke="#000000" stroke-width="1.0" stroke-linecap="round" stroke-linejoin="round" fill="white" d="M495.0 35.0 L625.0 35.0 L625.0 91.0 L495.0 91.0 z"></path><path stroke="#000000" stroke-width="1.0" stroke-linecap="round" stroke-linejoin="round" fill="white" d="M735.0 35.0 L855.0 35.0 L855.0 91.0 L735.0 91.0 z"></path><path stroke="#000000" stroke-width="1.0" stroke-linecap="round" stroke-linejoin="round" fill="white" d="M25.0 35.0 L135.0 35.0 L135.0 91.0 L25.0 91.0 z"></path><path stroke="#000000" stroke-width="1.0" stroke-linecap="round" stroke-linejoin="round" fill="white" d="M235.0 35.0 L385.0 35.0 L385.0 61.0 L235.0 61.0 z"></path><path stroke="#000000" stroke-width="1.0" stroke-linecap="round" stroke-linejoin="round" fill="white" d="M235.0 65.0 L385.0 65.0 L385.0 91.0 L235.0 91.0 z"></path><path stroke="none" stroke-width="1.0" stroke-linecap="round" stroke-linejoin="round" fill="#000000" d="M160.0 56.0 L150.0 63.0 L160.0 70.0 z"></path><path stroke="none" stroke-width="1.0" stroke-linecap="round" stroke-linejoin="round" fill="#000000" d="M210.0 56.0 L220.0 63.0 L210.0 70.0 z"></path><path stroke="none" stroke-width="1.0" stroke-linecap="round" stroke-linejoin="round" fill="#000000" d="M420.0 56.0 L410.0 63.0 L420.0 70.0 z"></path><path stroke="none" stroke-width="1.0" stroke-linecap="round" stroke-linejoin="round" fill="#000000" d="M470.0 56.0 L480.0 63.0 L470.0 70.0 z"></path><path stroke="none" stroke-width="1.0" stroke-linecap="round" stroke-linejoin="round" fill="#000000" d="M660.0 56.0 L650.0 63.0 L660.0 70.0 z"></path><path stroke="none" stroke-width="1.0" stroke-linecap="round" stroke-linejoin="round" fill="#000000" d="M710.0 56.0 L720.0 63.0 L710.0 70.0 z"></path><path stroke="none" stroke-width="1.0" stroke-linecap="round" stroke-linejoin="round" fill="#000000" d="M235.0 98.0 L230.0 112.0 L240.0 112.0 z"></path><path stroke="none" stroke-width="1.0" stroke-linecap="round" stroke-linejoin="round" fill="#000000" d="M495.0 98.0 L490.0 112.0 L500.0 112.0 z"></path><path stroke="none" stroke-width="1.0" stroke-linecap="round" stroke-linejoin="round" fill="#000000" d="M735.0 98.0 L730.0 112.0 L740.0 112.0 z"></path><path stroke="#000000" stroke-width="1.0" stroke-linecap="round" stroke-linejoin="round" fill="none" d="M155.0 63.0 L215.0 63.0 "></path><path stroke="#000000" stroke-width="1.0" stroke-linecap="round" stroke-linejoin="round" fill="none" d="M415.0 63.0 L475.0 63.0 "></path><path stroke="#000000" stroke-width="1.0" stroke-linecap="round" stroke-linejoin="round" fill="none" d="M655.0 63.0 L715.0 63.0 "></path><path stroke="#000000" stroke-width="1.0" stroke-linecap="round" stroke-linejoin="round" fill="none" d="M235.0 105.0 L235.0 133.0 "></path><path stroke="#000000" stroke-width="1.0" stroke-linecap="round" stroke-linejoin="round" fill="none" d="M495.0 105.0 L495.0 133.0 "></path><path stroke="#000000" stroke-width="1.0" stroke-linecap="round" stroke-linejoin="round" fill="none" d="M735.0 105.0 L735.0 133.0 "></path><text x="164" y="54" font-family="sans-serif" font-size="15" stroke="none" fill="#000000"><![CDATA[https]]></text><text x="255" y="54" font-family="sans-serif" font-size="15" stroke="none" fill="#000000"><![CDATA[Loadbalancer]]></text><text x="423" y="54" font-family="sans-serif" font-size="15" stroke="none" fill="#000000"><![CDATA[http]]></text><text x="663" y="54" font-family="sans-serif" font-size="15" stroke="none" fill="#000000"><![CDATA[http]]></text><text x="770" y="54" font-family="sans-serif" font-size="15" stroke="none" fill="#000000"><![CDATA[ocis]]></text><text x="770" y="68" font-family="sans-serif" font-size="15" stroke="none" fill="#000000"><![CDATA[proxy]]></text><text x="766" y="82" font-family="sans-serif" font-size="15" stroke="none" fill="#000000"><![CDATA[service]]></text><text x="57" y="68" font-family="sans-serif" font-size="15" stroke="none" fill="#000000"><![CDATA[Client]]></text><text x="521" y="68" font-family="sans-serif" font-size="15" stroke="none" fill="#000000"><![CDATA[Webserver]]></text><text x="255" y="82" font-family="sans-serif" font-size="15" stroke="none" fill="#000000"><![CDATA[Loadbalancer]]></text><text x="196" y="152" font-family="sans-serif" font-size="15" stroke="none" fill="#000000"><![CDATA[Termination]]></text><text x="462" y="152" font-family="sans-serif" font-size="15" stroke="none" fill="#000000"><![CDATA[Unsecured]]></text><text x="702" y="152" font-family="sans-serif" font-size="15" stroke="none" fill="#000000"><![CDATA[Unsecured]]></text></g></svg>