<svg width="271" height="112" viewBox="0 0 271 112" fill="none" xmlns="http://www.w3.org/2000/svg">
<path d="M64.0602 84.22L52.4902 95.62L66.9102 103.1L78.4802 91.7L64.0602 84.22Z" fill="white" stroke="#454A54" stroke-width="2" stroke-linecap="round" stroke-linejoin="round"/>
<path d="M55.1502 79.59L52.4902 95.59L64.0602 84.19L66.7302 68.19L55.1502 79.59Z" fill="white" stroke="#454A54" stroke-width="2" stroke-linecap="round" stroke-linejoin="round"/>
<path d="M55.1501 79.59L66.7301 68.19L59.4601 53.66L47.8901 65.06L55.1501 79.59Z" fill="white" stroke="#454A54" stroke-width="2" stroke-linecap="round" stroke-linejoin="round"/>
<path d="M81.1501 75.68L66.7301 68.19L64.0601 84.19L78.4801 91.7L81.1501 75.68Z" fill="white" stroke="#454A54" stroke-width="2" stroke-linecap="round" stroke-linejoin="round"/>
<path d="M82.7903 65.77L97.2103 73.26L89.9403 58.73L75.5303 51.24L82.7903 65.77Z" fill="white" stroke="#454A54" stroke-width="2" stroke-linecap="round" stroke-linejoin="round"/>
<path d="M101.52 47.33L89.9399 58.73L97.2099 73.26L108.78 61.86L101.52 47.33Z" fill="white" stroke="#454A54" stroke-width="2" stroke-linecap="round" stroke-linejoin="round"/>
<path d="M82.79 65.77L75.53 51.24L59.46 53.66L66.73 68.19L82.79 65.77Z" fill="white" stroke="#454A54" stroke-width="2" stroke-linecap="round" stroke-linejoin="round"/>
<path d="M87.1003 39.84L75.5303 51.24L89.9403 58.73L101.52 47.33L87.1003 39.84Z" fill="white" stroke="#454A54" stroke-width="2" stroke-linecap="round" stroke-linejoin="round"/>
<path d="M66.73 68.19L81.15 75.68L97.21 73.26L82.79 65.77L66.73 68.19Z" fill="#1F91CC" stroke="#454A54" stroke-width="2" stroke-linecap="round" stroke-linejoin="round"/>
<path d="M29.1602 83.51L36.4202 98L52.4902 95.58L45.2202 81.09L29.1602 83.51Z" fill="white" stroke="#454A54" stroke-width="2" stroke-linecap="round" stroke-linejoin="round"/>
<path d="M14.7402 76L22.0002 90.55L36.4202 98L29.1602 83.51L14.7402 76Z" fill="white" stroke="#454A54" stroke-width="2" stroke-linecap="round" stroke-linejoin="round"/>
<path d="M47.8902 65.06L45.2202 81.06L52.4902 95.59L55.1502 79.59L47.8902 65.06Z" fill="#1F91CC" stroke="#454A54" stroke-width="2" stroke-linecap="round" stroke-linejoin="round"/>
<path d="M29.1602 83.51L45.2202 81.09L47.8902 65.09L31.8202 67.48L29.1602 83.51Z" fill="white" stroke="#454A54" stroke-width="2" stroke-linecap="round" stroke-linejoin="round"/>
<path d="M31.8202 67.48L17.4002 60L14.7402 76L29.1602 83.49L31.8202 67.48Z" fill="#454A54" stroke="#454A54" stroke-width="2" stroke-linecap="round" stroke-linejoin="round"/>
<path d="M33.4699 57.58L17.3999 60L31.8199 67.48L47.8899 65.06L33.4699 57.58Z" fill="white" stroke="#454A54" stroke-width="2" stroke-linecap="round" stroke-linejoin="round"/>
<path d="M33.4702 57.58L47.8902 65.06L59.4602 53.66L45.0002 46.18L33.4702 57.58Z" fill="white" stroke="#454A54" stroke-width="2" stroke-linecap="round" stroke-linejoin="round"/>
<path d="M62.1199 37.64L54.8599 23.1L40.4399 15.62L47.7099 30.15L62.1199 37.64Z" fill="white" stroke="#454A54" stroke-width="2" stroke-linecap="round" stroke-linejoin="round"/>
<path d="M45 46.18L59.42 53.66L62.08 37.66L47.71 30.15L45 46.18Z" fill="#1F91CC" stroke="#454A54" stroke-width="2" stroke-linecap="round" stroke-linejoin="round"/>
<path d="M66.4304 11.7L54.8604 23.1L62.1203 37.6399L73.7003 26.24L66.4304 11.7Z" fill="white" stroke="#454A54" stroke-width="2" stroke-linecap="round" stroke-linejoin="round"/>
<path d="M75.5303 51.24L87.1003 39.84L89.7603 23.84L78.1903 35.22L75.5303 51.24Z" fill="white" stroke="#454A54" stroke-width="2" stroke-linecap="round" stroke-linejoin="round"/>
<path d="M62.12 37.64L59.46 53.64L75.53 51.22L78.19 35.22L62.12 37.64Z" fill="white" stroke="#454A54" stroke-width="2" stroke-linecap="round" stroke-linejoin="round"/>
<path d="M73.7002 26.24L89.7602 23.82L82.5002 9.28998L66.4302 11.7L73.7002 26.24Z" fill="#454A54" stroke="#454A54" stroke-width="2" stroke-linecap="round" stroke-linejoin="round"/>
<path d="M78.1901 35.22L89.7601 23.82L73.7001 26.24L62.1201 37.64L78.1901 35.22Z" fill="white" stroke="#454A54" stroke-width="2" stroke-linecap="round" stroke-linejoin="round"/>
<path d="M37.78 31.65L40.44 15.65L24.38 18L21.71 34L37.78 31.65Z" fill="#1F91CC" stroke="#454A54" stroke-width="2" stroke-linecap="round" stroke-linejoin="round"/>
<path d="M47.7103 30.15L40.4403 15.62L37.7803 31.62L45.0003 46.18L47.7103 30.15Z" fill="white" stroke="#454A54" stroke-width="2" stroke-linecap="round" stroke-linejoin="round"/>
<path d="M29 48.6L45 46.18L37.78 31.65L21.71 34.07L29 48.6Z" fill="white" stroke="#454A54" stroke-width="2" stroke-linecap="round" stroke-linejoin="round"/>
<path d="M21.7101 34.0699L10.1401 45.4699L17.4001 59.9999L29.0001 48.5999L21.7101 34.0699Z" fill="white" stroke="#454A54" stroke-width="2" stroke-linecap="round" stroke-linejoin="round"/>
<path d="M44.9999 46.18L28.9999 48.6L17.3999 60L33.4699 57.58L44.9999 46.18Z" fill="white" stroke="#454A54" stroke-width="2" stroke-linecap="round" stroke-linejoin="round"/>
<path d="M124.7 49.53L128.14 46.2C128.966 47.2431 130.018 48.0848 131.217 48.6617C132.416 49.2386 133.73 49.5355 135.06 49.53C138.2 49.53 139.82 48.02 139.82 45.74C139.82 43.92 138.97 42.8 136.15 42.3L133.6 41.91C128.14 41.06 125.51 38.47 125.51 34.06C125.51 29.22 129.26 26.06 135.3 26.06C137.044 25.9709 138.785 26.2855 140.388 26.9793C141.991 27.6731 143.412 28.7273 144.54 30.06L141.06 33.35C140.356 32.4403 139.443 31.713 138.399 31.2293C137.355 30.7455 136.21 30.5194 135.06 30.57C132.15 30.57 130.65 31.73 130.65 33.74C130.65 35.75 131.8 36.64 134.4 37.1L136.91 37.57C142.37 38.57 144.91 40.97 144.91 45.42C144.91 50.53 141.24 54.01 134.77 54.01C132.861 54.081 130.961 53.7142 129.216 52.9377C127.47 52.1612 125.926 50.9955 124.7 49.53Z" fill="#454A54"/>
<path d="M148.35 43.42C148.35 36.96 151.71 32.9 157.67 32.9C161.73 32.9 164.4 34.83 165.6 38L161.54 39.82C161.344 38.9531 160.848 38.1832 160.14 37.6456C159.432 37.1079 158.558 36.8368 157.67 36.88C154.92 36.88 153.53 38.82 153.53 41.64V45.31C153.53 48.14 154.92 50.03 157.67 50.03C160.03 50.03 161.19 48.68 161.93 46.86L165.72 48.68C164.4 52.24 161.58 54.02 157.67 54.02C151.71 54 148.35 49.92 148.35 43.42Z" fill="#454A54"/>
<path d="M169.13 27.94V27.17C169.13 25.74 169.99 24.69 172.04 24.69C174.09 24.69 174.94 25.69 174.94 27.17V27.94C174.94 29.38 174.05 30.42 172.04 30.42C170.03 30.42 169.13 29.38 169.13 27.94ZM169.56 33.36H174.51V53.56H169.56V33.36Z" fill="#454A54"/>
<path d="M178.89 43.42C178.89 37.04 182.33 32.9 188.25 32.9C194.56 32.9 197.46 37.54 197.46 43.07V44.7H184V45.2C184 48.1 185.66 50.07 188.92 50.07C189.937 50.0736 190.938 49.8252 191.835 49.3471C192.732 48.8689 193.497 48.1759 194.06 47.33L196.73 50.33C195.07 52.61 192.13 54.04 188.37 54.04C182.45 54 178.89 49.88 178.89 43.42ZM184 41.33V41.64H192.28V41.29C192.28 38.51 190.85 36.61 188.28 36.61C185.71 36.61 184 38.54 184 41.33Z" fill="#454A54"/>
<path d="M201.84 53.56V33.36H206.79V36.73H206.99C207.372 35.5561 208.133 34.5426 209.154 33.8491C210.176 33.1557 211.398 32.8218 212.63 32.9C216.77 32.9 219.1 35.76 219.1 40.79V53.56H214.1V41.29C214.1 38.43 213.1 36.96 210.78 36.96C208.78 36.96 206.78 38.04 206.78 40.21V53.56H201.84Z" fill="#454A54"/>
<path d="M223.25 43.42C223.25 36.96 226.61 32.9 232.57 32.9C236.63 32.9 239.3 34.83 240.5 38L236.44 39.82C236.245 38.9522 235.75 38.1811 235.042 37.6431C234.334 37.1051 233.458 36.8348 232.57 36.88C229.82 36.88 228.43 38.82 228.43 41.64V45.31C228.43 48.14 229.82 50.03 232.57 50.03C234.93 50.03 236.09 48.68 236.83 46.86L240.62 48.68C239.3 52.24 236.48 54.02 232.57 54.02C226.61 54 223.25 49.92 223.25 43.42Z" fill="#454A54"/>
<path d="M242.91 43.42C242.91 37.04 246.36 32.9 252.28 32.9C258.58 32.9 261.48 37.54 261.48 43.07V44.7H248.06V45.2C248.06 48.1 249.72 50.07 252.97 50.07C253.988 50.0752 254.992 49.8277 255.891 49.3494C256.79 48.8712 257.556 48.1773 258.12 47.33L260.79 50.33C259.12 52.61 256.18 54.04 252.43 54.04C246.47 54 242.91 49.88 242.91 43.42ZM248.06 41.33V41.64H256.34V41.29C256.34 38.51 254.91 36.61 252.34 36.61C249.77 36.61 248.06 38.54 248.06 41.33Z" fill="#454A54"/>
<path d="M124.7 60.23H130.46L137.39 73.42H137.54L144.39 60.23H149.92V87.23H145.08V67.85H144.93L142.84 72.14L137.31 82.35L131.78 72.14L129.69 67.85H129.53V87.23H124.7V60.23Z" fill="#1F91CC"/>
<path d="M154.62 77.0899C154.62 70.7099 158.06 66.5699 163.98 66.5699C170.29 66.5699 173.19 71.2099 173.19 76.7499V78.3699H159.76V78.8699C159.76 81.7699 161.43 83.7499 164.68 83.7499C165.698 83.7552 166.701 83.5064 167.599 83.0262C168.496 82.5461 169.26 81.8496 169.82 80.9999L172.49 83.9999C170.83 86.2799 167.89 87.7099 164.14 87.7099C158.18 87.6899 154.62 83.5499 154.62 77.0899ZM159.76 74.9999V75.3099H168V74.9999C168 72.2099 166.57 70.3099 164 70.3099C161.43 70.3099 159.76 72.2199 159.76 74.9999Z" fill="#1F91CC"/>
<path d="M175.83 84L178.83 81.06C179.486 81.9047 180.323 82.5906 181.281 83.0668C182.238 83.5429 183.291 83.7969 184.36 83.81C186.72 83.81 187.73 82.92 187.73 81.48C187.73 80.32 187.03 79.59 185.25 79.36L183.25 79.09C178.92 78.54 176.52 76.65 176.52 72.97C176.52 69.07 179.57 66.59 184.18 66.59C188.13 66.59 190.18 67.75 192.07 69.76L189.17 72.66C188.553 71.9892 187.805 71.4517 186.973 71.0802C186.141 70.7088 185.241 70.5113 184.33 70.5C182.21 70.5 181.28 71.35 181.28 72.59C181.28 73.83 182.01 74.59 183.91 74.87L185.96 75.14C190.37 75.76 192.5 77.73 192.5 81.14C192.5 85.04 189.21 87.75 184.18 87.75C182.593 87.8139 181.013 87.5085 179.564 86.8577C178.115 86.207 176.837 85.2287 175.83 84Z" fill="#1F91CC"/>
<path d="M196.89 58.6H201.89V70.4H202C202.385 69.2262 203.149 68.2134 204.171 67.5203C205.194 66.8272 206.417 66.493 207.65 66.57C211.79 66.57 214.11 69.43 214.11 74.46V87.23H209.16V75C209.16 72.13 208.16 70.66 205.84 70.66C203.78 70.66 201.84 71.75 201.84 73.91V87.23H196.84L196.89 58.6Z" fill="#1F91CC"/>
</svg>
